<svg width="49" height="61" viewBox="0 0 49 61" fill="none" xmlns="http://www.w3.org/2000/svg">
<g clipPath="url(#clip0_532_560)">
<g clipPath="url(#clip1_532_560)">
<g clipPath="url(#clip2_532_560)">
<path fillRule="evenodd" clipRule="evenodd" d="M31.4942 0.229894C30.9046 0.417157 29.8991 1.46642 29.7183 2.08304C29.638 2.35709 29.5723 3.09985 29.5723 3.73367V4.88617L29.0068 4.97164C27.767 5.15902 26.6492 5.99547 26.092 7.15306C25.854 7.64743 25.8005 7.9469 25.7994 8.78723C25.7984 9.66617 25.8447 9.90633 26.117 10.4344C26.2924 10.7745 26.5712 11.2148 26.7366 11.4129C27.1351 11.8901 28.2908 12.4975 29.0017 12.6033L29.5723 12.6883V15.0956V17.5028H33.4055H37.2387L37.2794 16.1797C37.3233 14.75 37.4277 14.4806 38.1471 13.9394C38.6122 13.5894 39.7516 13.5894 40.2167 13.9394C40.9361 14.4806 41.0405 14.75 41.0844 16.1797L41.1251 17.5028H43.7131C45.3941 17.5028 46.4745 17.4512 46.7956 17.3556C47.4554 17.1591 48.4505 16.1564 48.6455 15.4915C48.8505 14.792 48.8535 2.7896 48.6487 2.10096C48.5702 1.83683 48.2723 1.3588 47.9866 1.03862C47.0947 0.0389994 47.3818 0.0698671 39.1305 0.0840299C34.237 0.0923823 31.7793 0.139349 31.4942 0.229894ZM46.5747 2.30565L46.8696 2.6027V8.78723V14.9718L46.5747 15.2688C46.291 15.5549 46.2194 15.566 44.6665 15.566H43.053L42.9687 14.991C42.8637 14.2747 42.2609 13.1101 41.7874 12.7084C41.5908 12.5417 41.1539 12.2608 40.8164 12.084C40.2924 11.8096 40.0541 11.763 39.1819 11.764C38.348 11.7651 38.0508 11.8191 37.5603 12.0589C36.4116 12.6204 35.5815 13.7468 35.3956 14.9962L35.3108 15.566H33.4024H31.4942V13.1557V10.7455L30.1813 10.7044C29.0825 10.6702 28.8142 10.6229 28.5371 10.4139C27.9069 9.93925 27.7104 9.5525 27.7104 8.78723C27.7104 8.02195 27.9069 7.6352 28.5371 7.16057C28.8142 6.95164 29.0825 6.90431 30.1813 6.87005L31.4942 6.82901V4.71586C31.4942 2.63369 31.4985 2.59835 31.7891 2.30565L32.0839 2.00847H39.1819H46.2799L46.5747 2.30565ZM17.0905 6.0175C12.6954 6.53099 8.21588 8.91699 5.35304 12.2694C3.18379 14.8096 1.8006 17.6469 1.09009 21.0132C0.734891 22.6964 0.700295 26.1801 1.02222 27.8525C1.53922 30.5381 2.73309 33.4013 4.18127 35.4281C5.29659 36.9892 6.55197 38.2449 9.01156 40.2601L11.3017 42.1363L11.3078 43.4835L11.3139 44.8305L10.9495 44.9827C10.142 45.3197 9.39198 46.5431 9.39198 47.523C9.39198 48.5526 10.1238 49.6939 11.0555 50.1173C11.4928 50.316 11.5269 50.3635 11.4256 50.6321C11.0105 51.7324 11.715 53.342 12.8718 53.9367C13.2461 54.1291 13.3336 54.2468 13.3867 54.6286C13.6061 56.2045 14.8039 58.0068 16.2863 58.9911C18.8455 60.6905 22.4018 60.3701 24.5719 58.2447C25.5714 57.2658 26.5692 55.3761 26.5692 54.4623C26.5692 54.2627 26.6995 54.1187 27.0369 53.9453C28.21 53.3422 28.9175 51.7396 28.4996 50.6321C28.3983 50.3635 28.4324 50.316 28.8697 50.1173C29.8014 49.6939 30.5332 48.5526 30.5332 47.523C30.5332 46.5431 29.7832 45.3197 28.9757 44.9827L28.6113 44.8305L28.618 43.4835L28.6247 42.1363L30.5038 40.6232C32.7616 38.8053 34.7833 36.8066 35.7425 35.4446C37.8292 32.4813 39.0017 28.9205 39.1493 25.0986L39.2184 23.3132H36.3308H33.4434L33.3591 22.7382C33.2541 22.0218 32.6513 20.8572 32.1778 20.4556C31.9812 20.2889 31.5443 20.0079 31.2067 19.8312C30.6828 19.5568 30.4444 19.5102 29.5723 19.5111C28.7384 19.5122 28.4412 19.5662 27.9506 19.806C26.8019 20.3676 25.9719 21.4939 25.7859 22.7434L25.7011 23.3132H23.7928H21.8845V20.9028V18.4926L20.5716 18.4516C19.1529 18.4074 18.8855 18.3022 18.3484 17.5773C18.0012 17.1086 18.0012 15.9603 18.3484 15.4916C18.8855 14.7666 19.1529 14.6614 20.5716 14.6172L21.8845 14.5762V10.2292V5.88205L19.9326 5.89778C18.8591 5.90638 17.5801 5.96024 17.0905 6.0175ZM19.9626 10.2261V12.6334L19.3972 12.7188C18.1573 12.9062 17.0396 13.7427 16.4824 14.9003C16.2444 15.3946 16.1908 15.6941 16.1897 16.5344C16.1888 17.4134 16.235 17.6535 16.5073 18.1815C16.6827 18.5217 16.9615 18.9619 17.1269 19.1601C17.5255 19.6373 18.6812 20.2447 19.392 20.3505L19.9626 20.4355V21.8744V23.3132H18.0544H16.146L16.0617 22.7382C15.9567 22.0218 15.3539 20.8572 14.8804 20.4556C14.6838 20.2889 14.2469 20.0079 13.9094 19.8312C13.3854 19.5568 13.1471 19.5102 12.2749 19.5111C11.441 19.5122 11.1438 19.5662 10.6532 19.806C9.50453 20.3676 8.6745 21.4939 8.48855 22.7434L8.40375 23.3132H5.55617H2.70871L2.81237 22.4356C3.00901 20.7726 3.64793 18.6677 4.43833 17.0791C5.95905 14.0224 8.83402 11.1247 11.8545 9.60407C14.0535 8.49707 16.5699 7.87125 18.9716 7.83409L19.9626 7.81883V10.2261ZM13.3275 21.6998C14.0277 22.2266 14.1338 22.5046 14.1774 23.9269L14.2181 25.25H17.0903H19.9626V27.1729V29.096L19.3972 29.1815C18.1573 29.3689 17.0396 30.2053 16.4824 31.3629C16.2455 31.8551 16.1903 32.1603 16.1872 32.9971C16.1836 33.9406 16.2172 34.0894 16.5914 34.7887C16.8159 35.2083 17.1606 35.688 17.3571 35.8547C17.8935 36.3095 18.7594 36.7163 19.3958 36.8124L19.9626 36.8982V40.758V44.6178H16.5992H13.2359V42.9292V41.2404L10.7369 39.1871C9.36243 38.0578 7.77311 36.6415 7.20506 36.04C4.6507 33.3352 3.10271 29.8877 2.72649 26.067L2.64613 25.25H6.49948H10.3529V24.1079C10.3529 22.5515 10.6213 21.9477 11.4941 21.5405C11.9728 21.3172 12.9294 21.4003 13.3275 21.6998ZM30.6249 21.6998C31.3251 22.2266 31.4311 22.5046 31.4747 23.9269L31.5154 25.25H34.3973H37.2791L37.1987 26.067C36.8248 29.8651 35.2577 33.3529 32.7158 36.0446C32.1452 36.6488 30.5559 38.0685 29.1839 39.1994L26.6894 41.2557V42.9367V44.6178H24.2869H21.8845V39.7865V34.9553L20.5716 34.9143C19.1529 34.8701 18.8855 34.7649 18.3484 34.0399C18.0012 33.5712 18.0012 32.423 18.3484 31.9543C18.8855 31.2293 19.1529 31.1241 20.5716 31.0799L21.8845 31.0389V28.1445V25.25H24.7674H27.6503V24.1079C27.6503 22.5515 27.9187 21.9477 28.7915 21.5405C29.2702 21.3172 30.2268 21.4003 30.6249 21.6998ZM28.3164 46.8518C28.7065 47.2448 28.7065 47.8012 28.3164 48.1942L28.0216 48.4914H19.9626H11.9036L11.6088 48.1942C11.4229 48.007 11.3139 47.7588 11.3139 47.523C11.3139 47.2872 11.4229 47.039 11.6088 46.8518L11.9036 46.5546H19.9626H28.0216L28.3164 46.8518ZM26.3945 50.7254C26.5804 50.9126 26.6894 51.1608 26.6894 51.3966C26.6894 51.6324 26.5804 51.8805 26.3945 52.0678L26.0997 52.365H19.9626H13.8255L13.5308 52.0678C13.3448 51.8805 13.2359 51.6324 13.2359 51.3966C13.2359 51.1608 13.3448 50.9126 13.5308 50.7254L13.8255 50.4282H19.9626H26.0997L26.3945 50.7254ZM24.6473 54.4671C24.6473 54.558 24.4575 55.0146 24.2257 55.4817C23.7133 56.5138 22.9924 57.2131 21.9062 57.7317C21.1805 58.0781 20.9946 58.1148 19.9626 58.1148C18.9331 58.1148 18.7451 58.078 18.0407 57.7383C16.9282 57.2019 16.211 56.512 15.7041 55.4908C15.4696 55.0186 15.2779 54.558 15.2779 54.4671C15.2779 54.3302 16.0833 54.3018 19.9626 54.3018C23.8419 54.3018 24.6473 54.3302 24.6473 54.4671Z" fill="white"/>
</g>
</g>
</g>
<defs>
<clipPath id="clip0_532_560">
<rect width="48" height="60" fill="white" transform="translate(0.800781 0.0799561)"/>
</clipPath>
<clipPath id="clip1_532_560">
<rect width="48" height="60" fill="white" transform="translate(0.800781 0.0799561)"/>
</clipPath>
<clipPath id="clip2_532_560">
<rect width="48" height="60" fill="white" transform="translate(0.800781 0.0799561)"/>
</clipPath>
</defs>
</svg>
