<svg width="726" height="107" viewBox="0 0 726 107" fill="none" xmlns="http://www.w3.org/2000/svg">
<g opacity="0.7">
<mask id="mask0_385_61" style="mask-type:luminance" maskUnits="userSpaceOnUse" x="0" y="0" width="726" height="107">
<path d="M726 0H0V107H726V0Z" fill="white"/>
</mask>
<g mask="url(#mask0_385_61)">
<path d="M690.702 86.6219C711.095 85.9702 716.606 69.5922 706.834 61.1642C706.968 60.5126 707.033 59.8612 707.095 59.2095C732.672 56.7331 732.541 28.5384 705.196 29.0598C702.307 29.1034 699.425 29.1034 696.474 29.1903C714.311 22.8476 711.23 -0.0467952 687.028 0.431077C474.677 4.51473 262.391 8.59838 50.0388 12.682C23.8062 13.2033 22.8224 37.2706 44.5953 42.2232C36.6601 42.2232 28.7902 42.2232 20.855 42.1798C-7.08267 42.0493 -6.82033 71.6341 20.855 72.5464C50.6944 73.5454 80.4684 74.4578 110.308 75.1964C100.864 75.5004 91.4205 75.8047 81.9109 76.1087C54.2358 77.0209 54.0391 107.387 81.9109 106.475C284.884 99.8721 487.792 93.2254 690.767 86.6219H690.702Z" fill="#FBB130"/>
</g>
</g>
</svg>
