<svg width="140" height="25" viewBox="0 0 140 25" fill="none" xmlns="http://www.w3.org/2000/svg">
<path d="M79.0538 10.8708C78.2339 11.615 77.6682 12.3406 77.377 13.275C76.7776 15.1875 77.02 16.9553 78.3282 18.4823C79.2946 19.612 80.6094 20.0733 82.2088 20.0699C81.7324 19.2769 81.3131 18.5766 80.862 17.8257C81.3788 17.6876 81.8216 17.76 82.2576 17.7466C82.7055 17.7331 83.155 17.7432 83.554 17.7432C84.283 17.9233 84.7712 18.3459 85.1315 18.9789C86.0137 18.319 86.5188 17.4688 86.7797 16.4974C87.1181 15.2397 87.0592 13.972 86.4784 12.7901C85.6096 11.0207 84.1685 10.056 82.165 10.0307C80.1464 10.0038 78.1261 10.024 76.1059 10.024C75.8297 10.024 75.5536 10.024 75.19 10.024C75.4779 9.40445 75.9459 9.05932 76.3921 8.72429C77.68 7.7596 79.1245 7.20907 80.7374 6.99357C83.1381 6.67201 85.3268 7.14173 87.2932 8.52226C89.1536 9.82871 90.2344 11.6099 90.5795 13.8811C90.854 15.6859 90.5105 17.3358 89.694 18.915C89.1771 19.915 88.4212 20.7332 87.5171 21.4117C87.3201 21.5599 87.0962 21.6777 86.9548 21.9319C87.2528 22.7249 87.8589 23.3663 88.2158 24.1829C87.8589 24.3512 87.4969 24.2553 87.1501 24.2704C86.7864 24.2856 86.4177 24.2452 86.0575 24.2805C85.2392 24.3596 84.6618 23.9977 84.2123 23.3613C84.15 23.2721 84.1517 23.1391 84.0321 23.1054C83.1348 23.1054 82.2408 23.1222 81.3468 23.102C79.1632 23.0549 77.2793 22.2299 75.717 20.7551C74.5452 19.649 73.8229 18.2651 73.5249 16.659C73.2421 15.1236 73.3364 13.637 73.8734 12.1756C74.1984 11.2917 74.7455 10.886 75.6883 10.8742C76.754 10.8607 77.818 10.8708 79.0538 10.8708Z" fill="#79456C"/>
<path d="M22.1906 14.0511C22.1755 13.8945 22.0425 13.8238 21.9465 13.7279C19.0137 10.817 16.0793 7.90606 13.1448 4.99852C13.0286 4.88404 12.936 4.7342 12.7592 4.69211C12.7273 4.47493 12.5337 4.38402 12.4007 4.25101C11.3956 3.24255 10.3787 2.24419 9.37526 1.23236C9.0234 0.878814 8.24902 0 8.24902 0C8.24902 0 8.64122 0.00840782 8.80284 0.00840782C11.1043 0.00840782 13.4041 -0.0168497 15.7038 0.0201889C16.8369 0.0370247 17.8487 0.395628 18.6854 1.23742C21.9785 4.54901 25.2918 7.8404 28.6101 11.1284C28.9127 11.4283 29.1355 11.7678 29.3278 12.1401C29.6462 12.7567 29.7636 13.4647 29.7717 14.1586C29.7753 14.4609 29.7588 14.7717 29.6724 15.0831C29.5075 15.6774 29.2381 16.2263 28.8458 16.6657C28.238 17.3475 26.9367 18.6035 26.9367 18.6035C25.7228 17.4132 24.4449 16.1892 23.2244 15.0074C22.891 14.6808 22.6115 14.2902 22.1906 14.0511Z" fill="url(#paint0_linear_316_12)"/>
<path d="M124.081 22.5818C124.081 18.6051 124.081 14.711 124.081 10.7664C124.797 10.6469 125.534 10.6233 126.228 10.7496C127.032 10.8944 127.741 11.4954 127.75 12.6588C127.761 14.6639 127.753 16.6707 127.753 18.6759C127.753 18.9503 127.753 19.2264 127.753 19.4638C127.945 19.6793 128.155 19.5934 128.337 19.5951C129.43 19.6018 130.524 19.6153 131.617 19.5867C133.011 19.5496 134.206 19.0479 135.156 18.0041C135.674 17.4334 136.011 16.7566 136.117 16.0209C136.346 14.4299 136.314 12.8692 135.174 11.5425C134.474 10.7277 133.558 10.2984 132.548 10.0509C131.955 9.90612 131.342 9.86739 130.723 9.87581C129.209 9.89601 127.696 9.8876 126.18 9.88086C124.813 9.87581 124.073 9.13504 124.064 7.78144C124.063 7.50702 124.064 7.23428 124.064 6.9868C124.31 6.80497 124.541 6.88242 124.754 6.88242C126.773 6.87568 128.792 6.88747 130.81 6.874C132.043 6.86558 133.252 6.99858 134.43 7.35718C137.327 8.23938 139.252 10.1182 139.821 13.083C140.24 15.2632 139.961 17.4182 138.585 19.3139C137.494 20.8157 136.016 21.7332 134.26 22.2366C133.378 22.4892 132.469 22.6121 131.541 22.6053C129.186 22.5918 126.83 22.602 124.477 22.6003C124.367 22.602 124.26 22.5919 124.081 22.5818Z" fill="#79456C"/>
<path d="M3.53613 13.9737C3.53613 13.9737 5.05303 12.5191 5.89314 11.9534C6.68105 11.4214 7.34938 10.987 8.34774 11.0375C8.74675 11.0577 9.10366 11.1806 9.45721 11.3254C10.2333 11.6436 10.9135 12.0998 11.5078 12.6975C13.3193 14.5208 15.1443 16.3307 16.9693 18.1422C17.1612 18.3324 17.3077 18.6001 17.631 18.6102C17.6394 18.9335 17.9172 19.0715 18.1041 19.2618C19.4088 20.5884 20.7203 21.9067 22.0318 23.2266C18.9879 23.2266 15.9457 23.2266 12.7722 23.2266C11.496 21.9471 10.1424 20.5868 8.78211 19.2315C8.56998 19.0193 8.06322 18.691 8.06322 18.691L7.7063 18.159C7.7063 18.159 5.99747 16.4738 5.15905 15.6168C4.65229 15.1 3.95871 14.5663 3.53613 13.9737Z" fill="url(#paint1_linear_316_12)"/>
<path d="M36.3516 8.71081C36.3516 5.7696 36.3516 2.93615 36.3516 0.117845C36.5856 -0.0404107 36.8146 0.0336649 37.03 0.0319814C39.3567 0.0252471 41.6835 0.0235618 44.0085 0.0302961C45.2661 0.0336633 46.4901 0.230643 47.677 0.658271C49.9178 1.46639 51.401 2.99676 51.7731 5.34029C52.1014 7.40267 51.7243 9.37077 50.1501 10.9415C50.0155 11.0762 49.8976 11.248 49.5777 11.2379C48.8252 10.1503 48.209 8.91789 47.4632 7.77811C47.6972 7.09121 47.7157 6.39253 47.5558 5.71741C47.2443 4.39581 46.256 3.68029 45.0001 3.5557C43.5371 3.41091 42.0505 3.52203 40.5066 3.52203C40.5066 4.36382 40.4847 5.16352 40.5167 5.96322C40.5319 6.36054 40.4578 6.73935 40.3686 7.10973C40.1379 8.07105 39.3652 8.70239 38.3988 8.71081C37.7355 8.71586 37.0671 8.71081 36.3516 8.71081Z" fill="#79456C"/>
<path d="M68.1376 19.1186C68.3295 18.0075 68.0029 17.5597 66.9204 17.1337C66.2823 16.8829 65.5971 16.7431 64.9304 16.5697C63.7822 16.2717 62.607 16.0545 61.5245 15.5528C60.3409 15.004 59.4604 14.1706 59.149 12.8524C58.92 11.8793 59.6995 10.7698 60.6962 10.6991C61.1709 10.6654 61.6491 10.6856 62.1255 10.6839C62.373 10.6822 62.6188 10.6839 62.8326 10.6839C62.9471 10.8624 62.8074 10.9247 62.7872 11.0206C62.5649 12.0863 62.8141 12.4971 63.8495 12.9382C64.9506 13.408 66.1442 13.5325 67.2739 13.8928C67.8783 14.0864 68.4962 14.2396 69.0938 14.4535C69.9272 14.7498 70.6242 15.27 71.1579 15.9603C71.8616 16.8711 72.0115 17.9401 71.7926 19.0345C71.3448 21.2703 69.769 22.3713 67.6207 22.9101C66.2755 23.2468 64.8866 23.1996 63.533 23.0565C61.8225 22.8764 60.1675 22.4168 58.7314 21.341C58.8611 21.043 58.9705 20.7652 59.1018 20.4975C59.6456 19.3931 60.511 19.1944 61.5447 19.4941C62.3932 19.7399 63.2199 20.0463 64.1021 20.1726C65.0516 20.3072 65.9893 20.282 66.9136 20.0311C67.3429 19.9133 67.7099 19.6187 68.1376 19.1186Z" fill="#79456C"/>
<path d="M106.525 6.87906C106.525 7.21073 106.525 7.45653 106.525 7.70233C106.525 10.3203 106.52 12.9383 106.527 15.5545C106.53 16.4704 106.431 17.3778 106.187 18.255C105.634 20.2416 104.425 21.6945 102.447 22.3932C100.188 23.1912 97.9151 23.1239 95.7079 22.1878C94.7449 21.7804 93.989 21.0682 93.3964 20.1995C93.3492 20.1305 93.2971 20.0631 93.2651 19.9874C93.2465 19.9419 93.2617 19.883 93.2617 19.8224C93.5294 19.6995 93.8139 19.7635 94.0867 19.7635C95.9083 19.7567 97.7299 19.7517 99.5515 19.7601C101.302 19.7685 102.407 18.6506 102.696 17.2331C102.797 16.7398 102.85 16.2515 102.851 15.7549C102.853 13.5544 102.85 11.3557 102.856 9.15526C102.856 8.88252 102.84 8.61483 102.934 8.33536C103.239 7.43801 103.887 6.90937 104.826 6.88243C105.358 6.86559 105.889 6.87906 106.525 6.87906Z" fill="#79456C"/>
<path d="M59.8779 5.50862C57.5209 9.39937 55.2598 13.1352 52.9651 16.9233C52.9651 18.8233 52.9651 20.7633 52.9651 22.6606C52.9651 22.9349 52.7441 23.1579 52.4698 23.1605L51.0014 23.1744C50.6877 23.1773 50.3687 23.1654 50.0758 23.053C49.232 22.7293 48.7646 21.9905 48.7848 21.213C48.8185 19.9874 48.7983 18.76 48.7899 17.5327C48.7865 17.0748 48.9313 16.6775 49.1619 16.2852C50.3909 14.1875 51.6048 12.0796 52.8203 9.97515C53.4567 8.87409 54.0628 7.7562 54.7261 6.67198C55.1824 5.92447 55.812 5.44296 56.7851 5.49684C57.7599 5.55071 58.7381 5.50862 59.8779 5.50862Z" fill="#79456C"/>
<path d="M40.3307 23.1788H36.1583C36.1388 18.8339 36.1576 12.053 36.1576 12.053C36.1508 10.9233 37.2362 9.63842 38.4501 9.6721C40.3273 9.7226 42.2078 9.68556 44.1372 9.68556C44.7534 10.7058 45.3763 11.7378 46.0144 12.7934C45.5059 12.9786 45.0446 13.0376 44.5699 13.0342C43.1994 13.0291 41.829 13.0325 40.403 13.0325C40.3155 13.9181 40.3694 14.7733 40.3576 15.6252C40.3475 16.462 40.3542 17.297 40.3525 18.1337C40.3508 18.9974 40.3491 19.8611 40.3491 20.7264C40.3491 21.5565 40.3307 22.3117 40.3307 23.1788Z" fill="#79456C"/>
<path d="M105.666 22.5935C105.801 21.9555 106.09 21.516 106.331 21.0598C107.035 19.7331 107.89 18.521 109.031 17.5176C110.01 16.6589 111.143 16.1589 112.409 15.8811C113.49 15.6437 114.581 15.6572 115.655 15.7565C116.98 15.8794 118.214 16.3441 119.321 17.1202C120.488 17.9368 121.296 19.053 122.022 20.2332C122.466 20.9554 122.931 21.6777 123.167 22.506C122.812 22.5817 120.463 22.6794 120.205 22.5767C119.776 22.405 119.357 22.2484 119.086 21.7888C118.512 20.8123 117.67 20.0901 116.618 19.6456C115.261 19.0715 113.887 19.0833 112.495 19.553C111.311 19.952 110.446 20.7382 109.766 21.7248C109.345 22.3343 108.838 22.6272 108.099 22.6003C107.321 22.5733 106.541 22.5935 105.666 22.5935Z" fill="#A9789C"/>
<path d="M108.235 17.0697C108.166 16.8104 108.261 16.5916 108.368 16.3576C109.204 14.5275 110.028 12.6924 110.853 10.859C111.439 9.55424 112.02 8.24778 112.614 6.91608C113.823 6.91608 115.017 6.91608 116.249 6.91608C117.783 10.3321 119.32 13.7548 120.856 17.1775C120.223 16.9131 119.812 16.4215 119.241 16.1269C118.724 15.8609 118.226 15.5309 117.662 15.4047C116.564 15.1589 115.977 14.4753 115.625 13.4551C115.305 12.5257 114.874 11.6351 114.453 10.6368C113.96 11.3422 113.769 12.0745 113.46 12.748C113.229 13.2463 113.034 13.7598 112.823 14.2666C112.63 14.7346 112.264 15.073 111.805 15.1908C110.459 15.5393 109.33 16.265 108.23 17.063L108.235 17.0697Z" fill="#79456C"/>
<path d="M22.0298 23.2249C20.72 21.9033 19.4068 20.585 18.102 19.2601C17.9134 19.0698 17.6373 18.9318 17.6289 18.6085C18.001 18.09 18.4909 17.6809 18.9404 17.2347C20.0145 16.1657 21.1072 15.1117 22.1914 14.0511C22.6123 14.2885 22.8901 14.6807 23.2285 15.0074C24.4491 16.1892 25.7235 17.4149 26.9374 18.6035C26.8347 18.718 26.7488 18.8089 26.6562 18.8998C25.2993 20.2517 22.5786 22.9488 22.5786 22.9488C22.5786 22.9488 22.3076 23.2249 22.0298 23.2249Z" fill="url(#paint2_linear_316_12)"/>
<path d="M96.7971 19.058C95.7112 19.0075 94.6623 19.159 93.6253 18.8981C92.9097 18.718 92.3525 17.9873 92.2498 17.1085C92.2312 16.9435 92.238 16.7751 92.238 16.6084C92.2329 13.5191 92.2279 10.4297 92.2245 7.34035C92.2245 7.20735 92.1892 7.06425 92.3339 6.87232C92.8878 6.87232 93.5057 6.81171 94.1034 6.88747C94.9906 6.99859 95.824 7.71747 95.8055 8.70741C95.7668 10.7934 95.7466 12.8827 95.8088 14.9686C95.8392 15.9687 95.8509 16.9923 96.2516 17.9587C96.3981 18.3122 96.7298 18.5647 96.7971 19.058Z" fill="#A9789C"/>
<path d="M48.2376 15.7986C46.187 12.4062 44.1886 9.09968 42.1279 5.69044C43.2307 5.69044 44.2072 5.64162 45.1769 5.70896C45.7628 5.74937 46.15 6.21235 46.4446 6.69722C47.4312 8.3185 48.4077 9.94652 49.3942 11.5678C49.704 12.0762 49.7831 12.647 49.5676 13.1588C49.1973 14.041 48.7107 14.8743 48.2376 15.7986Z" fill="#A9789C"/>
<path d="M59.5615 9.75465C59.9067 8.99536 60.4808 8.4583 61.1693 8.02394C62.1155 7.42458 63.3109 7.04963 64.4372 6.95367C64.9036 6.91326 65.1981 6.8589 65.6729 6.87406C67.6006 6.9313 69.4542 7.27811 71.1378 8.26974C70.7337 9.66542 70.7337 9.66542 69.7825 10.3035C68.8852 10.5897 68.1326 10.2042 67.3632 10.0156C66.9221 9.90785 66.4894 9.86577 66.0467 9.86408C64.1392 9.85735 62.2334 9.8624 60.3259 9.8523C60.0834 9.8523 59.8242 9.92974 59.5615 9.75465Z" fill="#A9789C"/>
<path d="M3.53551 13.9736L5.15679 15.6151L7.70404 18.1573L8.06096 18.6893C8.06096 18.6893 4.42949 18.7095 2.61291 18.7179C2.06039 18.7208 1.50787 18.7188 0.952145 18.7181C0.771351 18.7179 0.585954 18.6921 0.439358 18.5863C0.31968 18.4999 0.217494 18.392 0.122624 18.2699C0.0388471 18.1621 0 18.0271 0 17.8906C0 17.8357 0 17.7802 0 17.7247C0 17.6095 0.0195566 17.4845 0.101021 17.4031V17.4031C1.14147 16.3559 3.53551 13.9736 3.53551 13.9736Z" fill="#79456C"/>
<path d="M8.24928 0C8.24928 0 9.0254 0.878816 9.37558 1.23405C10.379 2.2442 11.3959 3.24255 12.401 4.2527C12.534 4.3857 12.7276 4.4783 12.7596 4.69379C10.3453 4.69379 7.93105 4.69379 5.54935 4.69379C5.34242 4.69379 5.12695 4.66387 4.97069 4.52821C4.92661 4.48994 4.88667 4.44862 4.8493 4.40458C4.74768 4.28485 4.70703 4.12695 4.70703 3.96991C4.70703 3.93971 4.70703 3.90918 4.70703 3.87835C4.70703 3.72223 4.73805 3.55497 4.84845 3.44458V3.44458C5.87206 2.41592 6.89904 1.39062 7.92434 0.361955L8.24928 0Z" fill="#79456C"/>
<path d="M108.229 17.063C108.207 17.1068 108.183 17.1522 108.158 17.201C108.04 17.068 108.126 17.063 108.236 17.0697L108.229 17.063Z" fill="#79456C"/>
<defs>
<linearGradient id="paint0_linear_316_12" x1="12.8553" y1="0.00838448" x2="28.0917" y2="15.0764" gradientUnits="userSpaceOnUse">
<stop stop-color="#A86E99"/>
<stop offset="1" stop-color="#6C355E"/>
</linearGradient>
<linearGradient id="paint1_linear_316_12" x1="6.20634" y1="12.2143" x2="16.9812" y2="23.2417" gradientUnits="userSpaceOnUse">
<stop stop-color="#A86E98"/>
<stop offset="1" stop-color="#6C355E"/>
</linearGradient>
<linearGradient id="paint2_linear_316_12" x1="24.1063" y1="16.2252" x2="19.9341" y2="20.8609" gradientUnits="userSpaceOnUse">
<stop stop-color="#79456C"/>
<stop offset="1" stop-color="#A66C96"/>
</linearGradient>
</defs>
</svg>
