<svg width="61" height="61" viewBox="0 0 61 61" fill="none" xmlns="http://www.w3.org/2000/svg">
<g clipPath="url(#clip0_532_568)">
<g clipPath="url(#clip1_532_568)">
<g clipPath="url(#clip2_532_568)">
<path fillRule="evenodd" clipRule="evenodd" d="M43.0228 0.2713C42.4206 0.483324 41.743 1.11764 41.4156 1.77576C41.1972 2.2147 41.1841 2.50283 41.1841 6.87311C41.1841 11.3985 41.19 11.5161 41.4385 11.9744C41.5786 12.2324 41.8698 12.6123 42.0857 12.8186C42.7555 13.4584 43.239 13.5945 45.0442 13.651L46.6685 13.7018L46.6048 14.0108C46.3944 15.0303 45.7074 19.2226 45.7373 19.3044C45.7572 19.3585 47.8384 18.1147 50.3625 16.5403L54.9516 13.6778L56.3285 13.6763C57.0857 13.6755 57.9749 13.6172 58.3045 13.5467C59.1189 13.3727 59.8206 12.8201 60.2174 12.0405L60.541 11.4046L60.5384 6.8228C60.5361 2.63229 60.5173 2.20051 60.32 1.76731C60.048 1.17076 59.1675 0.389742 58.5633 0.209382C58.2294 0.109703 56.0847 0.0740529 50.8195 0.0807373C44.5672 0.0887116 43.4647 0.115566 43.0228 0.2713ZM58.3694 2.35296L58.6583 2.64074V6.75819C58.6583 10.9592 58.6354 11.1961 58.1978 11.5309C58.0707 11.6281 57.4494 11.675 56.2546 11.6774L54.4981 11.6812L51.4554 13.573C49.782 14.6135 48.3938 15.4446 48.3707 15.42C48.3476 15.3954 48.4747 14.544 48.6533 13.5282L48.9778 11.6812H46.3406H43.7034L43.4146 11.3933L43.1257 11.1055V6.85669C43.1257 2.65575 43.1285 2.60485 43.3815 2.33642L43.6375 2.06506H50.859H58.0806L58.3694 2.35296ZM27.8873 3.07803C26.6756 3.20644 24.4012 3.63811 23.2743 3.95345C18.6694 5.24201 14.6481 7.57872 11.2903 10.917C7.95321 14.2345 5.64427 18.1118 4.36566 22.5448L3.97194 23.9098L3.11553 22.4825C2.64449 21.6974 2.21334 21.027 2.15757 20.9926C2.08108 20.9455 0.878012 21.5777 0.541355 21.8419C0.506524 21.8692 3.16342 26.3697 3.8112 27.3807C3.89192 27.5065 4.53228 27.1736 6.72261 25.8671C8.26704 24.9459 9.54694 24.1799 9.56683 24.1649C9.59284 24.1451 8.74196 22.6807 8.60428 22.5085C8.59534 22.4974 8.0324 22.8256 7.35321 23.2376C6.67401 23.6498 6.0826 23.9888 6.03906 23.9907C5.9128 23.9967 6.39137 22.4081 6.94124 20.9964C9.90137 13.3965 16.2932 7.74759 24.252 5.69795C28.1787 4.68674 32.716 4.6858 36.6838 5.69561L37.9493 6.01763L38.232 5.12603C38.439 4.47342 38.4777 4.21355 38.3765 4.15609C38.1269 4.01431 36.3388 3.59226 34.9242 3.34119C33.8542 3.15144 32.9414 3.08718 30.9468 3.0615C29.523 3.04309 28.1462 3.05059 27.8873 3.07803ZM45.0332 4.90885L45.0673 5.87632L50.8626 5.90669L56.6579 5.93718V4.93922V3.94137H50.8284H44.9989L45.0332 4.90885ZM45.0332 8.77874L45.0673 9.74621L48.921 9.77717L52.7747 9.80801V8.8097V7.81127H48.8869H44.9989L45.0332 8.77874ZM54.7751 8.80806V9.80485H55.7165H56.6579V8.80806V7.81127H55.7165H54.7751V8.80806ZM28.5934 9.88166C26.1864 10.2648 23.6831 11.4753 21.8609 13.1372C20.2348 14.6203 18.8354 16.9686 18.2097 19.2642L17.8953 20.4178L17.8904 25.2258L17.8853 30.0339L18.1914 30.6843C18.6363 31.6296 19.153 32.1518 20.0908 32.6038L20.9165 33.002L21.2429 34.0132C21.4224 34.5694 21.7994 35.4297 22.0806 35.9249C22.6522 36.9311 24.1339 38.5083 25.0336 39.0679C25.4223 39.3097 25.5924 39.4932 25.5925 39.671C25.5928 39.9649 25.8809 39.8932 21.4539 40.7004C19.857 40.9914 18.2608 41.3377 17.9066 41.4698C16.0235 42.172 14.5915 43.6634 13.8738 45.6699C13.6969 46.1643 13.5187 46.6083 13.4776 46.6565C13.4364 46.7046 12.6243 45.9618 11.6726 45.0059C9.33549 42.658 9.31431 42.9923 11.9698 40.33L13.997 38.2978L10.4106 34.7193L6.82428 31.1409L4.22516 33.7537C2.03319 35.9572 1.56816 36.4858 1.25597 37.1287C0.677265 38.3204 0.495699 39.215 0.55524 40.5811C0.61231 41.8885 0.860479 42.7344 1.49131 43.7719C1.73784 44.1773 4.41414 46.92 9.22959 51.7022C16.1038 58.5292 16.6447 59.0384 17.4036 59.3975C19.518 60.3979 22.0933 60.2911 23.9474 59.1261C24.2668 58.9253 25.7453 57.6538 27.2327 56.3004L29.9373 53.8396L29.2098 53.1067L28.4825 52.3737H38.8636C44.5731 52.3737 49.2446 52.3332 49.2446 52.2836C49.2446 51.9693 46.8434 45.1042 46.5215 44.4983C46.0223 43.5586 44.8089 42.3413 43.8906 41.8592C42.9176 41.3483 42.3267 41.1964 38.9484 40.5891C35.0393 39.8863 35.3581 39.9681 35.3668 39.67C35.372 39.492 35.6422 39.2214 36.2648 38.7705C36.7545 38.4157 37.3883 37.8539 37.6732 37.522L38.1912 36.9187L39.5699 36.8723C40.6837 36.8349 41.0396 36.7784 41.421 36.5787C42.0182 36.2659 42.4908 35.7966 42.814 35.1953C43.0645 34.729 43.0669 34.6609 43.0669 27.8058C43.0669 21.5907 43.0453 20.7875 42.8557 19.9109C41.809 15.075 38.355 11.4307 33.5987 10.144C32.9234 9.96129 32.2627 9.89468 30.8291 9.86477C29.7936 9.8432 28.7875 9.85082 28.5934 9.88166ZM32.217 11.8562C36.0664 12.5252 39.2998 15.2469 40.5461 18.8672C41.0214 20.2474 41.1234 21.073 41.1244 23.5454L41.1253 25.7347L40.6546 25.5504C40.1956 25.3708 40.1839 25.352 40.1839 24.7976V24.229H39.0611C36.2038 24.229 33.5104 23.064 31.3676 20.9012L30.4941 20.0194L29.4668 20.9936C27.1306 23.2094 24.7429 24.229 21.8911 24.229H20.7683V24.7976C20.7683 25.3541 20.7581 25.3701 20.2866 25.5547L19.805 25.7432L19.8587 23.0219C19.9186 19.9873 19.9894 19.5933 20.7757 17.9148C22.1909 14.8937 24.9536 12.6508 28.0727 11.9904C29.7554 11.6343 30.7538 11.6019 32.217 11.8562ZM54.2593 18.3929C54.1652 18.5391 53.3973 19.8069 52.5528 21.2103L51.0174 23.7618L51.5136 24.067C51.7865 24.2349 52.1272 24.4455 52.2705 24.5351C52.4138 24.6248 52.574 24.6981 52.6263 24.6981C52.6788 24.6981 53.0866 24.087 53.5325 23.3401C54.0684 22.4426 54.3728 22.035 54.4304 22.1381C54.4782 22.2238 54.6538 22.7954 54.8205 23.4082C56.8192 30.7519 55.3918 38.6429 50.9499 44.8069C50.5792 45.3213 50.2527 45.8026 50.2241 45.8766C50.1787 45.9946 51.4266 47.0934 51.6085 47.0958C51.7496 47.0975 53.0565 45.236 53.8578 43.8922C56.3751 39.6703 57.6284 35.0889 57.633 30.0925C57.6355 27.3945 57.2516 24.669 56.544 22.3588C56.4165 21.9429 56.3265 21.5885 56.3438 21.5712C56.3707 21.5443 57.399 22.1384 58.7385 22.9547L59.1129 23.1829L59.6074 22.3534C59.8792 21.8974 60.0815 21.5048 60.0567 21.4812C59.9997 21.427 54.9639 18.4117 54.657 18.2481C54.4734 18.1501 54.3975 18.1778 54.2593 18.3929ZM31.2946 23.4411C32.8257 24.6998 35.0416 25.6987 36.948 25.9897C37.4657 26.0688 37.9556 26.1519 38.0364 26.1743C38.1492 26.2057 38.1832 26.907 38.1818 29.18C38.1799 32.3672 38.1038 32.9715 37.5461 34.2245L37.2468 34.8969L33.8614 34.9281L30.4761 34.9592V35.8974V36.8355L33.006 36.8942L35.5359 36.9528L34.9801 37.3374C34.1461 37.9145 33.0606 38.3905 32.0856 38.6068C30.9196 38.8652 29.1231 38.7849 28.0638 38.4269C25.6792 37.6208 23.8475 35.7575 23.0408 33.3174C22.7456 32.4243 22.7282 32.2335 22.6778 29.3452C22.6199 26.0269 22.6036 26.1106 23.3125 26.1071C23.8795 26.1044 25.8009 25.5858 26.7746 25.1729C27.6798 24.7891 29.7172 23.5047 30.1119 23.0691C30.2352 22.9331 30.3822 22.8218 30.4387 22.8218C30.495 22.8218 30.8803 23.1006 31.2946 23.4411ZM20.7683 29.1748V30.8371L20.4629 30.5527C20.295 30.3964 20.0832 30.1259 19.9922 29.9518C19.7937 29.5715 19.7753 28.6522 19.9593 28.2964C20.1272 27.9715 20.5439 27.5126 20.6711 27.5126C20.7245 27.5126 20.7683 28.2605 20.7683 29.1748ZM40.9096 28.2222C41.3213 28.9873 41.1499 29.9376 40.4893 30.5527L40.1839 30.8371V29.1605V27.484L40.4389 27.6527C40.5792 27.7455 40.791 28.0018 40.9096 28.2222ZM41.1253 33.44C41.1253 34.2231 41.0921 34.358 40.8364 34.6127C40.6089 34.8396 40.4261 34.9006 39.9744 34.9006H39.4012L39.6718 34.109C39.8207 33.6737 39.9439 33.2366 39.9455 33.1379C39.948 32.9918 40.6358 32.6334 41.0371 32.5693C41.0857 32.5615 41.1253 32.9533 41.1253 33.44ZM10.7639 38.8283L10.234 39.3565L8.00263 37.1303L5.77136 34.9043L6.29511 34.3725L6.81898 33.8406L9.05638 36.0705L11.2939 38.3002L10.7639 38.8283ZM8.48143 41.1712C7.87684 42.0592 7.79883 43.2035 8.27998 44.1276C8.63276 44.805 16.1275 52.1998 16.7035 52.4386C17.6091 52.8141 19.0181 52.6139 19.6531 52.0195C19.8935 51.7943 19.9013 51.8005 22.1257 54.0258L24.3572 56.2579L23.7417 56.8276C23.4031 57.1409 22.8207 57.5466 22.4473 57.7292C21.8209 58.0356 21.6637 58.0612 20.4152 58.0602C18.201 58.0585 18.8257 58.5502 10.4477 50.2156C2.60236 42.411 2.80982 42.6517 2.50081 40.9953C2.24217 39.6092 2.72509 38.0714 3.78966 36.8915L4.3333 36.2888L6.55916 38.5071L8.78514 40.7254L8.48143 41.1712ZM30.5349 40.685C31.4868 40.6804 32.2341 40.6137 32.6529 40.4961C33.0087 40.3961 33.3114 40.3257 33.3254 40.3397C33.3395 40.3537 32.7034 41.009 31.9118 41.7959L30.4727 43.2268L29.0173 41.773L27.5621 40.3192L28.3131 40.5056C28.8099 40.629 29.5618 40.6897 30.5349 40.685ZM28.3274 43.8998L30.4173 45.9801L32.5247 43.8821L34.6324 41.7843L38.32 42.4494C41.3064 42.9881 42.1452 43.1811 42.7299 43.4645C43.5297 43.8523 44.2537 44.4932 44.7154 45.2222C44.9702 45.6244 46.5382 49.9763 46.5382 50.2813C46.5382 50.3356 42.0234 50.3802 36.5053 50.3802H26.4725L24.6514 48.5625C23.6498 47.5627 22.7843 46.7448 22.7279 46.7448C22.6717 46.7448 21.8767 47.4221 20.9615 48.2502C18.2999 50.6577 18.2055 50.732 17.8022 50.732C17.5005 50.732 17.2359 50.5325 16.2325 49.5485L15.0257 48.365L15.4814 47.0133C15.9979 45.4811 16.4594 44.6879 17.1733 44.1048C18.0819 43.3629 18.753 43.1527 22.3607 42.4799C24.2354 42.1305 25.8746 41.8388 26.0034 41.832C26.1588 41.8237 26.9414 42.52 28.3274 43.8998ZM26.5056 54.3374L25.8914 54.9573L23.6534 52.7206L21.4154 50.4838L22.0519 49.8947L22.6883 49.3056L24.9041 51.5116L27.12 53.7175L26.5056 54.3374Z" fill="white"/>
</g>
</g>
</g>
<defs>
<clipPath id="clip0_532_568">
<rect width="60" height="60" fill="white" transform="translate(0.541016 0.0799561)"/>
</clipPath>
<clipPath id="clip1_532_568">
<rect width="60" height="60" fill="white" transform="translate(0.541016 0.0799561)"/>
</clipPath>
<clipPath id="clip2_532_568">
<rect width="60" height="60" fill="white" transform="translate(0.541016 0.0799561)"/>
</clipPath>
</defs>
</svg>
