<svg width="45" height="45" viewBox="0 0 45 45" fill="none" xmlns="http://www.w3.org/2000/svg">
<path fillRule="evenodd" clipRule="evenodd" d="M15.4136 27.1606H24.9451C25.3373 27.1606 25.6556 26.8423 25.6556 26.4501C25.6556 26.0579 25.3373 25.7396 24.9451 25.7396H15.4136C15.0214 25.7396 14.7031 26.0579 14.7031 26.4501C14.7031 26.8423 15.0214 27.1606 15.4136 27.1606Z" fill="white"/>
<path fillRule="evenodd" clipRule="evenodd" d="M21.4134 26.45V43.5562C21.4134 43.9484 21.7317 44.2667 22.1239 44.2667C22.5156 44.2667 22.8343 43.9483 22.8343 43.5562V26.45C22.8343 26.0578 22.5156 25.7395 22.1239 25.7395C21.7317 25.7395 21.4134 26.0579 21.4134 26.45ZM6.19721 0C3.43185 0 1.18611 2.24575 1.18611 5.01155C1.18611 7.77734 3.43185 10.0226 6.19721 10.0226C8.96308 10.0226 11.2088 7.77742 11.2088 5.01155C11.2088 2.24567 8.96308 0 6.19721 0ZM6.19721 1.42105C8.1791 1.42105 9.78777 3.02972 9.78777 5.01155C9.78777 6.993 8.1791 8.60159 6.19721 8.60159C4.21576 8.60159 2.60716 6.993 2.60716 5.01155C2.60716 3.02965 4.21583 1.42105 6.19721 1.42105ZM38.8028 0C36.037 0 33.7912 2.24575 33.7912 5.01155C33.7912 7.77734 36.037 10.0226 38.8028 10.0226C41.5682 10.0226 43.8139 7.77742 43.8139 5.01155C43.8139 2.24567 41.5682 0 38.8028 0ZM38.8028 1.42105C40.7843 1.42105 42.3929 3.02972 42.3929 5.01155C42.3929 6.993 40.7843 8.60159 38.8028 8.60159C36.8209 8.60159 35.2123 6.993 35.2123 5.01155C35.2123 3.02965 36.8209 1.42105 38.8028 1.42105ZM10.1137 20.2183C10.1724 20.3368 10.2631 20.4365 10.3755 20.5062C10.4879 20.5759 10.6176 20.6128 10.7499 20.6128L11.0137 20.5616L17.5562 17.9464C18.5632 17.5443 19.7072 18.0346 20.1099 19.0416C20.512 20.0482 20.0213 21.1922 19.0147 21.5947L10.3743 25.0484C9.54859 25.3785 8.61356 25.1114 8.08444 24.4179C7.99425 24.2998 7.86929 24.2129 7.72714 24.1694C7.58499 24.126 7.43281 24.1283 7.29199 24.1758C7.15128 24.2235 7.02904 24.3141 6.94246 24.4348C6.85589 24.5555 6.80932 24.7004 6.80932 24.8489V28.4172C6.80932 28.5915 6.87336 28.7597 6.98926 28.8898C7.10515 29.0199 7.26483 29.1029 7.43793 29.123L13.1889 29.7871C14.548 29.9439 15.5739 31.095 15.5739 32.4635V43.5562C15.5739 43.9485 15.8922 44.2667 16.2844 44.2667C16.6767 44.2667 16.9949 43.9484 16.9949 43.5562V32.4635C16.9949 30.3731 15.428 28.6152 13.3518 28.3756L8.2303 27.784V26.3004C9.04979 26.677 10.0123 26.7234 10.9014 26.3681L19.5424 22.9145C21.277 22.2206 22.1226 20.2491 21.4291 18.514C20.7356 16.7788 18.7642 15.9333 17.0291 16.6268L11.0436 19.0194L7.60511 13.3916C7.3649 12.9984 7.04695 12.6583 6.67073 12.3923C6.29451 12.1263 5.86795 11.9399 5.41717 11.8445C5.38923 11.8388 5.36129 11.8327 5.33283 11.827C4.86104 11.7272 4.37338 11.7294 3.9025 11.8334C3.43162 11.9374 2.98839 12.1408 2.60248 12.4299C2.21662 12.7192 1.89702 13.0876 1.66509 13.5105C1.43316 13.9333 1.29425 14.4008 1.25766 14.8817C0.839852 20.3793 0.00193189 31.3972 0.00193189 31.3972C0.000445821 31.4152 0 31.4332 0 31.4512C0 33.5392 1.56364 35.2956 3.63693 35.5382L8.76454 36.2004V43.5562C8.76454 43.9484 9.08286 44.2667 9.47503 44.2667C9.8672 44.2667 10.1855 43.9483 10.1855 43.5562V35.5756C10.1855 35.4029 10.1227 35.2361 10.0086 35.1063C9.89459 34.9766 9.7372 34.8929 9.5659 34.8708L3.8059 34.1276C2.4564 33.9718 1.43554 32.8358 1.42091 31.4802C1.42091 31.4764 2.67426 14.9893 2.67426 14.9893C2.6955 14.7104 2.7761 14.4392 2.91066 14.194C3.04521 13.9487 3.23061 13.7351 3.45444 13.5673C3.67837 13.3995 3.93558 13.2814 4.20883 13.221C4.48209 13.1607 4.76509 13.1594 5.03889 13.2172L5.1227 13.2348C5.38424 13.2902 5.63173 13.3984 5.85001 13.5527C6.06829 13.7071 6.25278 13.9043 6.39218 14.1324C7.46698 15.8917 9.64541 19.4576 10.0703 20.1535C10.0848 20.1761 10.099 20.1979 10.1137 20.2183Z" fill="white"/>
<path fillRule="evenodd" clipRule="evenodd" d="M4.47141 21.2518L6.7546 24.9897C7.61526 26.3984 9.36696 26.981 10.9003 26.3681C11.2645 26.2227 11.4422 25.8086 11.2963 25.4449C11.1509 25.0806 10.7369 24.903 10.3731 25.0484C9.48355 25.4041 8.467 25.0664 7.96723 24.2488L5.68411 20.511C5.47948 20.1765 5.04176 20.0709 4.70739 20.275C4.37288 20.4797 4.26677 20.9174 4.47141 21.2518ZM33.298 20.096L26.4181 21.069C24.5679 21.3304 23.2786 23.0451 23.5401 24.8954C23.8015 26.7451 25.5162 28.0349 27.3665 27.7734L35.8279 26.5764C36.1533 26.5307 36.4702 26.4376 36.7687 26.3002V27.7838L31.6472 28.3754C29.571 28.6151 28.0041 30.3729 28.0041 32.4633V43.556C28.0041 43.9483 28.3224 44.2665 28.7145 44.2665C29.1067 44.2665 29.425 43.9482 29.425 43.556V32.4633C29.425 31.0948 30.451 29.9437 31.81 29.7869L37.5591 29.1228H37.5577C37.7315 29.1036 37.892 29.021 38.0086 28.8907C38.1252 28.7605 38.1896 28.5918 38.1896 28.417V24.8483C38.1896 24.6998 38.143 24.555 38.0564 24.4343C37.9698 24.3137 37.8476 24.2232 37.7069 24.1757C37.5661 24.128 37.414 24.1256 37.2718 24.169C37.1297 24.2123 37.0047 24.2991 36.9145 24.4172C36.6013 24.8271 36.1395 25.0973 35.6289 25.1695L27.1674 26.366C26.0936 26.518 25.0988 25.7696 24.9472 24.6958C24.7952 23.6224 25.5436 22.6277 26.617 22.4756L33.8269 21.4562L33.7294 21.4629L34.3357 21.1228L38.1801 14.8299C38.4212 14.4353 38.7665 14.1149 39.1781 13.904C39.5896 13.6932 40.0514 13.6 40.5125 13.6348L40.5518 13.6376C41.8185 13.7333 42.8146 14.7593 42.8724 16.0278L43.5777 31.4661C43.5701 32.8275 42.547 33.9705 41.1927 34.1273L35.5525 34.7786C35.3811 34.7983 35.2226 34.8798 35.1069 35.0079C34.9912 35.136 34.9262 35.3019 34.9239 35.4745L34.8131 43.5461C34.8079 43.9383 35.1219 44.2609 35.5137 44.2665C35.9059 44.2717 36.2285 43.9577 36.2341 43.5655L36.336 36.1182L41.3556 35.5388C43.4318 35.2991 44.9987 33.5408 44.9987 31.451C44.9987 31.44 44.9983 31.4292 44.9978 31.4183L44.292 15.9629C44.201 13.9763 42.6417 12.37 40.6588 12.2208C40.6455 12.2198 40.6323 12.2184 40.6195 12.2174C39.8975 12.1631 39.1745 12.309 38.5301 12.6393C37.8857 12.9695 37.345 13.4711 36.9674 14.089L33.298 20.096ZM29.2105 2.13154C29.2105 1.56623 28.9859 1.02407 28.5862 0.624298C28.3883 0.426337 28.1533 0.269311 27.8947 0.162192C27.6361 0.0550728 27.3589 -4.08118e-05 27.079 2.26745e-08H17.1662C15.9886 2.26745e-08 15.0345 0.954502 15.0345 2.13154V11.1619C15.0345 11.3892 15.0998 11.6117 15.2228 11.8028C15.3458 11.994 15.5211 12.1457 15.728 12.2399C15.9349 12.3341 16.1646 12.3667 16.3895 12.3338C16.6144 12.301 16.8252 12.2041 16.9965 12.0547C17.68 11.4593 18.6431 10.6199 19.1797 10.1519C19.3093 10.0393 19.4751 9.97725 19.6468 9.97717H27.0789C27.3588 9.97721 27.636 9.92209 27.8946 9.81497C28.1533 9.70785 28.3882 9.55083 28.5862 9.35288C28.9858 8.95309 29.2104 8.41094 29.2104 7.84563V2.13154H29.2105ZM16.4556 10.6413V2.13154C16.4556 1.73937 16.7735 1.42105 17.1661 1.42105H27.0789C27.1723 1.42101 27.2647 1.4394 27.351 1.47517C27.4372 1.51093 27.5156 1.56337 27.5815 1.62948C27.6474 1.6954 27.6997 1.77367 27.7354 1.85982C27.7711 1.94597 27.7895 2.0383 27.7895 2.13154V7.84563C27.7895 7.93888 27.7711 8.03121 27.7354 8.11736C27.6998 8.20351 27.6474 8.28178 27.5815 8.3477C27.5156 8.4138 27.4372 8.46624 27.351 8.50201C27.2647 8.53777 27.1723 8.55616 27.0789 8.55612H19.6468C19.132 8.55608 18.6344 8.74233 18.2462 9.08048L16.4556 10.6413Z" fill="white"/>
<path fillRule="evenodd" clipRule="evenodd" d="M18.9566 4.40145H25.3949C25.7872 4.40145 26.1054 4.08313 26.1054 3.69096C26.1054 3.29878 25.7871 2.98047 25.3949 2.98047H18.9566C18.5644 2.98047 18.2461 3.29878 18.2461 3.69096C18.2461 4.08313 18.5643 4.40145 18.9566 4.40145ZM18.9566 6.99256H22.1222C22.5139 6.99256 22.8327 6.67424 22.8327 6.28207C22.8327 5.88982 22.5139 5.57158 22.1222 5.57158H18.9566C18.5644 5.57158 18.2461 5.8899 18.2461 6.28207C18.246 6.67424 18.5643 6.99256 18.9566 6.99256ZM33.6924 26.8788L35.8273 26.5766C36.3221 26.5066 36.7952 26.3281 37.2127 26.0537C37.6303 25.7794 37.982 25.416 38.2426 24.9898L40.5258 21.2519C40.7304 20.9175 40.6243 20.4798 40.2899 20.2752C39.9554 20.071 39.5178 20.1767 39.3131 20.5111L37.03 24.2489C36.8787 24.4963 36.6746 24.7071 36.4323 24.8663C36.19 25.0255 35.9154 25.1291 35.6283 25.1698L33.4935 25.4715C33.105 25.5265 32.8341 25.8865 32.889 26.2749C32.944 26.6628 33.304 26.9337 33.6924 26.8788Z" fill="white"/>
</svg>
