<svg width="48" height="37" viewBox="0 0 48 37" fill="none" xmlns="http://www.w3.org/2000/svg">
<path d="M46.4055 9.96564L27.2715 0.618557C25.622 -0.206186 22.8179 -0.206186 21.1684 0.618557L1.5945 9.96564C0.219931 10.6254 0 11.5601 0 12.055C0 12.5498 0.219931 13.4296 1.5945 14.1443L3.189 14.9141V23.7113C2.19931 24.0962 1.48454 25.0859 1.48454 26.1856C1.48454 27.2852 2.19931 28.2749 3.13402 28.6598L0.659794 36.5223H7.58763L5.1134 28.6598C6.10309 28.2749 6.76289 27.2852 6.76289 26.1856C6.76289 25.0309 6.04811 24.0962 5.05842 23.7113V15.8488L7.97251 17.2783V28.7148C7.97251 28.8797 8.02749 29.0447 8.13746 29.2096C8.41237 29.5395 13.5258 36.5223 23.9725 36.5223C34.4192 36.5223 39.5326 29.4845 39.7526 29.2096C39.8625 29.0447 39.9175 28.8797 39.9175 28.7148V17.3333L46.4055 14.1443C47.7801 13.4845 48 12.5498 48 12.055C47.945 11.5601 47.7801 10.6254 46.4055 9.96564ZM38.1581 28.4399C37.2784 29.5395 32.5498 34.8179 23.9725 34.8179C15.3952 34.8179 10.6667 29.5395 9.78694 28.4399V18.0481L21.1684 23.4914C21.9931 23.8763 23.0928 24.0962 24.1924 24.0962C25.3471 24.0962 26.4467 23.8763 27.2715 23.4364L38.1581 18.1031V28.4399ZM45.6357 12.6048L39.0378 15.8488C38.7629 15.8488 38.543 15.9588 38.433 16.1787L26.5017 21.9519C25.3471 22.5567 23.0928 22.5567 21.8832 21.9519L7.20275 14.9141L24.0825 12.9347C24.5773 12.8797 24.9072 12.4399 24.8522 12C24.7973 11.5052 24.3574 11.1753 23.9175 11.2302L4.34364 13.5395L2.36426 12.6048C1.86942 12.3849 1.75945 12.11 1.75945 12.11C1.75945 12.055 1.86942 11.8351 2.36426 11.6151L21.9381 2.21306C22.543 1.93814 23.3677 1.7732 24.1924 1.7732C25.0722 1.7732 25.9519 1.93814 26.5017 2.21306L45.6357 11.5601C46.1306 11.7801 46.2405 12 46.2405 12.11C46.2405 12.11 46.0756 12.3849 45.6357 12.6048Z" fill="white"/>
</svg>
