<svg width="45" height="40" viewBox="0 0 45 40" fill="none" xmlns="http://www.w3.org/2000/svg">
<path d="M27.0363 3.01887H24.7681V0.754717C24.7681 0.554554 24.6885 0.362589 24.5467 0.221052C24.4049 0.0795147 24.2126 0 24.0121 0H20.9879C20.7874 0 20.5951 0.0795147 20.4533 0.221052C20.3115 0.362589 20.2319 0.554554 20.2319 0.754717V3.01887H17.9637C17.7632 3.01887 17.5709 3.09838 17.4291 3.23992C17.2873 3.38146 17.2077 3.57342 17.2077 3.77358V6.79245C17.2077 6.99262 17.2873 7.18458 17.4291 7.32612C17.5709 7.46766 17.7632 7.54717 17.9637 7.54717H20.2319V9.81132C20.2319 10.0115 20.3115 10.2035 20.4533 10.345C20.5951 10.4865 20.7874 10.566 20.9879 10.566H24.0121C24.2126 10.566 24.4049 10.4865 24.5467 10.345C24.6885 10.2035 24.7681 10.0115 24.7681 9.81132V7.54717H27.0363C27.2368 7.54717 27.4291 7.46766 27.5709 7.32612C27.7127 7.18458 27.7923 6.99262 27.7923 6.79245V3.77358C27.7923 3.57342 27.7127 3.38146 27.5709 3.23992C27.4291 3.09838 27.2368 3.01887 27.0363 3.01887ZM26.2802 6.03774H24.0121C23.8116 6.03774 23.6193 6.11725 23.4775 6.25879C23.3357 6.40032 23.2561 6.59229 23.2561 6.79245V9.0566H21.744V6.79245C21.744 6.59229 21.6643 6.40032 21.5225 6.25879C21.3807 6.11725 21.1884 6.03774 20.9879 6.03774H18.7198V4.5283H20.9879C21.1884 4.5283 21.3807 4.44879 21.5225 4.30725C21.6643 4.16571 21.744 3.97375 21.744 3.77358V1.50943H23.2561V3.77358C23.2561 3.97375 23.3357 4.16571 23.4775 4.30725C23.6193 4.44879 23.8116 4.5283 24.0121 4.5283H26.2802V6.03774ZM43.4652 7.06415C43.4805 6.93137 43.4881 6.79781 43.4879 6.66415C43.4842 5.97236 43.2438 5.30259 42.8066 4.76588C42.3693 4.22917 41.7614 3.85775 41.0837 3.71321C40.3171 3.56754 39.5236 3.718 38.8639 4.13414C38.2042 4.55027 37.7275 5.20102 37.5302 5.95472L34.2036 15.5094C34.1543 15.529 34.1064 15.5517 34.06 15.5774L27.3765 19.4868C26.3538 20.0865 25.5055 20.9421 24.9155 21.9693C24.3254 22.9964 24.0141 24.1594 24.0121 25.3434V32.4528C23.8116 32.4528 23.6193 32.5323 23.4775 32.6739C23.3357 32.8154 23.2561 33.0074 23.2561 33.2075V39.2453C23.2561 39.4454 23.3357 39.6374 23.4775 39.7789C23.6193 39.9205 23.8116 40 24.0121 40H34.5968C34.7973 40 34.9896 39.9205 35.1314 39.7789C35.2732 39.6374 35.3528 39.4454 35.3528 39.2453V33.2075C35.3528 33.0074 35.2732 32.8154 35.1314 32.6739C34.9896 32.5323 34.7973 32.4528 34.5968 32.4528V30.7925C34.5982 30.4737 34.6662 30.1587 34.7963 29.8676C34.9265 29.5766 35.116 29.3158 35.3528 29.1019L40.4637 24.566C41.0228 24.0777 41.4229 23.4339 41.6129 22.717L44.8942 10.4679C44.9642 10.2121 44.9998 9.94819 45 9.68302C44.997 9.15041 44.8536 8.62798 44.5842 8.16826C44.3148 7.70853 43.9289 7.32773 43.4652 7.06415ZM38.9743 6.4C39.0671 6.0097 39.3039 5.66865 39.6374 5.44484C39.9709 5.22104 40.3766 5.13092 40.7737 5.19245C41.1126 5.2633 41.4168 5.4481 41.6356 5.71596C41.8544 5.98383 41.9745 6.31853 41.9758 6.66415V6.67925C41.3005 6.69176 40.6477 6.92413 40.1168 7.341C39.5859 7.75788 39.206 8.33644 39.0348 8.98868L36.9254 15.4868C36.606 15.3356 36.2636 15.2386 35.9123 15.2L38.9743 6.4ZM33.8407 38.4906H24.7681V33.9623H33.8407V38.4906ZM43.435 10.0755L40.1462 22.3321C40.0324 22.758 39.7958 23.1411 39.4657 23.434L34.3473 27.9698C33.9512 28.3263 33.6343 28.7617 33.4168 29.2478C33.1994 29.7339 33.0862 30.2601 33.0847 30.7925V32.4528H25.5242V25.3434C25.5279 24.4226 25.7709 23.5185 26.2295 22.7195C26.688 21.9205 27.3463 21.2539 28.1401 20.7849L34.816 16.883C34.9882 16.7829 35.1784 16.7177 35.3759 16.6912C35.5733 16.6648 35.774 16.6775 35.9665 16.7287C36.159 16.7799 36.3395 16.8685 36.4976 16.9896C36.6556 17.1106 36.7882 17.2616 36.8876 17.434C37.084 17.7827 37.1381 18.1936 37.0388 18.5811C36.9863 18.7725 36.8965 18.9517 36.7746 19.1084C36.6526 19.2651 36.5009 19.3962 36.3281 19.4943L31.996 21.9925C31.8314 22.0969 31.7136 22.2607 31.6672 22.4498C31.6208 22.6389 31.6494 22.8385 31.747 23.0071C31.8446 23.1756 32.0036 23.3 32.1909 23.3542C32.3782 23.4084 32.5792 23.3883 32.752 23.2981L37.0842 20.8C37.4304 20.6039 37.7339 20.3406 37.9767 20.0256C38.2195 19.7107 38.3968 19.3504 38.498 18.966C38.7038 18.1938 38.5951 17.3717 38.1956 16.6792L38.1502 16.6113L40.4864 9.41887C40.5792 9.02857 40.816 8.68752 41.1494 8.46371C41.4829 8.23991 41.8887 8.14979 42.2858 8.21132C42.6247 8.28217 42.9289 8.46697 43.1477 8.73483C43.3665 9.00269 43.4866 9.3374 43.4879 9.68302C43.4904 9.81577 43.4726 9.94812 43.435 10.0755ZM20.9879 32.4528V25.3434C20.9859 24.1594 20.6746 22.9964 20.0845 21.9693C19.4945 20.9421 18.6462 20.0865 17.6235 19.4868L10.94 15.5698C10.8947 15.5472 10.8417 15.5321 10.7964 15.5094L7.49244 6.00755C7.30041 5.24286 6.82372 4.57995 6.15936 4.15372C5.49501 3.72748 4.69292 3.56996 3.91633 3.71321C3.2386 3.85775 2.63071 4.22917 2.19344 4.76588C1.75616 5.30259 1.51576 5.97236 1.5121 6.66415C1.5119 6.79781 1.51947 6.93137 1.53478 7.06415C1.07114 7.32773 0.685209 7.70853 0.41579 8.16826C0.146371 8.62798 0.00296672 9.15041 0 9.68302C0.00146844 9.94762 0.0344622 10.2111 0.0982862 10.4679L3.3871 22.7094C3.57504 23.4293 3.97543 24.0762 4.53629 24.566L9.63962 29.1019C9.87878 29.3143 10.0704 29.5746 10.202 29.8659C10.3335 30.1572 10.4021 30.4729 10.4032 30.7925V32.4528C10.2027 32.4528 10.0104 32.5323 9.86862 32.6739C9.72683 32.8154 9.64718 33.0074 9.64718 33.2075V39.2453C9.64718 39.4454 9.72683 39.6374 9.86862 39.7789C10.0104 39.9205 10.2027 40 10.4032 40H20.9879C21.1884 40 21.3807 39.9205 21.5225 39.7789C21.6643 39.6374 21.744 39.4454 21.744 39.2453V33.2075C21.744 33.0074 21.6643 32.8154 21.5225 32.6739C21.3807 32.5323 21.1884 32.4528 20.9879 32.4528ZM3.02419 6.66415C3.02513 6.31958 3.14413 5.9857 3.36144 5.71798C3.57874 5.45026 3.88127 5.26481 4.21875 5.19245C4.62676 5.13333 5.04207 5.23038 5.3814 5.46414C5.72073 5.69789 5.95899 6.05106 6.04839 6.45283L9.0877 15.2C8.73636 15.2386 8.39396 15.3356 8.0746 15.4868L5.98034 9.02641C5.80991 8.36773 5.42921 7.78237 4.89585 7.35888C4.36249 6.93539 3.70547 6.69682 3.02419 6.67925V6.66415ZM10.6452 27.9698L5.53428 23.434C5.20241 23.1396 4.96559 22.7534 4.85383 22.3245L1.55746 10.0755C1.52616 9.94703 1.51093 9.8152 1.5121 9.68302C1.51303 9.33845 1.63203 9.00457 1.84934 8.73685C2.06665 8.46912 2.36917 8.28368 2.70665 8.21132C3.11179 8.15062 3.52493 8.24531 3.86297 8.47634C4.20101 8.70737 4.43887 9.05761 4.52873 9.4566L6.8498 16.6113L6.80444 16.6792C6.40494 17.3717 6.29621 18.1938 6.50202 18.966C6.60324 19.3504 6.78047 19.7107 7.02328 20.0256C7.26608 20.3406 7.56955 20.6039 7.91583 20.8L12.248 23.2981C12.4208 23.3883 12.6218 23.4084 12.8091 23.3542C12.9964 23.3 13.1554 23.1756 13.253 23.0071C13.3506 22.8385 13.3792 22.6389 13.3328 22.4498C13.2864 22.2607 13.1686 22.0969 13.004 21.9925L8.67188 19.4943C8.4991 19.3962 8.3474 19.2651 8.22545 19.1084C8.10351 18.9517 8.01371 18.7725 7.96119 18.5811C7.86186 18.1936 7.91602 17.7827 8.1124 17.434C8.21118 17.262 8.34293 17.1111 8.50012 16.99C8.65731 16.8689 8.83687 16.7798 9.02853 16.728C9.22019 16.6761 9.42021 16.6625 9.61717 16.6878C9.81412 16.7131 10.0042 16.7769 10.1764 16.8755L16.8599 20.7849C17.6537 21.2539 18.312 21.9205 18.7705 22.7195C19.2291 23.5185 19.4721 24.4226 19.4758 25.3434V32.4528H11.9153V30.7925C11.914 30.2593 11.8003 29.7324 11.5814 29.2461C11.3626 28.7598 11.0436 28.3249 10.6452 27.9698ZM20.2319 38.4906H11.1593V33.9623H20.2319V38.4906Z" fill="white"/>
</svg>
