<svg width="45" height="50" viewBox="0 0 45 50" fill="none" xmlns="http://www.w3.org/2000/svg">
<path d="M28.7252 23.3892C29.2638 23.3892 29.7004 22.9526 29.7004 22.414C29.7004 21.8754 29.2638 21.4388 28.7252 21.4388C28.1866 21.4388 27.75 21.8754 27.75 22.414C27.75 22.9526 28.1866 23.3892 28.7252 23.3892Z" fill="white"/>
<path d="M42.0746 25.4697H41.8843V23.2851C41.8843 13.5074 34.607 5.39888 25.1845 4.0877C25.3439 3.72107 25.426 3.32551 25.4258 2.92572C25.4259 1.31244 24.1133 0 22.5001 0C20.887 0 19.5744 1.31244 19.5744 2.92572C19.5744 3.33848 19.6608 3.73129 19.8157 4.0877C10.3933 5.39888 3.11599 13.5074 3.11599 23.2851V25.4697H2.92572C1.31254 25.4697 0 26.7821 0 28.3954C0 30.0087 1.31244 31.3211 2.92572 31.3211H12.6503C12.5664 31.5187 12.5029 31.7243 12.4606 31.9347L11.6228 36.1234C9.05824 37.5297 8.67215 40.2969 8.63244 41.5211L5.64774 43.4828C5.18456 43.7871 5.0704 44.4402 5.40384 44.8838L8.83283 49.445C9.14213 49.8564 9.73826 49.9547 10.1634 49.6636L16.7165 45.1761C20.3095 43.9045 21.9842 41.3938 22.9319 39.5117C23.9907 38.7873 28.8445 35.4832 32.0819 33.5627C32.8791 33.0898 33.2899 32.2151 33.1639 31.321H42.0743C43.6875 31.321 45 30.0086 45 28.3953C45 26.782 43.6878 25.4697 42.0746 25.4697ZM21.5249 2.92572C21.5249 2.38799 21.9624 1.95051 22.5001 1.95051C23.0379 1.95051 23.4754 2.38799 23.4754 2.92572C23.4754 3.46345 23.0379 3.90093 22.5001 3.90093C21.9624 3.90093 21.5249 3.46345 21.5249 2.92572ZM5.06641 23.2851C5.06641 13.6721 12.8871 5.85134 22.5001 5.85134C31.5341 5.85134 38.9844 12.7584 39.8493 21.5687H33.1301C32.5915 21.5687 32.1549 22.0053 32.1549 22.5439C32.1549 23.0825 32.5915 23.5192 33.1301 23.5192H39.9339V25.4696H5.06641V23.2851ZM31.2245 31.5447C31.2649 31.6924 31.2187 31.807 31.0869 31.8852C27.3972 34.074 21.6753 38.0083 21.6179 38.0478C21.4792 38.1432 21.3676 38.273 21.294 38.4244C20.031 41.0196 18.3854 42.5463 15.9583 43.3748C15.8746 43.4034 9.8314 47.5271 9.8314 47.5271L7.58735 44.5421L10.1482 42.8588C10.2943 42.7628 10.4119 42.6292 10.4887 42.4721C10.5655 42.3149 10.5986 42.1401 10.5846 41.9658C10.5821 41.934 10.3589 38.7817 12.8765 37.6784C13.0202 37.6154 13.1465 37.5187 13.2449 37.3965C13.3432 37.2743 13.4106 37.1301 13.4413 36.9763L14.3731 32.317C14.4885 31.7399 14.9996 31.321 15.5882 31.321C15.9558 31.321 16.2901 31.4748 16.5292 31.7539C16.7684 32.0331 16.869 32.387 16.8126 32.7502L16.8098 32.7697L16.348 36.1969C16.3239 36.3762 16.3501 36.5588 16.4239 36.7241C16.4976 36.8894 16.6159 37.031 16.7655 37.1329C16.9151 37.2348 17.0901 37.2931 17.2709 37.3012C17.4517 37.3093 17.6312 37.267 17.7894 37.1789L28.2963 31.3209H30.9311C31.0851 31.321 31.1838 31.3962 31.2245 31.5447ZM18.5267 31.321H24.291L18.5412 34.5267L18.7416 33.0392C18.83 32.4576 18.7556 31.8629 18.5267 31.321ZM42.0746 29.3706H2.92572C2.38799 29.3706 1.95051 28.9331 1.95051 28.3954C1.95051 27.8577 2.38799 27.4202 2.92572 27.4202H42.0745C42.6122 27.4202 43.0497 27.8577 43.0497 28.3954C43.0497 28.9331 42.6123 29.3706 42.0746 29.3706Z" fill="white"/>
<path d="M15.7907 9.9654C12.7504 11.3852 10.3576 14.0079 9.22555 17.1611C9.04365 17.6681 9.30702 18.2265 9.81389 18.4085C9.9228 18.4476 10.0339 18.4662 10.1433 18.4662C10.5433 18.4662 10.9183 18.2182 11.0613 17.8202C12.0188 15.1529 14.0434 12.934 16.616 11.7327C17.104 11.5047 17.3148 10.9245 17.087 10.4364C16.859 9.94827 16.2787 9.73747 15.7907 9.9654Z" fill="white"/>
</svg>
