<svg width="48" height="35" viewBox="0 0 48 35" fill="none" xmlns="http://www.w3.org/2000/svg">
<path d="M11.1986 24.8002C8.5513 24.8002 6.39844 26.953 6.39844 29.6002C6.39844 32.2474 8.5513 34.4002 11.1986 34.4002C13.8459 34.4002 15.9988 32.2474 15.9988 29.6002C15.9988 26.953 13.8458 24.8002 11.1986 24.8002ZM11.1986 32.8002C9.4337 32.8002 7.99853 31.365 7.99853 29.6002C7.99853 27.8353 9.4338 26.4002 11.1986 26.4002C12.9634 26.4002 14.3987 27.8354 14.3987 29.6002C14.3987 31.365 12.9634 32.8002 11.1986 32.8002ZM38.3996 24.8002C35.7522 24.8002 33.5994 26.953 33.5994 29.6002C33.5994 32.2474 35.7522 34.4002 38.3996 34.4002C41.0469 34.4002 43.1997 32.2474 43.1997 29.6002C43.1997 26.953 41.0469 24.8002 38.3996 24.8002ZM38.3996 32.8002C36.6346 32.8002 35.1995 31.365 35.1995 29.6002C35.1995 27.8353 36.6347 26.4002 38.3996 26.4002C40.1645 26.4002 41.5996 27.8354 41.5996 29.6002C41.5996 31.365 40.1645 32.8002 38.3996 32.8002Z" fill="white"/>
<path d="M47.8718 20.3674L40.6716 9.16727C40.5991 9.05464 40.4995 8.962 40.382 8.89785C40.2644 8.83369 40.1326 8.80006 39.9987 8.80005H31.1984C31.0934 8.80001 30.9893 8.82068 30.8922 8.86087C30.7952 8.90106 30.707 8.95998 30.6327 9.03427C30.5584 9.10857 30.4995 9.19677 30.4593 9.29384C30.4191 9.39092 30.3984 9.49496 30.3984 9.60002V29.6001C30.3983 29.7052 30.419 29.8092 30.4591 29.9063C30.4993 30.0034 30.5582 30.0917 30.6325 30.166C30.7068 30.2403 30.7951 30.2992 30.8922 30.3394C30.9893 30.3795 31.0933 30.4002 31.1984 30.4001H34.3985V28.8H31.9984V10.4001H39.5619L46.3989 21.0353V28.8002H42.3988V30.4001H47.1989C47.304 30.4002 47.4081 30.3796 47.5052 30.3395C47.6023 30.2993 47.6905 30.2404 47.7648 30.1661C47.8392 30.0918 47.8981 30.0035 47.9382 29.9064C47.9784 29.8093 47.999 29.7053 47.9989 29.6002V20.8001C47.9991 20.6466 47.9549 20.4964 47.8718 20.3674Z" fill="white"/>
<path d="M35.2013 19.2001V13.6001H41.6016V12.0001H34.4013C34.2962 12 34.1922 12.0207 34.0951 12.0609C33.998 12.1011 33.9098 12.16 33.8355 12.2343C33.7612 12.3086 33.7023 12.3968 33.6621 12.4939C33.6219 12.591 33.6013 12.695 33.6013 12.8001V20.0001C33.6012 20.1052 33.6218 20.2092 33.662 20.3063C33.7022 20.4034 33.7611 20.4917 33.8354 20.566C33.9097 20.6403 33.9979 20.6992 34.095 20.7394C34.1921 20.7795 34.2962 20.8002 34.4013 20.8001H46.4017V19.2H35.2013V19.2001ZM31.2011 3.2001H0.799997C0.587848 3.20018 0.384409 3.28449 0.234396 3.43449C0.0843837 3.5845 7.45969e-05 3.78793 4.94815e-08 4.00008V29.6002C-3.69093e-05 29.7053 0.0206304 29.8093 0.060821 29.9064C0.101011 30.0035 0.159937 30.0917 0.234231 30.166C0.308525 30.2403 0.396731 30.2992 0.493808 30.3394C0.590885 30.3796 0.69493 30.4002 0.799997 30.4002H7.20026V28.8002H1.60009V4.80005H30.4011V28.8002H15.2005V30.4002H31.2011C31.3062 30.4003 31.4103 30.3797 31.5074 30.3395C31.6045 30.2993 31.6927 30.2404 31.767 30.1661C31.8413 30.0918 31.9002 30.0036 31.9404 29.9065C31.9806 29.8094 32.0012 29.7053 32.0011 29.6002V4.00008C32.0012 3.89501 31.9805 3.79097 31.9403 3.6939C31.9001 3.59682 31.8412 3.50862 31.7669 3.43433C31.6926 3.36004 31.6044 3.30111 31.5073 3.26092C31.4102 3.22073 31.3062 3.20007 31.2011 3.2001Z" fill="white"/>
<path d="M0.799997 25.6002H5.60017V27.2002H0.799997V25.6002ZM16.8006 25.6002H30.4011V27.2002H16.8006V25.6002ZM44.0015 25.6002H47.2016V27.2002H44.0015V25.6002ZM3.20008 6.40006H31.2011V8.0001H3.20008V6.40006ZM10.4003 28.8001H12.0004V30.4002H10.4003V28.8001ZM37.6014 28.8001H39.2015V30.4002H37.6014V28.8001ZM3.20008 0H14.4005V1.60004H3.20008V0ZM0 0H1.60009V1.60004H0V0Z" fill="white"/>
</svg>
