<svg width="45" height="45" viewBox="0 0 45 45" fill="none" xmlns="http://www.w3.org/2000/svg">
<path d="M41.873 20.321L45 18.6659L42.8878 12.2378L39.3825 12.7162L36.9772 9.44273L38.5379 6.25512L33.0195 2.28782L30.4399 4.7363L26.5395 3.48241L25.9079 0H19.0921L18.4604 3.48241L14.56 4.7363L11.9806 2.28791L6.46206 6.25531L8.02276 9.44273L5.61747 12.7163L2.11207 12.2379L0 18.666L3.127 20.321V24.3611L0 26.0162L2.11216 32.4442L5.61747 31.9658L8.02286 35.2393L6.46206 38.4269L11.9806 42.3942L14.56 39.9457L18.4605 41.1996L19.0921 44.682H25.9078L26.5395 41.1996L30.4399 39.9457L33.0193 42.3941L38.5378 38.4267L36.9771 35.2393L39.3825 31.9657L42.8878 32.4441L45 26.016L41.8729 24.3611L41.873 20.321ZM41.8602 30.8007L38.7066 30.3703L35.2429 35.0843L36.6471 37.952L33.1508 40.4653L30.8249 38.2577L25.2334 40.0551L24.6643 43.1927H20.3358L19.7667 40.0551L14.1753 38.2577L11.8493 40.4654L8.35295 37.952L9.75718 35.0843L6.29338 30.3702L3.13994 30.8008L1.8073 26.7449L4.6165 25.258V19.4241L1.8073 17.9373L3.13985 13.8814L6.29357 14.3118L9.75718 9.59781L8.35304 6.73024L11.8493 4.21687L14.1752 6.42454L19.7667 4.62711L20.3358 1.4894H24.6643L25.2334 4.62702L30.8248 6.42445L33.1509 4.21669L36.6471 6.73006L35.2429 9.59781L38.7066 14.3119L41.8602 13.8813L43.1928 17.9372L40.3836 19.4241V25.258L43.1928 26.7448L41.8602 30.8007Z" fill="white"/>
<path d="M22.4981 6.70227C13.8748 6.70227 6.85938 13.7177 6.85938 22.341C6.85938 30.9643 13.8748 37.9797 22.4981 37.9797C31.1214 37.9797 38.1368 30.9643 38.1368 22.341C38.1368 13.7177 31.1214 6.70227 22.4981 6.70227ZM22.4981 36.4903C14.6962 36.4903 8.34878 30.143 8.34878 22.341C8.34878 14.539 14.6962 8.19167 22.4981 8.19167C30.3001 8.19167 36.6474 14.539 36.6474 22.341C36.6474 30.143 30.3001 36.4903 22.4981 36.4903Z" fill="white"/>
<path d="M31.0742 15.3091L23.6271 10.9651C23.2854 10.7661 22.8969 10.6612 22.5014 10.6612C22.1059 10.6612 21.7175 10.7661 21.3757 10.9651L13.9287 15.3091C13.592 15.5064 13.3126 15.7883 13.1182 16.1267C12.9238 16.4652 12.8211 16.8485 12.8203 17.2388V27.4433C12.8211 27.8336 12.9238 28.2169 13.1182 28.5554C13.3126 28.8938 13.592 29.1756 13.9287 29.373L21.3757 33.717C21.7175 33.916 22.1059 34.0208 22.5014 34.0208C22.8969 34.0208 23.2854 33.916 23.6271 33.717L31.0742 29.373C31.4109 29.1756 31.6903 28.8938 31.8847 28.5554C32.0791 28.2169 32.1818 27.8336 32.1826 27.4433V17.2388C32.1818 16.8485 32.0791 16.4652 31.8847 16.1267C31.6903 15.7883 31.4109 15.5064 31.0742 15.3091ZM22.1262 12.2515C22.2401 12.1852 22.3696 12.1503 22.5014 12.1503C22.6333 12.1503 22.7627 12.1852 22.8767 12.2515L29.9599 16.3834L22.8767 20.5153C22.7628 20.5817 22.6333 20.6166 22.5014 20.6166C22.3696 20.6166 22.2401 20.5817 22.1262 20.5153L20.8781 19.7873L24.4314 17.6553L20.2119 15.1735L16.6413 17.3158L15.043 16.3834L22.1262 12.2515ZM17.2369 19.3875L18.7274 20.2569L18.7266 22.447L17.2369 21.5711V19.3875ZM18.1091 18.172L20.2194 16.9057L21.5154 17.668L19.4103 18.931L18.1091 18.172ZM14.6793 28.0864C14.567 28.0206 14.4739 27.9267 14.409 27.8139C14.3442 27.7011 14.31 27.5733 14.3097 27.4432V17.6799L15.7475 18.5187V22.4233L20.2152 25.0496L20.2165 21.1256L21.3757 21.8018C21.4969 21.8722 21.6245 21.931 21.7567 21.9774V32.215L14.6793 28.0864ZM30.3237 28.0864L23.2461 32.2148V21.9774C23.3784 21.931 23.506 21.8722 23.6271 21.8018L30.6932 17.6799V27.4433C30.6929 27.5734 30.6587 27.7011 30.5939 27.814C30.5291 27.9268 30.4359 28.0207 30.3237 28.0865V28.0864Z" fill="white"/>
</svg>
