<svg width="46" height="43" viewBox="0 0 46 43" fill="none" xmlns="http://www.w3.org/2000/svg">
<path d="M25.0694 24.365V20.2698C25.0694 19.9058 25.3645 19.6107 25.7286 19.6107C26.0926 19.6107 26.3878 19.9058 26.3878 20.2698V24.365C26.3878 24.7075 26.547 25.0889 26.9487 25.496C27.3532 25.9058 27.9712 26.3052 28.787 26.6548C30.4161 27.3529 32.7126 27.8009 35.2839 27.8009C37.8552 27.8009 40.1518 27.353 41.7809 26.6548C42.5966 26.3051 43.2147 25.9058 43.6192 25.496C44.0209 25.0889 44.1801 24.7075 44.1801 24.365V20.2698C44.1801 19.9058 44.4752 19.6107 44.8393 19.6107C45.2033 19.6107 45.4984 19.9058 45.4984 20.2698V24.365C45.4984 25.1533 45.1228 25.8492 44.5575 26.422C43.995 26.992 43.2137 27.475 42.3002 27.8665C40.471 28.6505 37.9899 29.1193 35.2839 29.1193C32.5779 29.1193 30.0968 28.6505 28.2676 27.8665C27.3542 27.475 26.5729 26.992 26.0104 26.422C25.445 25.8492 25.0694 25.1533 25.0694 24.365ZM12.7548 6.65179C13.0455 6.43277 13.4588 6.49097 13.6779 6.78173C13.8969 7.07251 13.8388 7.48579 13.548 7.70484C10.6874 9.85984 8.58688 12.968 7.71791 16.555C7.6322 16.9088 7.27591 17.1261 6.9221 17.0404C6.56829 16.9547 6.35095 16.5984 6.43664 16.2446C7.37927 12.3535 9.65666 8.98568 12.7548 6.65179ZM27.7529 8.2272C28.9841 8.71415 30.134 9.38734 31.1622 10.224H31.1621C31.6067 10.5854 31.6767 11.1976 31.4024 11.6459L35.0885 12.6573L34.8802 8.8856C34.4835 9.08101 33.9938 9.02406 33.6521 8.70871L33.5646 8.62863C31.9103 7.125 29.9345 5.97072 27.7529 5.27936V8.2272ZM30.6515 11.4399L30.6523 11.4401L30.6514 11.4398L30.6515 11.4399ZM19.5626 10.0553H26.4345V4.25335L26.4334 4.23164C26.4291 4.18851 26.4122 4.14757 26.3848 4.11405L26.3702 4.098L24.1549 1.88272C24.1137 1.84153 24.0578 1.81835 23.9995 1.81835H19.5626V10.0553ZM34.2572 7.72887L34.2574 7.72878L34.2579 7.72827C34.2576 7.72846 34.2574 7.72868 34.2572 7.72887ZM24.3635 5.96017L24.3975 5.96103C24.7458 5.9787 25.0227 6.26668 25.0227 6.61934C25.0227 6.97201 24.7458 7.25999 24.3975 7.27766L24.3635 7.27852H21.6335C21.2695 7.27852 20.9744 6.9834 20.9744 6.61934C20.9744 6.25529 21.2695 5.96017 21.6335 5.96017H24.3635ZM22.9986 3.23017C23.3626 3.23019 23.6578 3.5253 23.6578 3.88935C23.6577 4.25337 23.3626 4.5485 22.9986 4.54852H21.6335C21.2695 4.54852 20.9744 4.25338 20.9744 3.88935C20.9744 3.52529 21.2695 3.23017 21.6335 3.23017H22.9986ZM27.7529 10.275C27.7529 10.4193 27.7245 10.5622 27.6693 10.6955C27.6141 10.8288 27.5331 10.9499 27.4311 11.0519C27.3291 11.1539 27.2079 11.2348 27.0747 11.29C26.9414 11.3453 26.7985 11.3736 26.6543 11.3736H19.3428C19.0515 11.3736 18.772 11.2579 18.566 11.0519C18.36 10.8458 18.2442 10.5664 18.2442 10.275V9.65747C15.3704 10.9467 13.1153 13.3696 12.0477 16.3562C11.9252 16.699 11.5479 16.8775 11.2051 16.755C10.8623 16.6325 10.6837 16.2552 10.8063 15.9124C12.0612 12.4018 14.7873 9.59242 18.2442 8.22703V5.28014C17.508 5.51339 16.7898 5.80102 16.0955 6.14093L16.0646 6.15509C15.7441 6.29237 15.3687 6.15554 15.2136 5.8388C15.0535 5.51184 15.1888 5.11699 15.5158 4.9569L15.7059 4.86532C16.5249 4.47688 17.3738 4.15505 18.2442 3.90265V1.59863C18.2442 1.30726 18.36 1.02781 18.566 0.821777L18.5856 0.802723C18.7895 0.608632 19.0606 0.500008 19.3428 0.5H23.9995C24.4075 0.500001 24.7987 0.662131 25.0871 0.950522L27.3024 3.1658L27.3291 3.19309C27.5157 3.38918 27.6457 3.62959 27.7089 3.88892C30.2297 4.61263 32.51 5.90167 34.404 7.61034L34.7214 7.35439L34.722 7.35388L34.7482 7.33354C35.3034 6.91817 36.1124 7.28301 36.1511 7.99014H36.1512L36.4386 13.1941L36.4386 13.1958C36.4698 13.7887 35.9128 14.2512 35.3283 14.0901V14.0903L30.3028 12.7112V12.7113C29.6141 12.5225 29.4238 11.6328 29.982 11.1812L30.1134 11.0746C29.3849 10.5101 28.5924 10.0346 27.7529 9.65773V10.275Z" fill="white"/>
<path d="M44.181 20.2698C44.181 19.9273 44.0218 19.5458 43.6201 19.1388C43.2156 18.7289 42.5975 18.3296 41.7818 17.98C40.1527 17.2818 37.8561 16.8338 35.2848 16.8338C32.7135 16.8338 30.417 17.2818 28.7879 17.98C27.9721 18.3296 27.3541 18.7289 26.9496 19.1388C26.5479 19.5458 26.3887 19.9273 26.3887 20.2698C26.3887 20.6123 26.5479 20.9937 26.9496 21.4008C27.3541 21.8106 27.9721 22.21 28.7879 22.5596C30.417 23.2578 32.7135 23.7058 35.2848 23.7058C37.8561 23.7058 40.1527 23.2578 41.7818 22.5596C42.5975 22.21 43.2156 21.8106 43.6201 21.4008C44.0218 20.9937 44.181 20.6123 44.181 20.2698ZM45.4993 20.2698C45.4993 21.0581 45.1237 21.754 44.5584 22.3269C43.9959 22.8968 43.2146 23.3799 42.3011 23.7714C40.4719 24.5553 37.9908 25.0242 35.2848 25.0242C32.5788 25.0242 30.0977 24.5553 28.2685 23.7714C27.3551 23.3799 26.5737 22.8969 26.0112 22.3269C25.4459 21.754 25.0703 21.0581 25.0703 20.2698C25.0703 19.4815 25.4459 18.7856 26.0112 18.2128C26.5737 17.6428 27.3551 17.1597 28.2685 16.7682C30.0977 15.9843 32.5788 15.5155 35.2848 15.5155C37.9908 15.5155 40.4719 15.9843 42.3011 16.7682C43.2146 17.1597 43.9959 17.6428 44.5584 18.2128C45.1237 18.7856 45.4993 19.4815 45.4993 20.2698Z" fill="white"/>
<path d="M25.0703 31.1901V27.095C25.0703 26.7309 25.3654 26.4358 25.7295 26.4358C26.0935 26.4358 26.3887 26.7309 26.3887 27.095V31.1901L26.3891 31.2224C26.3988 31.5565 26.5604 31.9268 26.9496 32.3211C27.3541 32.731 27.9721 33.1304 28.7879 33.48C30.417 34.1782 32.7135 34.6262 35.2848 34.6262C37.8561 34.6262 40.1527 34.1782 41.7818 33.48C42.5975 33.1304 43.2156 32.731 43.6201 32.3211C44.0218 31.9141 44.181 31.5326 44.181 31.1901V27.095C44.181 26.7309 44.4761 26.4358 44.8402 26.4358C45.2042 26.4358 45.4993 26.731 45.4993 27.095V31.1901C45.4993 31.9785 45.1237 32.6744 44.5584 33.2472C43.9959 33.8172 43.2146 34.3003 42.3011 34.6917C40.4719 35.4757 37.9908 35.9445 35.2848 35.9445C32.5788 35.9445 30.0977 35.4757 28.2685 34.6917C27.3551 34.3003 26.5737 33.8172 26.0112 33.2472C25.4635 32.6923 25.094 32.0218 25.0714 31.2638L25.0703 31.1901Z" fill="white"/>
<path d="M25.0703 33.9202C25.0703 33.2708 25.3263 32.6805 25.7346 32.1728L25.7565 32.1468C25.9885 31.8865 26.3865 31.851 26.6613 32.072C26.9451 32.3001 26.9901 32.7151 26.762 32.9988L26.7143 33.0602C26.4845 33.3659 26.3887 33.6529 26.3887 33.9202C26.3887 34.2627 26.5478 34.6441 26.9496 35.0512C27.3541 35.461 27.9721 35.8604 28.7879 36.21C30.417 36.9082 32.7135 37.3561 35.2848 37.3561C37.8561 37.3561 40.1527 36.9082 41.7818 36.21C42.5975 35.8604 43.2156 35.461 43.6201 35.0512C44.0218 34.6441 44.181 34.2627 44.181 33.9202C44.181 33.636 44.0726 33.3296 43.8103 33.0021L44.8392 32.1779C45.245 32.6845 45.4993 33.273 45.4993 33.9202C45.4993 34.7085 45.1237 35.4044 44.5584 35.9773C43.9959 36.5472 43.2145 37.0303 42.3011 37.4218C40.4719 38.2057 37.9908 38.6745 35.2848 38.6745C32.5788 38.6745 30.0977 38.2057 28.2685 37.4218C27.3551 37.0303 26.5737 36.5473 26.0112 35.9773C25.4459 35.4044 25.0703 34.7085 25.0703 33.9202ZM43.9126 32.0756C44.1967 31.848 44.6116 31.8938 44.8392 32.1779L43.8103 33.0021C43.5827 32.718 43.6285 32.3032 43.9126 32.0756ZM44.181 27.095C44.181 26.8286 44.0857 26.5427 43.8577 26.2381L43.8103 26.177L43.7897 26.15C43.5857 25.8671 43.6374 25.4709 43.9126 25.2504C44.1878 25.0299 44.5858 25.066 44.8173 25.3268L44.8392 25.3528L44.8768 25.4005C45.2606 25.8962 45.4993 26.4681 45.4993 27.095C45.4993 27.8833 45.1237 28.5792 44.5584 29.1521C43.9959 29.722 43.2146 30.2051 42.3011 30.5966C40.4719 31.3805 37.9908 31.8494 35.2848 31.8494C33.9588 31.8493 32.6907 31.7368 31.5288 31.5314L31.4167 31.5113L31.3835 31.5043C31.044 31.4243 30.8235 31.0911 30.8869 30.7442C30.9504 30.3973 31.2747 30.1638 31.6204 30.2091L31.654 30.2145L31.8635 30.2515C32.9178 30.4313 34.0725 30.531 35.2848 30.531C37.8561 30.531 40.1527 30.083 41.7818 29.3848C42.5975 29.0352 43.2156 28.6358 43.6201 28.2259C44.0218 27.8189 44.181 27.4375 44.181 27.095ZM25.0703 27.095C25.0703 26.4456 25.3263 25.8553 25.7346 25.3475L25.7565 25.3216C25.9885 25.0613 26.3865 25.0258 26.6613 25.2468C26.9451 25.4749 26.9901 25.8898 26.762 26.1736L26.7143 26.2349C26.4845 26.5407 26.3887 26.8277 26.3887 27.095C26.3887 27.4388 26.5492 27.8221 26.9546 28.231C27.35 28.6298 27.9473 29.0184 28.7317 29.3606L28.8082 29.3936L28.8391 29.4077C29.1526 29.5604 29.2946 29.9338 29.1564 30.2583C29.0182 30.5828 28.6506 30.7392 28.3232 30.619L28.2917 30.6065L28.2059 30.5695C27.3229 30.1845 26.5673 29.7129 26.0184 29.1593C25.4491 28.585 25.0703 27.8866 25.0703 27.095Z" fill="white"/>
<path d="M25.0708 38.0153V33.9202C25.0708 33.5562 25.3659 33.261 25.7299 33.261C26.094 33.2611 26.3891 33.5562 26.3891 33.9202V38.0153C26.3891 38.3578 26.5482 38.7393 26.9499 39.1463C27.3544 39.5562 27.9725 39.9555 28.7882 40.3051C30.4174 41.0033 32.7139 41.4513 35.2852 41.4513C37.8565 41.4513 40.153 41.0033 41.7821 40.3051C42.5979 39.9555 43.2159 39.5562 43.6204 39.1463C44.0222 38.7393 44.1813 38.3578 44.1813 38.0153V33.9202C44.1813 33.5562 44.4765 33.261 44.8405 33.261C45.2046 33.261 45.4997 33.5562 45.4997 33.9202V38.0153C45.4997 38.8036 45.1241 39.4995 44.5588 40.0723C43.9963 40.6423 43.2149 41.1254 42.3015 41.5169C40.4723 42.3008 37.9912 42.7696 35.2852 42.7696C32.5792 42.7696 30.0981 42.3008 28.2689 41.5169C27.3555 41.1254 26.5741 40.6423 26.0116 40.0723C25.4463 39.4995 25.0708 38.8037 25.0708 38.0153ZM0.5 24.3648V20.2697C0.5 19.9057 0.795123 19.6105 1.15918 19.6105C1.52323 19.6105 1.81835 19.9057 1.81835 20.2697V24.3648C1.81835 24.7074 1.97753 25.0888 2.37925 25.4959C2.78377 25.9058 3.40183 26.3052 4.21756 26.6548C5.84668 27.353 8.14322 27.801 10.7145 27.801C13.2857 27.801 15.5823 27.353 17.2115 26.6548C18.0272 26.3052 18.6453 25.9058 19.0498 25.4959C19.4515 25.0889 19.6107 24.7074 19.6107 24.3649V20.2698C19.6107 19.9057 19.9058 19.6106 20.2698 19.6106C20.6339 19.6106 20.929 19.9058 20.929 20.2698V24.3649C20.929 25.1532 20.5534 25.8492 19.9881 26.422C19.4255 26.992 18.6442 27.4751 17.7308 27.8665C15.9016 28.6505 13.4205 29.1193 10.7145 29.1193C8.00849 29.1193 5.52741 28.6505 3.6982 27.8665C2.78476 27.4751 2.0034 26.9919 1.44087 26.4219C0.875553 25.8491 0.5 25.1532 0.5 24.3648Z" fill="white"/>
<path d="M19.6107 20.2698C19.6107 19.9273 19.4515 19.5458 19.0498 19.1388C18.6453 18.7289 18.0272 18.3296 17.2115 17.98C15.5823 17.2818 13.2857 16.8338 10.7145 16.8338C8.14322 16.8338 5.84668 17.2818 4.21756 17.98C3.40183 18.3296 2.78377 18.7289 2.37925 19.1388C1.97754 19.5458 1.81836 19.9273 1.81835 20.2698C1.81835 20.6123 1.97754 20.9937 2.37925 21.4008C2.78377 21.8106 3.40182 22.21 4.21756 22.5596C5.84668 23.2578 8.14323 23.7058 10.7145 23.7058C13.2857 23.7058 15.5823 23.2578 17.2115 22.5596C18.0272 22.21 18.6453 21.8106 19.0498 21.4008C19.4515 20.9937 19.6107 20.6123 19.6107 20.2698ZM20.929 20.2698C20.929 21.0581 20.5534 21.754 19.9881 22.3269C19.4255 22.8968 18.6442 23.3799 17.7308 23.7714C15.9016 24.5553 13.4205 25.0242 10.7145 25.0242C8.00849 25.0242 5.52741 24.5553 3.6982 23.7714C2.78477 23.3799 2.0034 22.8969 1.44087 22.3269C0.875544 21.754 0.5 21.0581 0.5 20.2698C0.500007 19.4815 0.875561 18.7856 1.44087 18.2128C2.0034 17.6428 2.78477 17.1597 3.6982 16.7682C5.52741 15.9843 8.00849 15.5155 10.7145 15.5155C13.4205 15.5155 15.9016 15.9843 17.7308 16.7682C18.6442 17.1597 19.4255 17.6428 19.9881 18.2128C20.5534 18.7856 20.929 19.4815 20.929 20.2698Z" fill="white"/>
<path d="M0.5 31.1901V27.095C0.5 26.7309 0.795123 26.4358 1.15918 26.4358C1.52323 26.4358 1.81835 26.7309 1.81835 27.095V31.1901L1.81878 31.2224C1.8285 31.5565 1.9901 31.9268 2.37925 32.3211C2.78377 32.731 3.40182 33.1304 4.21756 33.48C5.84668 34.1782 8.14322 34.6262 10.7145 34.6262C13.2857 34.6262 15.5823 34.1782 17.2115 33.48C18.0272 33.1304 18.6453 32.731 19.0498 32.3211C19.4515 31.9141 19.6107 31.5326 19.6107 31.1901V27.095C19.6107 26.7309 19.9058 26.4358 20.2698 26.4358C20.6339 26.4358 20.929 26.731 20.929 27.095V31.1901C20.929 31.9785 20.5534 32.6744 19.9881 33.2472C19.4255 33.8172 18.6442 34.3003 17.7308 34.6917C15.9016 35.4757 13.4205 35.9445 10.7145 35.9445C8.00849 35.9445 5.52741 35.4757 3.6982 34.6917C2.78477 34.3003 2.0034 33.8172 1.44087 33.2472C0.893207 32.6923 0.523676 32.0218 0.501116 31.2638L0.5 31.1901Z" fill="white"/>
<path d="M19.6105 33.9202C19.6105 33.636 19.5022 33.3296 19.2399 33.0021L20.2688 32.1779C20.6746 32.6845 20.9288 33.273 20.9289 33.9202C20.9289 34.7085 20.5533 35.4044 19.988 35.9773C19.4255 36.5472 18.6442 37.0303 17.7307 37.4218C15.9015 38.2057 13.4204 38.6745 10.7144 38.6745C9.38845 38.6745 8.12027 38.562 6.95837 38.3566L6.84628 38.3365L6.81306 38.3295C6.47364 38.2495 6.25307 37.9163 6.31653 37.5694C6.38002 37.2225 6.70427 36.989 7.05004 37.0343L7.0836 37.0396L7.29311 37.0767C8.34741 37.2565 9.50209 37.3561 10.7144 37.3561C13.2857 37.3561 15.5823 36.9082 17.2114 36.21C18.0271 35.8604 18.6452 35.461 19.0497 35.0512C19.4514 34.6441 19.6105 34.2627 19.6105 33.9202ZM0.5 33.9202C0.500004 33.2708 0.756028 32.6805 1.16424 32.1728L1.18621 32.1468C1.4182 31.8865 1.81618 31.851 2.09103 32.072C2.37476 32.3001 2.41981 32.7151 2.19171 32.9988L2.14399 33.0602C1.91422 33.3659 1.81835 33.6529 1.81835 33.9202C1.81835 34.264 1.97889 34.6473 2.38431 35.0562C2.79247 35.4679 3.41577 35.8687 4.2379 36.2188C4.57284 36.3614 4.72876 36.7486 4.58611 37.0835C4.44346 37.4185 4.05631 37.5743 3.72138 37.4317C2.80155 37.0399 2.01467 36.5559 1.44808 35.9844C0.878763 35.4102 0.5 34.7118 0.5 33.9202ZM19.3422 32.0756C19.6263 31.848 20.0412 31.8938 20.2688 32.1779L19.2399 33.0021C19.0123 32.718 19.0581 32.3032 19.3422 32.0756ZM0.5 27.095C0.500009 26.4456 0.756026 25.8553 1.16424 25.3475L1.18621 25.3216C1.4182 25.0613 1.81618 25.0258 2.09103 25.2468C2.37476 25.4749 2.41982 25.8898 2.19171 26.1736L2.14399 26.2349C1.91422 26.5407 1.81836 26.8277 1.81835 27.095C1.81835 27.4375 1.97754 27.8189 2.37925 28.2259C2.78377 28.6358 3.40182 29.0352 4.21756 29.3848C5.84668 30.083 8.14322 30.531 10.7145 30.531C13.2857 30.531 15.5823 30.083 17.2115 29.3848C18.0272 29.0352 18.6453 28.6358 19.0498 28.2259C19.4515 27.8189 19.6107 27.4375 19.6107 27.095C19.6107 26.8286 19.5154 26.5427 19.2874 26.2381L19.24 26.177L19.2195 26.15C19.0155 25.8671 19.067 25.4709 19.3423 25.2504C19.6175 25.0299 20.0155 25.066 20.247 25.3268L20.2689 25.3528L20.3065 25.4005C20.6903 25.8962 20.929 26.4681 20.929 27.095C20.929 27.8833 20.5534 28.5792 19.9881 29.1521C19.4255 29.722 18.6442 30.2051 17.7308 30.5966C15.9016 31.3805 13.4205 31.8494 10.7145 31.8494C8.00849 31.8493 5.52741 31.3805 3.6982 30.5966C2.78477 30.2051 2.0034 29.722 1.44087 29.1521C0.875547 28.5792 0.5 27.8833 0.5 27.095Z" fill="white"/>
<path d="M0.5 38.0153V33.9202C0.5 33.5561 0.795123 33.261 1.15918 33.261C1.52323 33.261 1.81835 33.5561 1.81835 33.9202V38.0153L1.81878 38.0476C1.8285 38.3817 1.9901 38.752 2.37925 39.1463C2.78377 39.5562 3.40182 39.9556 4.21756 40.3052C5.84668 41.0034 8.14322 41.4514 10.7145 41.4514C13.2857 41.4514 15.5823 41.0034 17.2115 40.3052C18.0272 39.9556 18.6453 39.5562 19.0498 39.1463C19.4515 38.7393 19.6107 38.3578 19.6107 38.0153V33.9202C19.6107 33.5561 19.9058 33.261 20.2698 33.261C20.6339 33.261 20.929 33.5562 20.929 33.9202V38.0153C20.929 38.8036 20.5534 39.4996 19.9881 40.0724C19.4255 40.6424 18.6442 41.1255 17.7308 41.5169C15.9016 42.3009 13.4205 42.7697 10.7145 42.7697C8.00849 42.7697 5.52741 42.3009 3.6982 41.5169C2.78477 41.1255 2.0034 40.6424 1.44087 40.0724C0.893207 39.5175 0.523676 38.847 0.501116 38.089L0.5 38.0153Z" fill="white"/>
</svg>
