<svg width="48" height="40" viewBox="0 0 48 40" fill="none" xmlns="http://www.w3.org/2000/svg">
<path d="M46.756 15.6799L44.5678 15.2485L43.0121 11.4934L44.2545 9.64076C44.6704 9.02086 44.5921 8.21924 44.0642 7.69133L40.738 4.36524C40.2103 3.83752 39.4087 3.75914 38.7887 4.17486L36.9359 5.41724L33.1808 3.86152L32.7493 1.67324C32.605 0.940952 31.9829 0.429428 31.2364 0.429428H26.5324C25.7859 0.429428 25.1637 0.940952 25.0194 1.67324L24.5879 3.86152L20.8329 5.41724L18.9801 4.17476C18.3602 3.75924 17.5587 3.83743 17.0308 4.36524L13.7046 7.69133C13.1768 8.21914 13.0985 9.02067 13.5142 9.64076L13.5627 9.71295H8.77057V5.31752C9.93819 5.0199 10.8044 3.95952 10.8044 2.70048C10.8044 1.21143 9.59295 0 8.10391 0C6.61486 0 5.40343 1.21143 5.40343 2.70048C5.40343 3.95952 6.26962 5.0199 7.43724 5.31752V10.3796C7.43724 10.5564 7.50748 10.726 7.6325 10.851C7.75752 10.976 7.92709 11.0463 8.10391 11.0463H21.7911C21.939 11.0463 22.0827 10.9971 22.1995 10.9066C24.1279 9.412 26.4395 8.622 28.8844 8.622C34.9073 8.622 39.8073 13.522 39.8073 19.545C39.8073 25.5679 34.9073 30.4679 28.8844 30.4679C26.4394 30.4679 24.1279 29.6779 22.1995 28.1833C22.0827 28.0927 21.939 28.0435 21.7911 28.0435H8.104C7.92719 28.0435 7.75762 28.1138 7.6326 28.2388C7.50757 28.3638 7.43733 28.5334 7.43733 28.7102V33.7724C6.26971 34.07 5.40352 35.1305 5.40352 36.3894C5.40352 37.8785 6.61495 39.0898 8.104 39.0898C9.59305 39.0898 10.8045 37.8784 10.8045 36.3894C10.8045 35.1304 9.93829 34.07 8.77067 33.7724V29.3769H13.5628L13.5143 29.4491C13.0986 30.069 13.177 30.8707 13.7048 31.3986L17.031 34.7249C17.5589 35.2527 18.3606 35.3309 18.9802 34.915L20.833 33.6727L24.588 35.2284L25.0195 37.4166C25.1639 38.149 25.786 38.6606 26.5325 38.6606H31.2365C31.983 38.6606 32.6051 38.149 32.7494 37.4167L33.1809 35.2283L36.9359 33.6726L38.7886 34.915C39.4084 35.3306 40.2101 35.2526 40.738 34.7248L44.0642 31.3986C44.592 30.8707 44.6702 30.069 44.2545 29.4492L43.0121 27.5965L44.5678 23.8413L46.7561 23.41C47.4884 23.2656 48 22.6434 48 21.8969V17.193C48 16.4465 47.4885 15.8244 46.7561 15.68L46.756 15.6799ZM6.73686 2.70038C6.73686 1.94648 7.3501 1.33324 8.104 1.33324C8.85791 1.33324 9.47114 1.94648 9.47114 2.70038C9.47114 3.45429 8.85791 4.06752 8.104 4.06752C7.3501 4.06752 6.73686 3.45419 6.73686 2.70038ZM9.47114 36.3893C9.47114 37.1431 8.85791 37.7564 8.104 37.7564C7.3501 37.7564 6.73686 37.1431 6.73686 36.3893C6.73686 35.6355 7.3501 35.0222 8.104 35.0222C8.85791 35.0222 9.47114 35.6354 9.47114 36.3893ZM46.6666 21.8968C46.6666 22.0011 46.6005 22.0815 46.4981 22.1017L43.9596 22.6021C43.8519 22.6234 43.7511 22.6709 43.6661 22.7405C43.5812 22.81 43.5147 22.8995 43.4727 23.001L41.6436 27.4159C41.6016 27.5174 41.5853 27.6276 41.5961 27.7369C41.607 27.8462 41.6447 27.9511 41.7058 28.0423L43.1471 30.1916C43.2052 30.2782 43.195 30.3818 43.1213 30.4555L39.7952 33.7816C39.7215 33.8553 39.6179 33.8655 39.5312 33.8074L37.3819 32.3661C37.2907 32.3049 37.1858 32.2672 37.0765 32.2563C36.9672 32.2455 36.8569 32.2618 36.7554 32.3039L32.3407 34.1329C32.2392 34.1749 32.1497 34.2413 32.0801 34.3262C32.0106 34.4112 31.963 34.512 31.9418 34.6197L31.4413 37.1584C31.4211 37.2607 31.3408 37.3269 31.2365 37.3269H26.5325C26.4282 37.3269 26.3478 37.2608 26.3276 37.1583L25.827 34.6198C25.8058 34.5121 25.7583 34.4113 25.6887 34.3264C25.6191 34.2414 25.5296 34.175 25.4282 34.133L21.0134 32.3039C20.912 32.2618 20.8017 32.2455 20.6924 32.2564C20.5831 32.2673 20.4782 32.305 20.387 32.3662L18.2375 33.8075C18.1509 33.8656 18.0473 33.8555 17.9736 33.7818L14.6475 30.4556C14.5737 30.3818 14.5635 30.2782 14.6216 30.1915L15.1681 29.3767H21.5665C23.6931 30.9636 26.2182 31.801 28.8844 31.801C35.6425 31.801 41.1407 26.303 41.1407 19.5448C41.1407 12.7866 35.6426 7.28848 28.8844 7.28848C26.2183 7.28848 23.6931 8.1259 21.5665 9.71276H15.1681L14.6216 8.898C14.5635 8.81133 14.5737 8.70771 14.6474 8.634L17.9736 5.30791C18.0474 5.23419 18.1509 5.2241 18.2375 5.2821L20.3868 6.72343C20.478 6.78457 20.5829 6.82224 20.6922 6.83309C20.8015 6.84394 20.9118 6.82763 21.0132 6.78562L25.428 4.95657C25.5295 4.91455 25.619 4.84811 25.6885 4.76316C25.7581 4.6782 25.8056 4.57737 25.8269 4.46962L26.3274 1.93105C26.3476 1.82876 26.428 1.76267 26.5323 1.76267H31.2363C31.3406 1.76267 31.421 1.82876 31.4411 1.93105L31.9416 4.46962C31.9629 4.57735 32.0104 4.67817 32.08 4.76312C32.1495 4.84807 32.239 4.91452 32.3405 4.95657L36.7553 6.78562C36.8568 6.82761 36.9671 6.8439 37.0764 6.83306C37.1857 6.82221 37.2906 6.78455 37.3818 6.72343L39.531 5.28219C39.6176 5.224 39.7212 5.23419 39.795 5.308L43.1212 8.6341C43.195 8.70781 43.205 8.81143 43.147 8.898L41.7057 11.0473C41.6445 11.1385 41.6068 11.2435 41.596 11.3528C41.5851 11.4621 41.6015 11.5723 41.6435 11.6738L43.4726 16.0886C43.5146 16.19 43.581 16.2795 43.666 16.3491C43.7509 16.4187 43.8518 16.4662 43.9595 16.4874L46.498 16.9879C46.6004 17.0081 46.6665 17.0885 46.6665 17.1928V21.8967L46.6666 21.8968ZM19.0345 24.9884C19.2113 24.9884 19.3809 25.0586 19.5059 25.1836C19.6309 25.3087 19.7011 25.4782 19.7011 25.6551C19.7011 25.8319 19.6309 26.0014 19.5059 26.1265C19.3809 26.2515 19.2113 26.3217 19.0345 26.3217H11.886C11.7092 26.3217 11.5396 26.2515 11.4146 26.1265C11.2896 26.0014 11.2193 25.8319 11.2193 25.6551C11.2193 25.4782 11.2896 25.3087 11.4146 25.1836C11.5396 25.0586 11.7092 24.9884 11.886 24.9884H19.0345ZM6.85391 22.1316C6.7876 22.0744 6.73321 22.0048 6.69384 21.9266C6.65447 21.8484 6.63089 21.7632 6.62444 21.6759C6.61799 21.5885 6.62881 21.5008 6.65627 21.4177C6.68373 21.3345 6.72729 21.2576 6.78448 21.1913L8.58019 19.1094C8.64278 19.0369 8.72028 18.9786 8.8074 18.9387C8.89452 18.8988 8.98922 18.8782 9.08505 18.8782H17.2949C17.4717 18.8782 17.6412 18.9484 17.7663 19.0735C17.8913 19.1985 17.9615 19.368 17.9615 19.5449C17.9615 19.7217 17.8913 19.8912 17.7663 20.0163C17.6412 20.1413 17.4717 20.2115 17.2949 20.2115H9.39048L7.79419 22.0622C7.73164 22.1349 7.65411 22.1932 7.56692 22.2331C7.47973 22.273 7.38494 22.2936 7.28905 22.2934C7.12926 22.2936 6.97477 22.2361 6.85391 22.1316ZM11.8859 14.1013C11.7091 14.1013 11.5395 14.0311 11.4145 13.9061C11.2895 13.781 11.2192 13.6115 11.2192 13.4347C11.2192 13.2579 11.2895 13.0883 11.4145 12.9633C11.5395 12.8382 11.7091 12.768 11.8859 12.768H19.0345C19.2113 12.768 19.3809 12.8382 19.5059 12.9633C19.6309 13.0883 19.7011 13.2579 19.7011 13.4347C19.7011 13.6115 19.6309 13.781 19.5059 13.9061C19.3809 14.0311 19.2113 14.1013 19.0345 14.1013H11.8859ZM8.50876 25.3485C8.60458 25.3485 8.69927 25.3278 8.78638 25.2879C8.87349 25.248 8.95096 25.1898 9.01352 25.1172L10.6098 23.2666H25.8806V25.9119C25.8806 26.3374 26.1167 26.7111 26.4967 26.8872C26.6444 26.9558 26.8024 26.9892 26.9592 26.9892C27.2114 26.9892 27.4604 26.9026 27.6577 26.7354L35.1125 20.421C35.2397 20.3133 35.3419 20.1791 35.4118 20.0278C35.4818 19.8764 35.518 19.7117 35.5177 19.545C35.518 19.3782 35.4819 19.2134 35.4119 19.0621C35.342 18.9107 35.2398 18.7764 35.1126 18.6687L27.6577 12.3541C27.3378 12.0831 26.8821 12.0236 26.4968 12.2023C26.1167 12.3785 25.8806 12.7522 25.8806 13.1777V15.823H10.6099L9.01362 13.9723C8.95104 13.8997 8.87356 13.8415 8.78646 13.8016C8.69935 13.7617 8.60467 13.7411 8.50886 13.741H5.04829C4.7539 12.647 3.75381 11.8393 2.56829 11.8393C1.1521 11.8393 0 12.9915 0 14.4077C0 15.8239 1.15219 16.976 2.56829 16.976C3.7539 16.976 4.7539 16.1683 5.04829 15.0744H8.20352L9.79981 16.925C9.86239 16.9975 9.93987 17.0557 10.027 17.0956C10.1141 17.1355 10.2088 17.1562 10.3046 17.1562H26.5473C26.7241 17.1562 26.8937 17.086 27.0187 16.9609C27.1438 16.8359 27.214 16.6663 27.214 16.4895V13.7253L34.0842 19.5448L27.214 25.364V22.5998C27.214 22.423 27.1438 22.2534 27.0187 22.1284C26.8937 22.0034 26.7241 21.9331 26.5473 21.9331H10.3046C10.2088 21.9331 10.1141 21.9538 10.027 21.9937C9.93985 22.0336 9.86237 22.0918 9.79981 22.1644L8.20343 24.015H5.04829C4.7539 22.9211 3.75381 22.1134 2.56829 22.1134C1.1521 22.1134 0 23.2655 0 24.6817C0 26.0979 1.15219 27.25 2.56829 27.25C3.7539 27.25 4.754 26.4423 5.04838 25.3483H8.50886L8.50876 25.3485ZM2.56819 15.6429C1.88724 15.6429 1.33324 15.0889 1.33324 14.4079C1.33324 13.727 1.88724 13.1729 2.56819 13.1729C3.24914 13.1729 3.80314 13.7269 3.80314 14.4079C3.80314 15.089 3.24914 15.6429 2.56819 15.6429ZM2.56819 25.9169C1.88724 25.9169 1.33324 25.3629 1.33324 24.6819C1.33324 24.001 1.88724 23.447 2.56819 23.447C3.24914 23.447 3.80314 24.001 3.80314 24.6819C3.80314 25.3629 3.24914 25.9169 2.56819 25.9169Z" fill="white"/>
</svg>
