<svg width="46" height="46" viewBox="0 0 46 46" fill="none" xmlns="http://www.w3.org/2000/svg">
<path d="M37.1023 26.0196C37.4508 26.0219 37.7882 25.8973 38.0515 25.6691C38.3148 25.4408 38.4861 25.1245 38.5332 24.7792C38.7437 23.2767 38.7437 21.7522 38.5332 20.2497C38.4869 19.9038 38.316 19.5866 38.0526 19.3576C37.7892 19.1286 37.4513 19.0035 37.1023 19.0057H35.5181C35.2176 17.8947 34.7744 16.8272 34.1997 15.83L35.3203 14.7076C35.5686 14.4623 35.719 14.1349 35.7434 13.7867C35.7678 13.4385 35.6645 13.0933 35.4527 12.8158C34.54 11.6036 33.4619 10.5255 32.2498 9.61279C31.9724 9.39978 31.6268 9.29541 31.278 9.31931C30.9291 9.3432 30.6009 9.49371 30.3552 9.74254L29.2346 10.8631C28.2376 10.2883 27.1701 9.84545 26.0589 9.54565V7.9605C26.0613 7.6123 25.9369 7.27512 25.709 7.01185C25.4812 6.74857 25.1653 6.57716 24.8204 6.5296C23.3178 6.32 21.7934 6.32 20.2908 6.5296C19.9449 6.57595 19.6277 6.74683 19.3987 7.01023C19.1698 7.27363 19.0446 7.61148 19.0469 7.9605V9.54565C17.9357 9.84561 16.8683 10.2885 15.8711 10.8631L14.7487 9.74254C14.5034 9.49421 14.176 9.34378 13.8278 9.3194C13.4796 9.29501 13.1344 9.39835 12.8569 9.61007C11.6448 10.5228 10.5666 11.6009 9.65391 12.813C9.4409 13.0904 9.33653 13.436 9.36042 13.7849C9.38432 14.1337 9.53483 14.4619 9.78366 14.7076L10.9042 15.8282C10.3295 16.8254 9.88637 17.8929 9.58586 19.0039H8.00162C7.65342 19.0015 7.31624 19.1259 7.05296 19.3538C6.78968 19.5817 6.61828 19.8975 6.57072 20.2425C6.36021 21.745 6.36021 23.2695 6.57072 24.772C6.61707 25.1179 6.78795 25.4351 7.05135 25.6641C7.31475 25.8931 7.6526 26.0182 8.00162 26.016H9.58586C9.88637 27.127 10.3295 28.1945 10.9042 29.1917L9.78366 30.3141C9.53533 30.5594 9.38489 30.8868 9.36051 31.235C9.33613 31.5832 9.43947 31.9284 9.65119 32.2059C10.5639 33.4181 11.642 34.4962 12.8542 35.4089C13.1316 35.6217 13.4771 35.726 13.826 35.7021C14.1748 35.6782 14.5029 35.5278 14.7487 35.2792L15.8684 34.1586C16.8656 34.733 17.9331 35.1759 19.0441 35.476V37.0612C19.0418 37.4095 19.1662 37.7468 19.3943 38.0101C19.6224 38.2734 19.9385 38.4447 20.2836 38.4921C21.7861 38.7026 23.3106 38.7026 24.8131 38.4921C25.159 38.4457 25.4762 38.2749 25.7052 38.0115C25.9342 37.7481 26.0593 37.4102 26.0571 37.0612V35.476C27.1682 35.1762 28.2358 34.7334 29.2328 34.1586L30.3552 35.2792C30.6005 35.5275 30.9279 35.6779 31.2761 35.7023C31.6244 35.7267 31.9695 35.6233 32.2471 35.4116C33.4594 34.4992 34.5376 33.421 35.45 32.2087C35.663 31.9313 35.7674 31.5857 35.7435 31.2368C35.7196 30.888 35.5691 30.5598 35.3203 30.3141L34.1997 29.1935C34.7741 28.1963 35.217 27.1288 35.5172 26.0178L37.1023 26.0196ZM34.2405 25.1349C33.9404 26.4777 33.4096 27.7582 32.6717 28.9195C32.5833 29.0587 32.5449 29.2239 32.5629 29.3878C32.5808 29.5517 32.6541 29.7047 32.7706 29.8214L34.2895 31.3403C33.4605 32.4408 32.4813 33.4197 31.3805 34.2484L29.8625 32.7304C29.7459 32.6138 29.593 32.5403 29.4291 32.5222C29.2651 32.504 29.0999 32.5423 28.9606 32.6306C27.7995 33.3688 26.5189 33.8996 25.176 34.1994C25.015 34.2355 24.8712 34.3253 24.7681 34.4542C24.665 34.583 24.6089 34.7431 24.6089 34.908V37.0558C23.2442 37.2458 21.8597 37.2458 20.495 37.0558V34.908C20.4951 34.7431 20.4389 34.583 20.3359 34.4542C20.2328 34.3253 20.0889 34.2355 19.9279 34.1994C18.5851 33.8993 17.3046 33.3685 16.1433 32.6306C16.0041 32.5422 15.8389 32.5038 15.675 32.5218C15.5111 32.5397 15.3581 32.613 15.2414 32.7295L13.7225 34.2484C12.6236 33.419 11.6463 32.4399 10.819 31.3394L12.337 29.8214C12.4536 29.7048 12.527 29.5519 12.5452 29.388C12.5633 29.224 12.5251 29.0588 12.4368 28.9195C11.6985 27.7584 11.1677 26.4778 10.868 25.1349C10.8319 24.9739 10.742 24.83 10.6132 24.727C10.4844 24.6239 10.3243 24.5677 10.1593 24.5678H8.00706C7.81651 23.2031 7.81651 21.8186 8.00706 20.4539H10.1539C10.3188 20.454 10.4789 20.3978 10.6077 20.2947C10.7366 20.1917 10.8264 20.0478 10.8625 19.8868C11.1625 18.544 11.6933 17.2634 12.4313 16.1022C12.5196 15.9629 12.5579 15.7977 12.5397 15.6337C12.5216 15.4698 12.4481 15.3169 12.3315 15.2003L10.8135 13.6814C11.6429 12.5825 12.622 11.6051 13.7225 10.7778L15.2405 12.2967C15.3572 12.4132 15.5102 12.4865 15.6741 12.5045C15.838 12.5225 16.0032 12.4841 16.1424 12.3957C17.3037 11.6577 18.5842 11.1269 19.927 10.8268C20.088 10.7907 20.2319 10.7009 20.3349 10.5721C20.438 10.4433 20.4942 10.2832 20.4941 10.1182V7.96594C21.8588 7.77586 23.2433 7.77586 24.608 7.96594V10.1127C24.608 10.2777 24.6641 10.4378 24.7672 10.5666C24.8702 10.6954 25.0141 10.7853 25.1751 10.8214C26.5179 11.1215 27.7984 11.6523 28.9597 12.3902C29.0989 12.4786 29.2641 12.517 29.428 12.499C29.592 12.4811 29.7449 12.4078 29.8616 12.2913L31.3805 10.7724C32.481 11.6014 33.4599 12.5806 34.2886 13.6814L32.7706 15.1994C32.654 15.316 32.5805 15.4689 32.5624 15.6328C32.5443 15.7968 32.5825 15.962 32.6708 16.1013C33.409 17.2624 33.9398 18.543 34.2396 19.8859C34.2757 20.0469 34.3656 20.1907 34.4944 20.2938C34.6232 20.3969 34.7833 20.453 34.9483 20.453H37.0969C37.2874 21.8177 37.2874 23.2022 37.0969 24.5669H34.9492C34.7841 24.5669 34.6239 24.6231 34.495 24.7264C34.3662 24.8297 34.2764 24.9738 34.2405 25.1349ZM22.552 13.9354C20.8559 13.9354 19.1979 14.4384 17.7877 15.3807C16.3775 16.3229 15.2784 17.6622 14.6293 19.2292C13.9803 20.7961 13.8104 22.5204 14.1413 24.1838C14.4722 25.8473 15.2889 27.3753 16.4882 28.5746C17.6875 29.7739 19.2155 30.5906 20.879 30.9215C22.5425 31.2524 24.2667 31.0826 25.8336 30.4335C27.4006 29.7844 28.7399 28.6853 29.6822 27.2751C30.6244 25.8649 31.1274 24.2069 31.1274 22.5108C31.1247 20.2373 30.2204 18.0577 28.6128 16.45C27.0052 14.8424 24.8255 13.9381 22.552 13.9354ZM22.552 29.6327C21.143 29.6327 19.7656 29.2148 18.5941 28.432C17.4226 27.6492 16.5095 26.5365 15.9704 25.2347C15.4313 23.9329 15.2903 22.5005 15.5653 21.1186C15.8403 19.7367 16.519 18.4674 17.5154 17.4712C18.5119 16.475 19.7814 15.7967 21.1633 15.522C22.5453 15.2474 23.9777 15.3887 25.2793 15.9282C26.581 16.4676 27.6934 17.381 28.4759 18.5527C29.2585 19.7244 29.676 21.1018 29.6756 22.5108C29.6734 24.3995 28.9222 26.2102 27.5868 27.5456C26.2513 28.8811 24.4406 29.6323 22.552 29.6345V29.6327ZM7.05615 8.25811C6.32959 9.0471 5.66466 9.8907 5.06723 10.7815C5.01408 10.8607 4.94585 10.9287 4.86643 10.9816C4.78701 11.0344 4.69795 11.0711 4.60435 11.0896C4.51074 11.1081 4.41441 11.1079 4.32087 11.0891C4.22732 11.0703 4.13839 11.0333 4.05916 10.9802C3.97992 10.927 3.91192 10.8588 3.85905 10.7794C3.80618 10.7 3.76947 10.6109 3.75102 10.5173C3.73257 10.4237 3.73274 10.3274 3.75151 10.2338C3.77029 10.1403 3.8073 10.0513 3.86045 9.97211C4.50007 9.01987 5.2117 8.11805 5.9891 7.27454C6.12102 7.13915 6.30056 7.06057 6.48952 7.0555C6.67848 7.05043 6.86197 7.11928 7.00096 7.24739C7.13995 7.37551 7.22348 7.5528 7.23379 7.74155C7.2441 7.9303 7.18037 8.11562 7.05615 8.25811ZM9.53777 5.037C9.428 4.87899 9.38546 4.68386 9.41949 4.4945C9.45352 4.30514 9.56133 4.13703 9.71924 4.02711C13.6039 1.33057 18.2393 -0.0738883 22.9673 0.0130863C27.6954 0.100061 32.276 1.67405 36.0589 4.51164L35.8148 3.83475C35.751 3.65404 35.7613 3.45544 35.8434 3.28228C35.9254 3.10911 36.0727 2.97543 36.2529 2.9104C36.4332 2.84536 36.6319 2.85424 36.8056 2.93511C36.9793 3.01597 37.114 3.16226 37.1803 3.34206L38.3517 6.58767C38.3914 6.69734 38.404 6.81494 38.3886 6.93053C38.3732 7.04611 38.3301 7.15628 38.2631 7.25171C38.1961 7.34713 38.107 7.425 38.0035 7.47873C37.9 7.53245 37.7851 7.56045 37.6685 7.56036C37.6256 7.56048 37.5827 7.55653 37.5406 7.54856L34.1443 6.93972C34.0505 6.92292 33.9609 6.8878 33.8806 6.83637C33.8004 6.78494 33.731 6.71821 33.6765 6.63997C33.6221 6.56174 33.5835 6.47355 33.5632 6.38043C33.5428 6.28731 33.5409 6.19108 33.5577 6.09725C33.5745 6.00341 33.6096 5.9138 33.6611 5.83354C33.7125 5.75328 33.7792 5.68393 33.8575 5.62946C33.9357 5.57499 34.0239 5.53646 34.117 5.51607C34.2101 5.49569 34.3064 5.49384 34.4002 5.51064L35.1515 5.64584C31.6129 3.00391 27.3333 1.54126 22.9179 1.46473C18.5025 1.3882 14.1748 2.70167 10.5467 5.21938C10.3887 5.32876 10.1937 5.37099 10.0045 5.3368C9.8154 5.30261 9.64753 5.1948 9.53777 5.037ZM2.12105 27.592C2.16686 27.7785 2.13691 27.9756 2.03777 28.14C1.93862 28.3044 1.77836 28.4229 1.59206 28.4695C1.53459 28.4845 1.47544 28.4921 1.41603 28.4921C1.25404 28.4921 1.09673 28.4378 0.969138 28.338C0.841545 28.2382 0.751003 28.0986 0.711923 27.9414C0.479766 27.01 0.30732 26.0647 0.195638 25.1113C0.176062 24.9215 0.23199 24.7317 0.351325 24.5828C0.470659 24.434 0.643803 24.3381 0.833299 24.3159C1.02279 24.2937 1.2134 24.347 1.36389 24.4643C1.51438 24.5816 1.61264 24.7534 1.63743 24.9426C1.74183 25.8351 1.90336 26.7201 2.12105 27.592ZM0.0549979 21.863C0.0816529 20.9594 0.162858 20.0583 0.298169 19.1645C0.312468 19.0703 0.345191 18.9798 0.39447 18.8982C0.443749 18.8165 0.508619 18.7454 0.585375 18.6889C0.662132 18.6324 0.749273 18.5915 0.841823 18.5687C0.934372 18.5458 1.03052 18.5414 1.12477 18.5557C1.21902 18.57 1.30953 18.6027 1.39114 18.652C1.47275 18.7013 1.54385 18.7661 1.60038 18.8429C1.65692 18.9197 1.69778 19.0068 1.72064 19.0993C1.7435 19.1919 1.7479 19.288 1.73361 19.3823C1.60703 20.2181 1.53098 21.0607 1.50586 21.9056C1.50019 22.0944 1.42122 22.2734 1.2857 22.4049C1.15018 22.5364 0.968777 22.6098 0.779975 22.6097H0.758198C0.565974 22.6038 0.383958 22.5219 0.252115 22.3818C0.120272 22.2418 0.0493775 22.0552 0.0549979 21.863ZM3.37864 13.8193C3.00796 14.6387 2.69004 15.4809 2.42682 16.3408C2.36971 16.524 2.24243 16.677 2.0728 16.7666C1.90317 16.8562 1.70497 16.875 1.52153 16.8189C1.33809 16.7628 1.18432 16.6363 1.09382 16.4672C1.00332 16.298 0.98346 16.0999 1.03857 15.9162C1.31984 14.9966 1.65958 14.0958 2.05572 13.2195C2.09498 13.1327 2.15096 13.0544 2.22048 12.9892C2.28999 12.9239 2.37168 12.873 2.46086 12.8394C2.55004 12.8057 2.64499 12.7899 2.74026 12.793C2.83554 12.796 2.92929 12.8178 3.01615 12.857C3.10302 12.8963 3.1813 12.9523 3.24652 13.0218C3.31175 13.0913 3.36265 13.173 3.39631 13.2622C3.42997 13.3514 3.44573 13.4463 3.4427 13.5416C3.43967 13.6369 3.4179 13.7306 3.37864 13.8175V13.8193ZM42.9829 17.4297C42.9363 17.2428 42.9659 17.0451 43.0651 16.88C43.1643 16.715 43.325 16.5961 43.5119 16.5495C43.6987 16.503 43.8964 16.5325 44.0615 16.6317C44.2266 16.7309 44.3454 16.8917 44.392 17.0785C44.6241 18.0099 44.7965 18.9552 44.9083 19.9086C44.9305 20.0995 44.8762 20.2914 44.7571 20.4423C44.638 20.5932 44.464 20.6906 44.2731 20.7134C44.2449 20.717 44.2164 20.7188 44.1879 20.7188C44.0102 20.7185 43.8388 20.653 43.7062 20.5348C43.5736 20.4165 43.489 20.2538 43.4683 20.0773C43.3636 19.1852 43.2015 18.3009 42.9829 17.4297ZM45.0489 23.1569C45.0223 24.0605 44.9411 24.9616 44.8058 25.8554C44.7797 26.0269 44.6931 26.1834 44.5616 26.2966C44.4301 26.4098 44.2624 26.4722 44.0889 26.4724C44.0522 26.4723 44.0155 26.4696 43.9792 26.4642C43.8849 26.4499 43.7944 26.4172 43.7128 26.3679C43.6312 26.3186 43.5601 26.2538 43.5035 26.177C43.447 26.1002 43.4061 26.0131 43.3833 25.9205C43.3604 25.828 43.356 25.7318 43.3703 25.6376C43.4983 24.8025 43.5759 23.9605 43.6026 23.1161C43.6083 22.9235 43.6902 22.7412 43.8303 22.609C43.9704 22.4769 44.1573 22.4058 44.3498 22.4115C44.5423 22.4171 44.7247 22.499 44.8568 22.6392C44.989 22.7793 45.06 22.9662 45.0544 23.1587L45.0489 23.1569ZM41.2435 35.0496C40.6042 36.0018 39.8928 36.9036 39.1157 37.7472C39.052 37.8203 38.9742 37.8799 38.887 37.9225C38.7999 37.965 38.705 37.9897 38.6081 37.995C38.5113 38.0003 38.4143 37.9861 38.323 37.9533C38.2317 37.9204 38.1479 37.8697 38.0766 37.8039C38.0053 37.7381 37.9478 37.6588 37.9077 37.5704C37.8676 37.4821 37.8455 37.3866 37.8429 37.2896C37.8403 37.1927 37.8572 37.0961 37.8925 37.0058C37.9279 36.9154 37.981 36.8331 38.0487 36.7636C38.7752 35.9746 39.4402 35.131 40.0376 34.2402C40.0907 34.161 40.159 34.0931 40.2384 34.0403C40.3178 33.9875 40.4068 33.9508 40.5004 33.9324C40.5939 33.914 40.6902 33.9142 40.7837 33.933C40.8772 33.9518 40.966 33.9888 41.0452 34.042C41.1244 34.0951 41.1923 34.1633 41.2452 34.2427C41.298 34.3221 41.3346 34.4112 41.353 34.5047C41.3714 34.5983 41.3712 34.6946 41.3525 34.7881C41.3337 34.8815 41.2966 34.9704 41.2435 35.0496ZM44.0663 29.1037C43.785 30.0233 43.4452 30.924 43.0491 31.8004C42.9698 31.9758 42.8241 32.1125 42.644 32.1805C42.4639 32.2485 42.2641 32.2421 42.0887 32.1628C41.9133 32.0835 41.7765 31.9378 41.7085 31.7577C41.6405 31.5776 41.6469 31.3778 41.7262 31.2024C42.0966 30.383 42.4142 29.5408 42.6771 28.6809C42.7342 28.4977 42.8615 28.3447 43.0311 28.2551C43.2008 28.1655 43.399 28.1467 43.5824 28.2028C43.7658 28.2589 43.9196 28.3854 44.0101 28.5545C44.1006 28.7237 44.1205 28.9218 44.0654 29.1055L44.0663 29.1037ZM35.5662 39.9847C35.6759 40.1427 35.7185 40.3378 35.6844 40.5272C35.6504 40.7166 35.5426 40.8847 35.3847 40.9946C31.4999 43.6907 26.8647 45.095 22.1367 45.0082C17.4088 44.9214 12.8283 43.3479 9.04507 40.511L9.28915 41.1869C9.33798 41.3632 9.31851 41.5513 9.23463 41.7138C9.15075 41.8762 9.00864 42.0011 8.83671 42.0633C8.66478 42.1256 8.47569 42.1206 8.30724 42.0495C8.1388 41.9784 8.0034 41.8463 7.92812 41.6796L6.75037 38.434C6.7071 38.3141 6.69615 38.185 6.71864 38.0595C6.74113 37.934 6.79625 37.8167 6.87847 37.7193C6.96069 37.6219 7.06711 37.5479 7.18702 37.5047C7.30692 37.4615 7.4361 37.4506 7.56155 37.4731L10.9578 38.082C11.0516 38.0988 11.1412 38.1339 11.2215 38.1853C11.3017 38.2368 11.3711 38.3035 11.4256 38.3817C11.48 38.46 11.5186 38.5481 11.539 38.6413C11.5593 38.7344 11.5612 38.8306 11.5444 38.9245C11.5276 39.0183 11.4925 39.1079 11.441 39.1882C11.3896 39.2684 11.3229 39.3378 11.2446 39.3922C11.1664 39.4467 11.0782 39.4852 10.9851 39.5056C10.892 39.526 10.7957 39.5279 10.7019 39.5111L9.95061 39.3768C13.4895 42.0182 17.7691 43.4804 22.1844 43.5568C26.5997 43.6332 30.9273 42.3198 34.5554 39.8023C34.6337 39.7479 34.722 39.7094 34.8152 39.6891C34.9084 39.6688 35.0047 39.6671 35.0986 39.684C35.1924 39.7009 35.2821 39.7362 35.3623 39.7878C35.4425 39.8394 35.5118 39.9063 35.5662 39.9847Z" fill="white"/>
</svg>
