<svg width="45" height="45" viewBox="0 0 45 45" fill="none" xmlns="http://www.w3.org/2000/svg">
<path d="M8.70968 18.1451C7.99193 18.1451 7.29029 17.9323 6.6935 17.5335C6.09671 17.1348 5.63157 16.568 5.3569 15.9049C5.08222 15.2418 5.01036 14.5121 5.15038 13.8081C5.29041 13.1042 5.63604 12.4575 6.14357 11.95C6.6511 11.4425 7.29773 11.0968 8.00169 10.9568C8.70566 10.8168 9.43533 10.8887 10.0985 11.1633C10.7616 11.438 11.3283 11.9031 11.7271 12.4999C12.1259 13.0967 12.3387 13.7984 12.3387 14.5161C12.3376 15.4782 11.9548 16.4006 11.2745 17.081C10.5942 17.7613 9.67181 18.144 8.70968 18.1451ZM8.70968 12.3387C8.27903 12.3387 7.85805 12.4664 7.49997 12.7057C7.1419 12.9449 6.86281 13.285 6.69801 13.6829C6.53321 14.0807 6.49009 14.5185 6.5741 14.9409C6.65812 15.3633 6.8655 15.7513 7.17002 16.0558C7.47453 16.3603 7.86251 16.5677 8.28489 16.6517C8.70727 16.7357 9.14507 16.6926 9.54295 16.5278C9.94082 16.363 10.2809 16.0839 10.5201 15.7258C10.7594 15.3678 10.8871 14.9468 10.8871 14.5161C10.8871 13.9386 10.6577 13.3848 10.2494 12.9765C9.84101 12.5681 9.28717 12.3387 8.70968 12.3387ZM6.53226 33.3871H0.725815C0.533319 33.3871 0.348708 33.3106 0.212593 33.1745C0.0764775 33.0384 8.93976e-06 32.8538 8.93976e-06 32.6613C-0.00213537 30.6509 0.381494 28.6589 1.13009 26.7931L3.5013 20.864C3.81856 20.0711 4.40339 19.4143 5.1543 19.0076C5.90522 18.6008 6.77484 18.4698 7.61226 18.6372C8.10044 18.7356 8.56348 18.9323 8.97314 19.2155C9.38281 19.4986 9.73052 19.8622 9.99509 20.2841L12.7742 24.7326L16.1855 25.2196C16.7571 25.3005 17.2767 25.5951 17.6395 26.0441C18.0024 26.493 18.1815 27.0629 18.1407 27.6387C18.0999 28.2145 17.8423 28.7535 17.4197 29.1468C16.9972 29.5401 16.4412 29.7585 15.864 29.758H10.1613C10.0264 29.7581 9.89419 29.7206 9.77945 29.6497C9.66471 29.5788 9.57199 29.4773 9.5117 29.3567L8.30831 26.9499L7.24573 32.7912C7.21533 32.9583 7.12728 33.1095 6.99691 33.2183C6.86654 33.3272 6.70212 33.3869 6.53226 33.3871ZM1.46977 31.9355H5.92622L7.27041 24.5475C7.29775 24.3977 7.37151 24.2603 7.48125 24.1547C7.59098 24.0492 7.73114 23.9808 7.88188 23.9593C8.03262 23.9378 8.18631 23.9642 8.32119 24.0349C8.45608 24.1055 8.56532 24.2168 8.63347 24.353L10.6098 28.3064H15.864C16.0733 28.306 16.2747 28.2265 16.4277 28.0838C16.5808 27.941 16.6742 27.7456 16.6892 27.5369C16.7041 27.3281 16.6396 27.1214 16.5085 26.9583C16.3773 26.7952 16.1894 26.6877 15.9823 26.6574L12.2356 26.1218C12.1311 26.1067 12.0311 26.0691 11.9426 26.0114C11.8541 25.9538 11.7792 25.8775 11.7232 25.7879L8.76412 21.0535C8.54835 20.7084 8.24124 20.4298 7.87683 20.2486C7.51242 20.0674 7.10496 19.9907 6.6996 20.0269C6.29425 20.0632 5.90685 20.2109 5.58035 20.4539C5.25385 20.6968 5.001 21.0254 4.84985 21.4033L2.47791 27.3317C1.88913 28.7998 1.54844 30.3556 1.46977 31.9355ZM36.2903 18.1451C35.5726 18.1451 34.8709 17.9323 34.2741 17.5335C33.6773 17.1348 33.2122 16.568 32.9375 15.9049C32.6629 15.2418 32.591 14.5121 32.731 13.8081C32.871 13.1042 33.2167 12.4575 33.7242 11.95C34.2317 11.4425 34.8784 11.0968 35.5823 10.9568C36.2863 10.8168 37.016 10.8887 37.6791 11.1633C38.3422 11.438 38.909 11.9031 39.3077 12.4999C39.7065 13.0967 39.9193 13.7984 39.9193 14.5161C39.9182 15.4782 39.5355 16.4006 38.8552 17.081C38.1748 17.7613 37.2524 18.144 36.2903 18.1451ZM36.2903 12.3387C35.8597 12.3387 35.4387 12.4664 35.0806 12.7057C34.7225 12.9449 34.4434 13.285 34.2786 13.6829C34.1138 14.0807 34.0707 14.5185 34.1547 14.9409C34.2388 15.3633 34.4461 15.7513 34.7507 16.0558C35.0552 16.3603 35.4431 16.5677 35.8655 16.6517C36.2879 16.7357 36.7257 16.6926 37.1236 16.5278C37.5214 16.363 37.8615 16.0839 38.1008 15.7258C38.34 15.3678 38.4677 14.9468 38.4677 14.5161C38.4677 13.9386 38.2383 13.3848 37.83 12.9765C37.4216 12.5681 36.8678 12.3387 36.2903 12.3387ZM44.2742 33.3871H38.4677C38.2979 33.3869 38.1335 33.3272 38.0031 33.2183C37.8727 33.1095 37.7847 32.9583 37.7543 32.7912L36.6917 26.9499L35.4919 29.3567C35.4314 29.4779 35.3381 29.5797 35.2226 29.6507C35.1072 29.7216 34.9742 29.7588 34.8387 29.758H29.136C28.5586 29.7591 28.0022 29.5411 27.5793 29.1479C27.1563 28.7548 26.8982 28.2158 26.8572 27.6398C26.8161 27.0638 26.995 26.4937 27.3579 26.0445C27.7208 25.5953 28.2406 25.3005 28.8123 25.2196L32.2236 24.7326L35.0042 20.2841C35.2688 19.8622 35.6165 19.4986 36.0261 19.2155C36.4358 18.9323 36.8988 18.7356 37.387 18.6372C38.2245 18.4694 39.0943 18.6002 39.8453 19.007C40.5963 19.4138 41.1811 20.0709 41.498 20.864L43.8692 26.7931C44.618 28.6588 45.0019 30.6509 45 32.6613C45 32.8538 44.9235 33.0384 44.7874 33.1745C44.6513 33.3106 44.4667 33.3871 44.2742 33.3871ZM39.0738 31.9355H43.5302C43.4516 30.3556 43.1109 28.7998 42.5221 27.3317L40.1502 21.4033C39.9991 21.0254 39.7464 20.6968 39.4199 20.4538C39.0935 20.2108 38.7061 20.063 38.3008 20.0268C37.8955 19.9905 37.488 20.0673 37.1237 20.2485C36.7593 20.4297 36.4523 20.7084 36.2366 21.0535L33.2768 25.7879C33.2208 25.8775 33.1459 25.9538 33.0574 26.0114C32.9689 26.0691 32.8689 26.1067 32.7643 26.1218L29.0177 26.6574C28.8106 26.6877 28.6227 26.7952 28.4915 26.9583C28.3604 27.1214 28.2958 27.3281 28.3108 27.5369C28.3258 27.7456 28.4192 27.941 28.5723 28.0838C28.7253 28.2265 28.9267 28.306 29.136 28.3064H34.3902L36.3665 24.353C36.4347 24.2168 36.5439 24.1055 36.6788 24.0349C36.8137 23.9642 36.9674 23.9378 37.1181 23.9593C37.2689 23.9808 37.409 24.0492 37.5188 24.1547C37.6285 24.2603 37.7023 24.3977 37.7296 24.5475L39.0738 31.9355Z" fill="white"/>
<path d="M31.6688 22.7642L30.7129 20.3226H14.285L13.6137 22.0384L12.2651 21.51L13.1165 19.3326C13.1695 19.1971 13.2619 19.0806 13.3819 18.9983C13.5019 18.916 13.6438 18.8716 13.7893 18.871H31.2087C31.3548 18.8709 31.4975 18.9149 31.6182 18.9973C31.7389 19.0796 31.8319 19.1965 31.8851 19.3326L33.021 22.2358L31.6688 22.7642ZM22.499 36.2903C21.3444 36.2892 20.2374 35.83 19.4209 35.0135C18.6045 34.1971 18.1453 33.0901 18.1442 31.9355V31.2097C18.1442 30.0547 18.603 28.947 19.4197 28.1303C20.2363 27.3137 21.344 26.8548 22.499 26.8548C23.654 26.8548 24.7616 27.3137 25.5783 28.1303C26.395 28.947 26.8538 30.0547 26.8538 31.2097V31.9355C26.8527 33.0901 26.3935 34.1971 25.577 35.0135C24.7606 35.83 23.6536 36.2892 22.499 36.2903ZM22.499 28.3065C21.729 28.3065 20.9906 28.6123 20.4461 29.1568C19.9016 29.7012 19.5958 30.4397 19.5958 31.2097V31.9355C19.5958 32.7055 19.9016 33.4439 20.4461 33.9884C20.9906 34.5328 21.729 34.8387 22.499 34.8387C23.269 34.8387 24.0074 34.5328 24.5519 33.9884C25.0963 33.4439 25.4022 32.7055 25.4022 31.9355V31.2097C25.4022 30.4397 25.0963 29.7012 24.5519 29.1568C24.0074 28.6123 23.269 28.3065 22.499 28.3065ZM30.4829 44.2742H29.0312V40.6452C29.0312 40.0677 28.8018 39.5138 28.3935 39.1055C27.9851 38.6971 27.4313 38.4677 26.8538 38.4677H18.1442C17.5667 38.4677 17.0128 38.6971 16.6045 39.1055C16.1961 39.5138 15.9667 40.0677 15.9667 40.6452V44.2742H14.5151V40.6452C14.5163 39.683 14.899 38.7606 15.5793 38.0803C16.2596 37.4 17.182 37.0173 18.1442 37.0161H26.8538C27.8159 37.0173 28.7383 37.4 29.4187 38.0803C30.099 38.7606 30.4817 39.683 30.4829 40.6452V44.2742ZM37.7409 39.9194H31.2087V38.4677H37.0151V36.4268L34.7927 30.7481L36.1449 30.2197L38.4174 36.0261C38.4501 36.1104 38.4669 36.2 38.4667 36.2903V39.1935C38.4667 39.386 38.3903 39.5707 38.2541 39.7068C38.118 39.8429 37.9334 39.9194 37.7409 39.9194ZM13.7893 39.9194H7.25706C7.06456 39.9194 6.87995 39.8429 6.74383 39.7068C6.60772 39.5707 6.53125 39.386 6.53125 39.1935V36.2903C6.53111 36.2 6.54785 36.1104 6.58061 36.0261L8.85311 30.2197L10.206 30.7481L7.98286 36.4268V38.4677H13.7893V39.9194Z" fill="white"/>
<path d="M42.8209 19.5968H41.3693V1.45161H3.62739V19.5968H2.17578V0.725806C2.17578 0.53331 2.25225 0.348699 2.38837 0.212584C2.52448 0.0764686 2.70909 0 2.90159 0H42.0951C42.2876 0 42.4722 0.0764686 42.6083 0.212584C42.7445 0.348699 42.8209 0.53331 42.8209 0.725806V19.5968Z" fill="white"/>
<path d="M15.0302 15.0293L14.0039 14.003L19.0845 8.92235C19.2207 8.78628 19.4052 8.70984 19.5977 8.70984C19.7902 8.70984 19.9747 8.78628 20.1108 8.92235L23.9525 12.764L32.8749 3.84171L33.9012 4.868L24.4657 14.3035C24.3296 14.4395 24.145 14.516 23.9525 14.516C23.7601 14.516 23.5755 14.4395 23.4394 14.3035L19.5977 10.4618L15.0302 15.0293Z" fill="white"/>
<path d="M34.1126 8.70967H32.661V5.08064H29.032V3.62903H33.3868C33.5793 3.62903 33.7639 3.7055 33.9001 3.84161C34.0362 3.97773 34.1126 4.16234 34.1126 4.35483V8.70967ZM7.25781 3.62903H15.9675V5.08064H7.25781V3.62903ZM7.25781 6.53225H12.3385V7.98387H7.25781V6.53225Z" fill="white"/>
</svg>
