<svg width="45" height="45" viewBox="0 0 45 45" fill="none" xmlns="http://www.w3.org/2000/svg">
<path d="M36.0495 8.80671C35.892 8.6502 35.679 8.56235 35.457 8.56235C35.235 8.56235 35.0221 8.6502 34.8646 8.80671L23.5369 19.7899C23.3764 19.9459 23.2845 20.1593 23.2813 20.3831C23.2782 20.6068 23.3641 20.8227 23.5201 20.9832C23.6761 21.1436 23.8894 21.2356 24.1132 21.2387C24.337 21.2419 24.5529 21.156 24.7133 21L36.0327 9.99159C36.1914 9.83637 36.2823 9.62463 36.2855 9.40261C36.2886 9.1806 36.2038 8.96637 36.0495 8.80671Z" fill="white"/>
<path d="M42.2017 17.3782H40.8824C40.6575 17.379 40.438 17.3087 40.2554 17.1774C40.0728 17.0461 39.9364 16.8605 39.8655 16.6471C39.4794 15.4987 38.9783 14.3922 38.3697 13.3445L43.5462 8.22689C44.3 7.47216 44.7235 6.44906 44.7235 5.38235C44.7235 4.31564 44.3 3.29255 43.5462 2.53781L42.2185 1.2521C41.465 0.506243 40.4467 0.0892661 39.3866 0.0924371C38.8595 0.0918637 38.3376 0.196351 37.8513 0.399794C37.3651 0.603236 36.9243 0.901553 36.5546 1.27731L31.3445 6.42017C30.3834 5.89683 29.3799 5.45549 28.3445 5.10084C28.1319 5.02969 27.9474 4.8929 27.8176 4.71017C27.6877 4.52744 27.6192 4.3082 27.6218 4.08403V2.7563C27.6196 2.02451 27.3274 1.32346 26.8091 0.80679C26.2909 0.290124 25.5889 -3.38036e-06 24.8571 0H20.1429C19.4111 -3.38036e-06 18.7091 0.290124 18.1909 0.80679C17.6726 1.32346 17.3804 2.02451 17.3782 2.7563V4.07563C17.379 4.30053 17.3087 4.51994 17.1774 4.70254C17.0461 4.88515 16.8605 5.0216 16.6471 5.09244C15.851 5.36378 15.0735 5.68659 14.3193 6.05882C14.1191 6.15636 13.8936 6.18934 13.6738 6.15321C13.454 6.11709 13.2509 6.01364 13.0924 5.85714L12.1681 4.92437C11.6472 4.40812 10.9435 4.11849 10.2101 4.11849C9.4767 4.11849 8.773 4.40812 8.2521 4.92437L4.94118 8.23529C4.68354 8.49213 4.47912 8.79729 4.33964 9.13328C4.20016 9.46927 4.12837 9.82949 4.12837 10.1933C4.12837 10.5571 4.20016 10.9173 4.33964 11.2533C4.47912 11.5893 4.68354 11.8944 4.94118 12.1513L5.86555 13.084C6.02522 13.2422 6.13136 13.4464 6.16904 13.6679C6.20672 13.8895 6.17405 14.1173 6.07563 14.3193C5.70112 15.0714 5.38097 15.8493 5.11765 16.6471C5.04415 16.8605 4.90586 17.0457 4.72207 17.1767C4.53829 17.3078 4.31817 17.3782 4.09244 17.3782H2.76471C2.03146 17.3782 1.32825 17.6694 0.809764 18.1879C0.291281 18.7064 0 19.4096 0 20.1429V24.8235C0 25.5568 0.291281 26.26 0.809764 26.7785C1.32825 27.297 2.03146 27.5882 2.76471 27.5882H4.08403C4.30893 27.5874 4.52835 27.6577 4.71095 27.789C4.89355 27.9202 5.03001 28.1059 5.10084 28.3193C5.37218 29.1154 5.69499 29.8929 6.06723 30.6471C6.16565 30.8491 6.19831 31.0769 6.16063 31.2985C6.12295 31.52 6.01682 31.7242 5.85714 31.8823L4.93277 32.8151C4.66826 33.0682 4.45751 33.3721 4.31312 33.7085C4.16873 34.0449 4.09367 34.407 4.09244 34.7731C4.09603 35.1388 4.17216 35.5002 4.31641 35.8363C4.46065 36.1724 4.67015 36.4765 4.93277 36.7311L8.2437 40.042C8.7646 40.5583 9.4683 40.8479 10.2017 40.8479C10.9351 40.8479 11.6388 40.5583 12.1597 40.042L13.0924 39.1092C13.249 38.95 13.4512 38.8434 13.671 38.8042C13.8909 38.7651 14.1174 38.7953 14.3193 38.8908C15.072 39.2638 15.8498 39.5839 16.6471 39.8487C16.8605 39.9222 17.0457 40.0605 17.1767 40.2443C17.3078 40.4281 17.3782 40.6482 17.3782 40.8739V42.1933C17.3782 42.9265 17.6694 43.6297 18.1879 44.1482C18.7064 44.6667 19.4096 44.958 20.1429 44.958H24.8571C25.2209 44.9591 25.5813 44.8884 25.9177 44.7499C26.2541 44.6115 26.5599 44.408 26.8175 44.1512C27.0751 43.8944 27.2795 43.5892 27.419 43.2532C27.5585 42.9172 27.6302 42.557 27.6302 42.1933V40.8823C27.6271 40.6571 27.6953 40.4365 27.8251 40.2524C27.9549 40.0682 28.1397 39.9299 28.3529 39.8571C29.1422 39.5896 29.9117 39.2667 30.6555 38.8908C30.8562 38.793 31.0826 38.7607 31.3027 38.7984C31.5228 38.8361 31.7255 38.9419 31.8824 39.1008L32.8151 40.0336C33.336 40.5499 34.0397 40.8395 34.7731 40.8395C35.5065 40.8395 36.2102 40.5499 36.7311 40.0336L40.042 36.7227C40.5583 36.2018 40.8479 35.4981 40.8479 34.7647C40.8479 34.0313 40.5583 33.3276 40.042 32.8067L39.1429 31.8823C38.9832 31.7242 38.877 31.52 38.8394 31.2985C38.8017 31.0769 38.8344 30.8491 38.9328 30.6471C39.31 29.8952 39.6329 29.1173 39.8992 28.3193C39.97 28.1059 40.1064 27.9202 40.289 27.789C40.4716 27.6577 40.6911 27.5874 40.916 27.5882H42.2353C42.9685 27.5882 43.6717 27.297 44.1902 26.7785C44.7087 26.26 45 25.5568 45 24.8235V20.1429C45 19.7769 44.9274 19.4147 44.7864 19.077C44.6453 18.7394 44.4387 18.4331 44.1784 18.1759C43.9181 17.9188 43.6093 17.7158 43.27 17.5789C42.9307 17.4419 42.5676 17.3737 42.2017 17.3782ZM34.6387 18.521C35.4769 21.0982 35.4771 23.8747 34.6392 26.452C33.8013 29.0293 32.1684 31.2749 29.9749 32.8665C27.7814 34.4581 25.1401 35.3138 22.43 35.3108C19.7199 35.3079 17.0805 34.4464 14.8904 32.8501C12.7004 31.2538 11.0724 29.0046 10.2401 26.4255C9.40781 23.8464 9.41403 21.0699 10.2578 18.4945C11.1017 15.9192 12.7397 13.6774 14.9369 12.0908C17.134 10.5043 19.7773 9.65468 22.4874 9.66386C24.0809 9.66246 25.6604 9.96182 27.1429 10.5462L17.0588 20.5462C16.9483 20.6545 16.8698 20.7911 16.8319 20.9412L14.9076 28.605C14.864 28.7517 14.8614 28.9075 14.8999 29.0556C14.9384 29.2037 15.0166 29.3385 15.126 29.4454C15.2039 29.5248 15.2967 29.5879 15.3991 29.6312C15.5015 29.6745 15.6115 29.697 15.7227 29.6975C15.7897 29.7056 15.8574 29.7056 15.9244 29.6975L23.6723 27.7899C23.8205 27.7584 23.9554 27.6821 24.0588 27.5714L34.2773 17.4874C34.4287 17.8251 34.5633 18.17 34.6807 18.521H34.6387ZM18.0756 22.7731L21.7899 26.4454L16.8571 27.6639L18.0756 22.7731ZM23.4454 25.7227L18.8151 21.1429L35.4874 4.67227L40.1176 9.2521L23.4454 25.7227ZM39.4118 1.77311C40.0387 1.76689 40.6427 2.00851 41.0924 2.44538L42.3866 3.73109C42.8248 4.17058 43.0709 4.76591 43.0709 5.38655C43.0709 6.0072 42.8248 6.60253 42.3866 7.04202L41.3445 8.06723L36.6807 3.48739L37.7143 2.46218C37.931 2.24358 38.1888 2.07012 38.473 1.95184C38.7572 1.83356 39.062 1.77281 39.3697 1.77311H39.4118ZM43.3277 24.8235C43.3277 25.111 43.2135 25.3868 43.0102 25.5901C42.8069 25.7934 42.5312 25.9076 42.2437 25.9076H40.8824C40.3101 25.9147 39.7543 26.0997 39.292 26.437C38.8298 26.7743 38.4839 27.2472 38.3025 27.7899C38.0678 28.5103 37.7872 29.2148 37.4622 29.8992C37.2085 30.4158 37.1223 30.9987 37.2157 31.5666C37.3091 32.1345 37.5774 32.6591 37.9832 33.0672L38.916 34C39.0173 34.1007 39.0978 34.2205 39.1527 34.3525C39.2076 34.4845 39.2359 34.626 39.2359 34.7689C39.2359 34.9118 39.2076 35.0533 39.1527 35.1853C39.0978 35.3173 39.0173 35.4371 38.916 35.5378L35.5378 38.8908C35.4371 38.9921 35.3173 39.0726 35.1853 39.1275C35.0533 39.1824 34.9118 39.2106 34.7689 39.2106C34.626 39.2106 34.4845 39.1824 34.3525 39.1275C34.2205 39.0726 34.1007 38.9921 34 38.8908L33.0672 37.958C32.6661 37.542 32.1436 37.2635 31.5746 37.1623C31.0055 37.0612 30.4191 37.1426 29.8992 37.395C29.2126 37.7214 28.5051 38.0021 27.7815 38.2353C27.2328 38.4166 26.7558 38.7673 26.4191 39.237C26.0824 39.7066 25.9033 40.2709 25.9076 40.8487V42.1681C25.9144 42.455 25.808 42.7331 25.6115 42.9422C25.4149 43.1514 25.1439 43.2748 24.8571 43.2857H20.1429C19.8554 43.2857 19.5796 43.1715 19.3763 42.9682C19.173 42.7649 19.0588 42.4892 19.0588 42.2017V40.8823C19.0618 40.3048 18.8822 39.7411 18.5457 39.2717C18.2091 38.8024 17.7328 38.4514 17.1849 38.2689C16.4613 38.0357 15.7538 37.755 15.0672 37.4286C14.5515 37.1711 13.9677 37.0828 13.3989 37.1763C12.8301 37.2699 12.3053 37.5405 11.8992 37.9496L10.9664 38.8908C10.8656 38.9921 10.7458 39.0726 10.6139 39.1275C10.4819 39.1824 10.3404 39.2106 10.1975 39.2106C10.0546 39.2106 9.91304 39.1824 9.78108 39.1275C9.64912 39.0726 9.52932 38.9921 9.42857 38.8908L6.11765 35.5294C6.01534 35.4303 5.93428 35.3113 5.87938 35.1799C5.82449 35.0484 5.79691 34.9072 5.79832 34.7647C5.79722 34.621 5.82491 34.4786 5.87975 34.3458C5.9346 34.2131 6.01549 34.0926 6.11765 33.9916L7.05042 33.0588C7.46066 32.6534 7.73202 32.1285 7.82561 31.5594C7.91921 30.9903 7.83023 30.4062 7.57143 29.8908C7.24498 29.2041 6.96426 28.4967 6.73109 27.7731C6.5464 27.2265 6.19485 26.7517 5.72599 26.4155C5.25713 26.0793 4.69459 25.8987 4.11765 25.8992H2.76471C2.4772 25.8992 2.20147 25.7849 1.99818 25.5817C1.79488 25.3784 1.68067 25.1026 1.68067 24.8151V20.1429C1.68067 19.8554 1.79488 19.5796 1.99818 19.3763C2.20147 19.173 2.4772 19.0588 2.76471 19.0588H4.08403C4.66158 19.0618 5.2253 18.8822 5.69466 18.5457C6.16402 18.2091 6.51501 17.7328 6.69748 17.1849C6.93062 16.4585 7.21134 15.7483 7.53781 15.0588C7.79594 14.5447 7.88455 13.9619 7.79095 13.3943C7.69735 12.8266 7.42634 12.3032 7.01681 11.8992L6.11765 10.9664C5.91495 10.7618 5.80122 10.4855 5.80122 10.1975C5.80122 9.90949 5.91495 9.63315 6.11765 9.42857L9.42857 6.11765C9.52932 6.01627 9.64912 5.93582 9.78108 5.88092C9.91304 5.82602 10.0546 5.79775 10.1975 5.79775C10.3404 5.79775 10.4819 5.82602 10.6139 5.88092C10.7458 5.93582 10.8656 6.01627 10.9664 6.11765L11.8992 7.05042C12.3059 7.45842 12.8307 7.72824 13.3992 7.82173C13.9677 7.91523 14.5512 7.82767 15.0672 7.57143C15.7538 7.24498 16.4613 6.96426 17.1849 6.73109C17.7321 6.54751 18.2077 6.19624 18.5441 5.72713C18.8805 5.25802 19.0606 4.69489 19.0588 4.11765V2.7563C19.0588 2.4688 19.173 2.19307 19.3763 1.98978C19.5796 1.78648 19.8554 1.67227 20.1429 1.67227H24.8571C25.1396 1.68096 25.4076 1.79873 25.6051 2.00086C25.8025 2.20299 25.9139 2.47376 25.916 2.7563V4.07563C25.913 4.65317 26.0926 5.2169 26.4291 5.68626C26.7657 6.15562 27.2419 6.50661 27.7899 6.68908C28.5683 6.95987 29.3266 7.28562 30.0588 7.66387L28.4454 9.2521C26.5744 8.40281 24.5421 7.96713 22.4874 7.97479C19.4364 7.9813 16.4657 8.95253 14.0001 10.7495C11.5345 12.5466 9.70034 15.0773 8.76004 17.9798C7.81975 20.8822 7.82146 24.0077 8.76493 26.9092C9.7084 29.8106 11.5453 32.3393 14.0129 34.1336C16.4804 35.928 19.4522 36.8959 22.5032 36.8991C25.5542 36.9023 28.528 35.9405 30.9993 34.1513C33.4706 32.3621 35.3128 29.8372 36.2623 26.9378C37.2118 24.0383 37.22 20.9128 36.2857 18.0084C36.0729 17.3756 35.8174 16.7579 35.521 16.1597L37.1176 14.5798C37.5894 15.4111 37.986 16.283 38.3025 17.1849C38.4872 17.7315 38.8388 18.2063 39.3076 18.5425C39.7765 18.8787 40.339 19.0593 40.916 19.0588H42.2353C42.5228 19.0588 42.7985 19.173 43.0018 19.3763C43.2051 19.5796 43.3193 19.8554 43.3193 20.1429L43.3277 24.8235Z" fill="white"/>
</svg>
