<svg width="45" height="42" viewBox="0 0 45 42" fill="none" xmlns="http://www.w3.org/2000/svg">
<path d="M44.8765 31.8203C44.3857 29.9868 42.4796 28.8728 40.5373 29.2801L26.9997 32.1542C27.2661 31.4219 27.2666 30.6193 27.0013 29.8867C26.736 29.1541 26.2217 28.538 25.5482 28.1461L17.7007 23.6145C17.3858 23.4179 17.09 23.1922 16.8171 22.9405C16.1276 22.3444 15.2694 21.6032 13.67 21.4327C12.1504 21.2712 10.1726 21.6277 7.50089 22.5522C7.4117 21.9856 7.12335 21.4694 6.68766 21.0964C6.25197 20.7234 5.69752 20.5181 5.12397 20.5173H2.40594C1.76807 20.518 1.15653 20.7717 0.70548 21.2228C0.254434 21.6738 0.000720356 22.2853 0 22.9232V36.2965C0.000720356 36.9344 0.254434 37.546 0.70548 37.997C1.15653 38.448 1.76807 38.7018 2.40594 38.7025H5.11581C5.74699 38.7016 6.35261 38.453 6.80238 38.0102C7.25216 37.5674 7.51015 36.9657 7.52084 36.3346C9.68547 36.0307 12.4352 37.6002 15.1007 39.1225C17.3977 40.4344 19.5878 41.6854 21.4176 41.6854C21.7619 41.6882 22.1045 41.6384 22.4337 41.5375L42.349 36.2013C43.2649 35.9551 44.0455 35.3554 44.5195 34.5339C44.9934 33.7124 45.1218 32.7364 44.8765 31.8203ZM5.11581 37.2509H2.40594C2.1529 37.2507 1.91028 37.1501 1.73135 36.9711C1.55242 36.7922 1.45179 36.5496 1.45155 36.2965V22.9232C1.45179 22.6702 1.55242 22.4276 1.73135 22.2486C1.91028 22.0697 2.1529 21.9691 2.40594 21.9688H5.11581C5.36885 21.9691 5.61147 22.0697 5.7904 22.2486C5.96933 22.4276 6.06996 22.6702 6.0702 22.9232V36.2965C6.06996 36.5496 5.96933 36.7922 5.7904 36.9711C5.61147 37.1501 5.36885 37.2507 5.11581 37.2509ZM41.9734 34.8014L22.0454 40.1395L22.0119 40.1495C20.612 40.5968 18.177 39.2069 15.8228 37.8624C13.0168 36.2584 10.1246 34.6091 7.52447 34.8686V24.0808C13.4531 21.9543 14.6797 23.013 15.8709 24.0382C16.212 24.3512 16.5827 24.6305 16.9777 24.8719L24.8251 29.4026C25.037 29.5255 25.2226 29.689 25.3713 29.8837C25.52 30.0784 25.6289 30.3004 25.6918 30.5372C25.7547 30.774 25.7704 31.0208 25.7378 31.2636C25.7053 31.5064 25.6253 31.7404 25.5024 31.9523C25.3794 32.1642 25.2159 32.3498 25.0213 32.4985C24.8266 32.6472 24.6045 32.7561 24.3678 32.819C24.131 32.8819 23.8842 32.8975 23.6414 32.865C23.3986 32.8325 23.1645 32.7525 22.9526 32.6296L16.4007 28.8474C16.2345 28.7571 16.0395 28.7353 15.8574 28.7866C15.6754 28.8379 15.5205 28.9583 15.4259 29.1222C15.3313 29.286 15.3044 29.4803 15.3509 29.6636C15.3974 29.847 15.5137 30.005 15.6749 30.1039L22.2269 33.887C22.7289 34.1776 23.2988 34.3306 23.8789 34.3306C24.3995 34.3298 24.9127 34.2074 25.3776 33.9731C25.4118 33.9708 25.4457 33.9663 25.4792 33.9595L40.8348 30.7081C42.0423 30.4522 43.1755 31.0936 43.4721 32.1995C43.6169 32.7429 43.5405 33.3215 43.2596 33.8087C42.9787 34.2958 42.5162 34.6518 41.9734 34.7987V34.8014ZM4.97065 24.5898C4.97137 24.8293 4.90098 25.0637 4.7684 25.2632C4.63581 25.4627 4.447 25.6184 4.22587 25.7106C4.00474 25.8027 3.76124 25.8271 3.52622 25.7808C3.29119 25.7344 3.07521 25.6193 2.90563 25.4501C2.73605 25.2809 2.6205 25.0652 2.57361 24.8303C2.52672 24.5954 2.5506 24.3518 2.64223 24.1305C2.73386 23.9091 2.88912 23.72 3.08834 23.587C3.28756 23.4539 3.52178 23.383 3.76133 23.3832C4.08137 23.3839 4.38814 23.5112 4.6147 23.7372C4.84126 23.9633 4.96922 24.2697 4.97065 24.5898ZM19.2993 16.6162H20.5276C20.7711 17.4912 21.1202 18.3333 21.5673 19.1238L20.6991 19.9929C20.4713 20.2177 20.3332 20.5178 20.3107 20.8371C20.2881 21.1564 20.3827 21.4729 20.5766 21.7275C21.3445 22.7463 22.2511 23.6527 23.2702 24.4201C23.5245 24.6146 23.8411 24.7095 24.1604 24.6871C24.4798 24.6647 24.78 24.5266 25.0048 24.2986L25.8739 23.4304C26.6643 23.8776 27.5059 24.2273 28.3805 24.4718V25.7002C28.3786 26.0203 28.4934 26.3301 28.7035 26.5716C28.9136 26.8131 29.2045 26.9697 29.5218 27.0121C30.7857 27.19 32.0683 27.19 33.3321 27.0121C33.6499 26.9698 33.9413 26.8131 34.1516 26.5712C34.3619 26.3293 34.4767 26.0189 34.4743 25.6984V24.4718C35.3492 24.2281 36.1912 23.879 36.9819 23.4322L37.8501 24.3004C38.0748 24.5284 38.375 24.6666 38.6944 24.6889C39.0138 24.7113 39.3303 24.6164 39.5847 24.4219C40.6035 23.654 41.5095 22.747 42.2764 21.7275C42.4705 21.473 42.5652 21.1565 42.5428 20.8373C42.5204 20.518 42.3825 20.2178 42.1548 19.9929L41.2857 19.1238C41.7329 18.3336 42.082 17.4919 42.3254 16.6171H43.5547C43.8748 16.6193 44.1847 16.5045 44.4262 16.2944C44.6678 16.0842 44.8243 15.7932 44.8665 15.4759C45.0445 14.212 45.0445 12.9294 44.8665 11.6655C44.8241 11.3484 44.6675 11.0575 44.426 10.8476C44.1845 10.6376 43.8747 10.523 43.5547 10.5252H42.3245C42.0806 9.65021 41.7312 8.80817 41.2839 8.01761L42.153 7.1494C42.3795 6.925 42.5168 6.62602 42.5395 6.308C42.5622 5.98998 42.4687 5.67453 42.2764 5.42024C41.5091 4.40072 40.6024 3.49402 39.5829 2.72671C39.3285 2.53227 39.012 2.43734 38.6926 2.45972C38.3732 2.4821 38.073 2.62027 37.8483 2.84828L36.9801 3.71739C36.1902 3.26917 35.3488 2.91854 34.4743 2.67319V1.44481C34.4765 1.12471 34.3619 0.814801 34.152 0.573143C33.942 0.331485 33.6512 0.174665 33.3339 0.132065C32.0699 -0.0440217 30.7876 -0.0440217 29.5236 0.132065C29.2064 0.17485 28.9157 0.331724 28.7058 0.573341C28.4959 0.814958 28.3813 1.12477 28.3832 1.44481V2.67319C27.5077 2.91704 26.6651 3.26647 25.8739 3.71377L25.0048 2.84465C24.7798 2.61699 24.4797 2.47907 24.1604 2.45669C23.8411 2.43432 23.5247 2.52902 23.2702 2.72308C22.2504 3.49151 21.3437 4.39944 20.5766 5.42024C20.3825 5.67477 20.2878 5.99135 20.3104 6.31067C20.3329 6.62998 20.4711 6.93012 20.6991 7.15485L21.5673 8.02306C21.12 8.81348 20.7709 9.65556 20.5276 10.5306H19.2993C18.9792 10.5284 18.6693 10.643 18.4276 10.853C18.1859 11.0629 18.0291 11.3537 17.9865 11.671C17.8085 12.9349 17.8085 14.2174 17.9865 15.4813C18.0301 15.7976 18.1874 16.0873 18.429 16.2962C18.6706 16.505 18.9799 16.6188 19.2993 16.6162ZM19.409 11.9785H21.0928C21.2579 11.9786 21.4181 11.9223 21.5469 11.8191C21.6757 11.7158 21.7655 11.5717 21.8014 11.4106C22.0487 10.3053 22.4858 9.25121 23.0933 8.29522C23.1815 8.15593 23.2198 7.99073 23.2016 7.82682C23.1835 7.6629 23.1101 7.51006 22.9935 7.39345L21.8032 6.20227C22.4522 5.35545 23.2099 4.59777 24.0567 3.94873L25.247 5.13991C25.3637 5.25675 25.5167 5.3303 25.6808 5.34845C25.8449 5.36659 26.0103 5.32823 26.1497 5.23971C27.1057 4.63225 28.1597 4.19515 29.2651 3.94783C29.4254 3.91188 29.5688 3.82258 29.6718 3.69452C29.7748 3.56647 29.8313 3.40725 29.8321 3.24292V1.55458C30.89 1.41669 31.9613 1.41669 33.0191 1.55458V3.24292C33.0191 3.408 33.0754 3.56816 33.1786 3.69697C33.2819 3.82579 33.4259 3.91555 33.5871 3.95146C34.6918 4.19733 35.7456 4.6329 36.7015 5.2388C36.8409 5.32733 37.0063 5.36568 37.1704 5.34754C37.3345 5.3294 37.4876 5.25584 37.6042 5.13901L38.7954 3.94783C39.6417 4.59713 40.3991 5.35479 41.048 6.20136L39.8578 7.39254C39.7411 7.50915 39.6677 7.662 39.6496 7.82591C39.6314 7.98982 39.6697 8.15503 39.758 8.29431C40.3655 9.24961 40.8026 10.3031 41.0498 11.4079C41.0859 11.5689 41.1758 11.7127 41.3046 11.8158C41.4334 11.9189 41.5934 11.975 41.7584 11.9749H43.4422C43.5813 13.0327 43.5813 14.1042 43.4422 15.162H41.7575C41.5927 15.1621 41.4328 15.2183 41.3042 15.3214C41.1756 15.4244 41.0859 15.5682 41.0498 15.729C40.8028 16.8352 40.3657 17.8903 39.758 18.8471C39.6697 18.9864 39.6314 19.1516 39.6496 19.3155C39.6677 19.4794 39.7411 19.6322 39.8578 19.7489L41.0489 20.94C40.3994 21.7864 39.6418 22.544 38.7954 23.1936L37.6042 22.0033C37.4875 21.8868 37.3346 21.8136 37.1707 21.7956C37.0068 21.7776 36.8416 21.816 36.7024 21.9044C35.7462 22.5121 34.6918 22.9492 33.5862 23.1963C33.4253 23.2323 33.2816 23.3221 33.1785 23.4507C33.0755 23.5793 33.0193 23.7391 33.0191 23.9039V25.5886C31.9613 25.7265 30.89 25.7265 29.8321 25.5886V23.9039C29.8322 23.739 29.776 23.5789 29.673 23.4501C29.5699 23.3213 29.426 23.2315 29.2651 23.1954C28.1594 22.9491 27.1052 22.5119 26.1497 21.9035C26.0103 21.815 25.8449 21.7766 25.6808 21.7948C25.5167 21.8129 25.3637 21.8865 25.247 22.0033L24.0567 23.1945C23.2099 22.5454 22.4522 21.7878 21.8032 20.9409L22.9935 19.7543C23.1101 19.6377 23.1835 19.4848 23.2016 19.3209C23.2198 19.157 23.1815 18.9918 23.0933 18.8525C22.4856 17.8966 22.0485 16.8425 21.8014 15.7371C21.7655 15.576 21.6757 15.4319 21.5469 15.3287C21.4181 15.2254 21.2579 15.1692 21.0928 15.1692H19.409C19.2699 14.1117 19.2699 13.0406 19.409 11.9831V11.9785ZM31.4261 20.843C32.8635 20.843 34.2686 20.4167 35.4638 19.6181C36.659 18.8195 37.5905 17.6845 38.1406 16.3565C38.6906 15.0285 38.8346 13.5672 38.5541 12.1574C38.2737 10.7476 37.5815 9.45258 36.5651 8.43617C35.5487 7.41976 34.2537 6.72758 32.8439 6.44715C31.4341 6.16672 29.9728 6.31065 28.6448 6.86073C27.3168 7.4108 26.1818 8.34233 25.3832 9.5375C24.5846 10.7327 24.1583 12.1378 24.1583 13.5752C24.1605 15.5021 24.9269 17.3494 26.2894 18.7119C27.6519 20.0744 29.4992 20.8408 31.4261 20.843ZM31.4261 7.75905C32.5764 7.75905 33.7009 8.10017 34.6574 8.73926C35.6138 9.37835 36.3593 10.2867 36.7995 11.3495C37.2397 12.4122 37.3549 13.5817 37.1305 14.7099C36.9061 15.8381 36.3521 16.8745 35.5387 17.6879C34.7253 18.5013 33.689 19.0552 32.5607 19.2797C31.4325 19.5041 30.2631 19.3889 29.2003 18.9487C28.1375 18.5085 27.2292 17.763 26.5901 16.8065C25.951 15.8501 25.6099 14.7256 25.6099 13.5752C25.6106 12.0326 26.2235 10.5533 27.314 9.46209C28.4045 8.37092 29.8834 7.75711 31.4261 7.75543V7.75905ZM28.4077 14.262C28.3404 14.1946 28.2869 14.1145 28.2505 14.0264C28.2141 13.9384 28.1953 13.844 28.1954 13.7486C28.1954 13.6533 28.2142 13.5589 28.2507 13.4709C28.2873 13.3828 28.3408 13.3029 28.4082 13.2355C28.4756 13.1681 28.5557 13.1147 28.6438 13.0782C28.7318 13.0418 28.8262 13.0231 28.9216 13.0231C29.0169 13.0232 29.1113 13.042 29.1993 13.0785C29.2873 13.115 29.3673 13.1685 29.4347 13.2359L30.6005 14.4017L33.3857 11.2056C33.5162 11.0767 33.6907 11.0021 33.8741 10.9966C34.0574 10.9912 34.236 11.0554 34.3739 11.1764C34.5119 11.2973 34.5989 11.4659 34.6175 11.6484C34.6362 11.8309 34.585 12.0137 34.4743 12.16L31.1811 15.9376C31.1157 16.0127 31.0356 16.0735 30.9457 16.1163C30.8558 16.159 30.758 16.1828 30.6586 16.1862H30.6341C30.5387 16.1863 30.4443 16.1676 30.3562 16.1312C30.2681 16.0947 30.188 16.0413 30.1206 15.9739L28.4077 14.262Z" fill="white"/>
</svg>
