<svg width="48" height="44" viewBox="0 0 48 44" fill="none" xmlns="http://www.w3.org/2000/svg">
<path d="M47.4893 27.7943C46.5762 26.4525 44.7376 26.0974 43.3917 27.0019L37.2661 31.1014L37.2483 18.3411L39.3764 20.3347C39.8265 20.7575 40.421 20.9925 41.0385 20.9918H41.0422C41.3743 20.9908 41.7027 20.9221 42.0073 20.7898C42.3119 20.6575 42.5864 20.4645 42.8138 20.2225C43.2579 19.7484 43.4909 19.1299 43.4697 18.4806C43.4485 17.8313 43.1757 17.2291 42.7016 16.785L38.6671 13.0056C38.5337 12.8859 38.3588 12.8232 38.1797 12.831C38.0007 12.8388 37.8318 12.9164 37.7093 13.0472C37.5868 13.1779 37.5204 13.3515 37.5243 13.5306C37.5282 13.7098 37.6021 13.8803 37.7302 14.0056L41.7648 17.785C41.8668 17.8801 41.949 17.9945 42.0066 18.1215C42.0642 18.2486 42.0959 18.3858 42.1001 18.5252C42.105 18.6646 42.0823 18.8036 42.0331 18.9341C41.9839 19.0646 41.9094 19.1841 41.8137 19.2856C41.7149 19.3919 41.5952 19.4767 41.4621 19.5345C41.3289 19.5923 41.1852 19.6219 41.0401 19.6214H41.0385C40.7682 19.6214 40.5107 19.5196 40.3132 19.3345L40.3131 19.3344L24.2929 4.32703C24.1657 4.20788 23.9978 4.14168 23.8235 4.14193C23.6492 4.14217 23.4816 4.20883 23.3547 4.32835L7.37616 19.3807C7.27482 19.4765 7.15552 19.5513 7.02514 19.6008C6.89477 19.6502 6.75588 19.6735 6.6165 19.669C6.47706 19.6653 6.33975 19.6338 6.21254 19.5766C6.08533 19.5194 5.97074 19.4375 5.87541 19.3357C5.77949 19.2344 5.70461 19.1152 5.65511 18.9848C5.60561 18.8544 5.58247 18.7155 5.58703 18.5761C5.59081 18.4367 5.6222 18.2994 5.67939 18.1722C5.73658 18.045 5.81844 17.9304 5.92022 17.835L23.0931 1.65769C23.5001 1.27416 24.1388 1.27322 24.5468 1.65572L34.5938 11.0675C34.6594 11.129 34.7365 11.177 34.8208 11.2087C34.905 11.2404 34.9946 11.2552 35.0845 11.2522C35.1744 11.2493 35.2629 11.2287 35.3449 11.1916C35.4268 11.1544 35.5007 11.1015 35.5622 11.0359C35.6237 10.9702 35.6717 10.8931 35.7034 10.8089C35.7351 10.7247 35.7499 10.635 35.747 10.5451C35.744 10.4552 35.7234 10.3667 35.6863 10.2848C35.6492 10.2028 35.5963 10.129 35.5306 10.0674L25.4838 0.65569C24.5488 -0.22031 23.086 -0.218341 22.1535 0.660284L16.6561 5.83903L16.6546 4.91531C16.6548 4.77212 16.6266 4.63031 16.5716 4.49809C16.5166 4.36587 16.4359 4.24588 16.3342 4.14507C16.2333 4.04385 16.1134 3.96362 15.9813 3.90901C15.8492 3.8544 15.7076 3.82649 15.5647 3.82688H15.5631L11.6305 3.83241C11.4873 3.83221 11.3455 3.86043 11.2133 3.91541C11.0811 3.9704 10.9611 4.05107 10.8603 4.15275C10.7589 4.25389 10.6786 4.37414 10.624 4.50653C10.5694 4.63892 10.5416 4.78083 10.5422 4.92403L10.5531 11.5884L4.98066 16.8378C4.50778 17.2832 4.23675 17.8861 4.21734 18.5354C4.19794 19.1847 4.43259 19.8027 4.878 20.2754C5.32331 20.7483 5.92622 21.0194 6.57562 21.0388C6.60047 21.0396 6.62531 21.0399 6.65016 21.0399C7.27219 21.0399 7.86122 20.8065 8.31581 20.3781L10.4392 18.3778L10.4476 24.4051C9.75874 24.3042 9.06349 24.2532 8.36728 24.2526H7.19494V23.8418C7.19494 22.4626 6.07284 21.3405 4.69369 21.3405H2.50125C1.12209 21.3404 0 22.4624 0 23.8417V34.5777C0 34.7594 0.0721826 34.9337 0.200668 35.0622C0.329154 35.1907 0.503419 35.2628 0.685125 35.2628C0.866831 35.2628 1.0411 35.1907 1.16958 35.0622C1.29807 34.9337 1.37025 34.7594 1.37025 34.5777V23.8417C1.37025 23.218 1.87763 22.7107 2.50125 22.7107H4.69359C5.31722 22.7107 5.82459 23.218 5.82459 23.8417V40.0661C5.82459 40.6898 5.31722 41.1971 4.69359 41.1971H2.50125C1.87763 41.1971 1.37025 40.6898 1.37025 40.0661V38.8673C1.37025 38.6855 1.29807 38.5113 1.16958 38.3828C1.0411 38.2543 0.866831 38.1821 0.685125 38.1821C0.503419 38.1821 0.329154 38.2543 0.200668 38.3828C0.0721826 38.5113 0 38.6855 0 38.8673L0 40.0661C0 41.4453 1.12209 42.5674 2.50125 42.5674H4.69359C6.07275 42.5674 7.19484 41.4454 7.19484 40.0661V39.973L17.2283 43.7725C17.2469 43.7796 17.2657 43.7858 17.2849 43.7911C17.7211 43.9143 18.1571 43.9761 18.5876 43.9761C18.8205 43.9761 19.0518 43.958 19.2807 43.9218L34.0258 41.7963L34.0361 41.7947C35.2912 41.5939 36.4709 41.0652 37.4561 40.2623C37.4647 40.2553 37.4731 40.2481 37.4812 40.2407L47.0073 31.6731C48.1166 30.6882 48.3237 29.0207 47.4893 27.7943ZM15.2847 5.1976L15.2879 7.12791L11.9212 10.2995L11.9128 5.20219L15.2847 5.1976ZM23.8257 5.76703L35.8762 17.0557L35.8971 32.0175L33.9573 33.3158L31.9031 33.2005L31.8488 32.6549C31.7581 31.7255 31.3699 30.8501 30.7419 30.1589C30.1139 29.4678 29.2797 28.9977 28.3632 28.8185L28.3508 19.9174C28.3499 19.2343 27.7938 18.6792 27.1108 18.6792H27.1091L20.5791 18.6884C20.4162 18.6882 20.2548 18.7203 20.1044 18.7828C19.954 18.8454 19.8175 18.9371 19.7028 19.0528C19.5874 19.1678 19.496 19.3046 19.4339 19.4552C19.3718 19.6057 19.3401 19.7671 19.3408 19.93L19.3517 27.6908C18.0567 27.395 16.8146 26.9028 15.6684 26.2313C15.5244 26.1471 15.379 26.0655 15.2321 25.9865C15.1749 25.9556 15.1168 25.9267 15.0592 25.8966C14.9699 25.85 14.8808 25.8031 14.7907 25.7584C14.7188 25.7228 14.6462 25.689 14.5738 25.6546C14.497 25.6181 14.4203 25.5813 14.343 25.5461C14.2643 25.5104 14.1848 25.4764 14.1055 25.4421C14.0331 25.4108 13.9606 25.3793 13.8877 25.3492C13.8061 25.3155 13.7241 25.2832 13.6419 25.251C13.5691 25.2225 13.4962 25.1942 13.4229 25.1668C13.3417 25.1364 13.26 25.1071 13.1782 25.0783C12.9403 24.9944 12.7002 24.9167 12.4583 24.8455C12.3856 24.8242 12.313 24.8028 12.24 24.7825C12.1446 24.7562 12.0489 24.7309 11.9529 24.7066C11.908 24.6951 11.8634 24.682 11.8182 24.6709L11.8076 17.0886L23.8257 5.76703ZM26.9928 28.647L21.2623 27.9873L20.7224 27.9251L20.7113 20.0585L26.9808 20.0497L26.9928 28.647ZM46.0943 30.6515L36.5777 39.2107C35.7835 39.8543 34.8344 40.2785 33.8251 40.4408L19.0864 42.5654L19.0772 42.5668L19.067 42.5684C18.6204 42.6391 18.1554 42.6093 17.6847 42.4801L7.19494 38.5077V25.6227H8.36728C9.39874 25.6231 10.4265 25.7454 11.4293 25.9872C11.5478 26.0158 11.6662 26.0453 11.7839 26.0771L11.8148 26.0858C11.9328 26.118 12.0503 26.152 12.1675 26.1876C12.1885 26.1939 12.2096 26.2002 12.2305 26.2067C12.3552 26.2452 12.4793 26.2854 12.6028 26.3276L12.641 26.3409C12.9124 26.4346 13.1806 26.5373 13.4453 26.6486C13.574 26.7027 13.7019 26.7589 13.8289 26.8171C13.9485 26.872 14.0673 26.929 14.1853 26.9876C14.1992 26.9945 14.2132 27.0012 14.227 27.0082C14.3423 27.0658 14.4567 27.1255 14.5704 27.1867C14.5919 27.1982 14.6133 27.21 14.6348 27.2216C14.7495 27.2842 14.8636 27.3479 14.9766 27.414C16.607 28.3677 18.3818 28.9854 20.252 29.2501C20.2579 29.2509 20.2637 29.2517 20.2696 29.2523L27.9459 30.1361C28.5196 30.2177 29.0568 30.4653 29.4916 30.8483C29.9263 31.2313 30.2396 31.7331 30.3929 32.2918C30.4372 32.4529 30.4683 32.6196 30.4853 32.7905L30.5158 33.097L16.1289 31.8366C16.0393 31.8287 15.949 31.8386 15.8632 31.8656C15.7774 31.8927 15.6977 31.9363 15.6288 31.9942C15.4896 32.1109 15.4025 32.2782 15.3866 32.4593C15.3708 32.6403 15.4275 32.8202 15.5442 32.9594C15.661 33.0986 15.8283 33.1857 16.0093 33.2016L31.2195 34.5342C31.2232 34.5345 31.2267 34.5344 31.2303 34.5347C31.2338 34.535 31.2373 34.5355 31.241 34.5358L34.1094 34.6968C34.1223 34.6975 34.135 34.6978 34.1478 34.6978C34.1614 34.6978 34.1748 34.6957 34.1883 34.6948C34.2036 34.6939 34.2188 34.6933 34.234 34.6914C34.2545 34.6888 34.2744 34.6844 34.2945 34.68C34.3088 34.6768 34.3233 34.6745 34.3373 34.6703C34.3593 34.6641 34.3804 34.6555 34.4017 34.647C34.4131 34.6424 34.4249 34.6389 34.4362 34.6337C34.4681 34.6189 34.4993 34.6018 34.5289 34.5819L36.9637 32.9525L36.964 32.9522L44.1548 28.1398C44.8783 27.6535 45.8659 27.8443 46.3563 28.5651C46.8046 29.2238 46.6933 30.1195 46.0943 30.6515Z" fill="white"/>
</svg>
