<svg width="42" height="42" viewBox="0 0 42 42" fill="none" xmlns="http://www.w3.org/2000/svg">
<g clip-path="url(#clip0_693_70)">
<path d="M7.46084 21.1085C7.28679 21.1085 7.11987 21.1776 6.9968 21.3007C6.87373 21.4238 6.80459 21.5907 6.80459 21.7648V31.157C6.80459 31.3311 6.87373 31.498 6.9968 31.621C7.11987 31.7441 7.28679 31.8133 7.46084 31.8133H22.7655C22.9395 31.8133 23.1064 31.7441 23.2295 31.621C23.3526 31.498 23.4217 31.3311 23.4217 31.157V21.7648C23.4217 21.5907 23.3526 21.4238 23.2295 21.3007C23.1064 21.1776 22.9395 21.1085 22.7655 21.1085H7.46084ZM22.1092 30.5008H8.11709V22.421H22.1092V30.5008ZM4.19446 17.4501C5.05871 17.5378 5.93018 17.3802 6.70894 16.9953C7.48771 16.6104 8.14223 16.0139 8.59746 15.274C8.98676 16.0278 9.5721 16.6626 10.2918 17.1117C11.0116 17.5608 11.8391 17.8075 12.6873 17.8259C13.5355 17.8443 14.3729 17.6336 15.1114 17.2161C15.8499 16.7985 16.4622 16.1896 16.8837 15.4534C17.0695 15.7733 17.2911 16.0709 17.5443 16.3406C17.9892 16.8102 18.5251 17.1843 19.1194 17.4399C19.7136 17.6955 20.3537 17.8273 21.0006 17.8273C21.6475 17.8273 22.2876 17.6955 22.8818 17.4399C23.476 17.1843 24.012 16.8102 24.4568 16.3406C24.71 16.0709 24.9317 15.7733 25.1175 15.4534C25.5406 16.1876 26.1535 16.7945 26.8918 17.2105C27.6301 17.6265 28.4667 17.8363 29.314 17.8179C30.1612 17.7994 30.9879 17.5535 31.7075 17.1058C32.427 16.6581 33.0129 16.0251 33.4037 15.2731C33.9926 16.2221 34.9034 16.9273 35.9696 17.2597C37.0358 17.5921 38.1861 17.5295 39.2099 17.0833C40.2337 16.6372 41.0627 15.8373 41.5451 14.83C42.0275 13.8228 42.1311 12.6755 41.837 11.5981L39.6381 3.48688V0.65625C39.6381 0.482202 39.5689 0.315282 39.4459 0.192211C39.3228 0.0691404 39.1559 0 38.9818 0L3.01671 0C2.84312 0.000694378 2.67687 0.0701412 2.55437 0.193137C2.43186 0.316132 2.36308 0.482656 2.36309 0.65625V3.493L0.164211 11.6008C-0.0127452 12.2532 -0.0454248 12.9365 0.0684456 13.6029C0.182316 14.2693 0.440002 14.9029 0.823579 15.4596C1.20716 16.0163 1.70741 16.4827 2.28955 16.8265C2.87169 17.1703 3.52173 17.3831 4.19446 17.4501ZM12.8001 16.5148C12.3037 16.5149 11.8133 16.4071 11.3627 16.1989C10.9121 15.9906 10.5122 15.687 10.1906 15.3089C9.86897 14.9308 9.63342 14.4873 9.50021 14.0091C9.367 13.5309 9.33932 13.0295 9.41908 12.5396L10.7692 4.2315H16.7131L16.2485 12.8065L16.2231 13.2711C16.1761 14.1471 15.7949 14.9718 15.1581 15.5752C14.5213 16.1786 13.6774 16.5149 12.8001 16.5148ZM23.504 15.4385C23.0187 15.9522 22.3874 16.3045 21.6953 16.4476C21.0033 16.5907 20.284 16.5177 19.6349 16.2386C18.9857 15.9594 18.4379 15.4875 18.0657 14.8868C17.6935 14.2861 17.5149 13.5856 17.554 12.88L17.5811 12.3751L18.0186 4.2315H23.9686L24.4061 12.3751L24.4332 12.88C24.4619 13.3474 24.3942 13.8157 24.2344 14.2558C24.0745 14.6959 23.8259 15.0985 23.504 15.4385ZM31.8103 15.309C31.3661 15.8308 30.7757 16.2074 30.1153 16.3901C29.4549 16.5729 28.7548 16.5535 28.1056 16.3344C27.4563 16.1153 26.8877 15.7065 26.4731 15.1609C26.0585 14.6153 25.817 13.958 25.7798 13.2738L25.7545 12.8091L25.2898 4.23413H31.232L32.5821 12.5423C32.6623 13.0323 32.6349 13.534 32.5016 14.0124C32.3683 14.4909 32.1324 14.9345 31.8103 15.3125V15.309ZM40.0957 14.7149C39.7172 15.2641 39.183 15.6876 38.5619 15.9307C37.9407 16.1739 37.261 16.2256 36.6102 16.0793C35.9594 15.933 35.3673 15.5953 34.91 15.1096C34.4527 14.624 34.1512 14.0127 34.0442 13.3543L32.5611 4.2315H38.4813L40.57 11.9438C40.6973 12.4123 40.7209 12.9031 40.639 13.3817C40.5571 13.8603 40.3717 14.3153 40.0957 14.7149ZM3.67559 1.3125H38.3256V2.919H3.67559V1.3125ZM1.43121 11.9438L3.51984 4.2315H9.44009L8.52571 9.856L8.12321 12.3288L7.95696 13.3534C7.88402 13.8008 7.72083 14.2287 7.47731 14.6111C7.23379 14.9935 6.91504 15.3223 6.54043 15.5776C6.16583 15.8329 5.74321 16.0093 5.29827 16.0962C4.85334 16.183 4.39539 16.1784 3.95228 16.0827C3.50917 15.987 3.09016 15.8021 2.72073 15.5394C2.35131 15.2767 2.0392 14.9415 1.80337 14.5543C1.56755 14.1672 1.41295 13.7361 1.34897 13.2873C1.28499 12.8385 1.31297 12.3814 1.43121 11.9438Z" fill="white"/>
<path d="M41.3438 37.7387H39.6375V18.9079C39.6375 18.7338 39.5684 18.5669 39.4453 18.4438C39.3222 18.3208 39.1553 18.2516 38.9812 18.2516C38.8072 18.2516 38.6403 18.3208 38.5172 18.4438C38.3941 18.5669 38.325 18.7338 38.325 18.9079V37.7387H36.1244V21.7647C36.1244 21.5907 36.0552 21.4238 35.9322 21.3007C35.8091 21.1776 35.6422 21.1085 35.4681 21.1085H26.9622C26.7882 21.1085 26.6213 21.1776 26.4982 21.3007C26.3751 21.4238 26.306 21.5907 26.306 21.7647V37.7387H3.675V18.9149C3.675 18.7408 3.60586 18.5739 3.48279 18.4508C3.35972 18.3278 3.1928 18.2586 3.01875 18.2586C2.8447 18.2586 2.67778 18.3278 2.55471 18.4508C2.43164 18.5739 2.3625 18.7408 2.3625 18.9149V37.7387H0.65625C0.482202 37.7387 0.315282 37.8079 0.192211 37.931C0.0691404 38.054 0 38.2209 0 38.395L0 41.3437C0 41.5178 0.0691404 41.6847 0.192211 41.8078C0.315282 41.9309 0.482202 42 0.65625 42H41.3438C41.5178 42 41.6847 41.9309 41.8078 41.8078C41.9309 41.6847 42 41.5178 42 41.3437V38.395C42 38.2209 41.9309 38.054 41.8078 37.931C41.6847 37.8079 41.5178 37.7387 41.3438 37.7387ZM27.6185 22.421H34.8119V37.7387H27.6185V22.421ZM40.6875 40.6875H1.3125V39.0512H40.6875V40.6875Z" fill="white"/>
</g>
<defs>
<clipPath id="clip0_693_70">
<rect width="42" height="42" fill="white"/>
</clipPath>
</defs>
</svg>
